<svg width="14" height="18" viewBox="0 0 14 18" fill="none" xmlns="http://www.w3.org/2000/svg">
<path d="M6.33625 0.192468C6.73716 -0.0641559 7.26199 -0.0641559 7.6629 0.192468L8.31164 0.603768C8.53032 0.740869 8.78544 0.807661 9.04421 0.7936L9.82052 0.747899C10.3016 0.719776 10.7535 0.972884 10.9686 1.3877L11.3185 2.05914C11.4351 2.28413 11.6246 2.46341 11.8542 2.5759L12.5576 2.9169C12.9877 3.1243 13.2501 3.56021 13.221 4.02424L13.1736 4.77302C13.159 5.02262 13.2282 5.27221 13.3704 5.47962L13.8005 6.10536C14.0665 6.49205 14.0665 6.99827 13.8005 7.38496L13.3704 8.01421C13.2282 8.22514 13.159 8.47121 13.1736 8.72081L13.221 9.46958C13.2501 9.93362 12.9877 10.3695 12.5576 10.5769L11.8615 10.9144C11.6283 11.0269 11.4424 11.2097 11.3258 11.4312L10.9722 12.1096C10.7572 12.5245 10.3053 12.7776 9.82416 12.7494L9.04786 12.7037C8.78909 12.6897 8.53032 12.7565 8.31529 12.8936L7.66654 13.3084C7.26563 13.565 6.74081 13.565 6.3399 13.3084L5.68751 12.8936C5.46883 12.7565 5.21371 12.6897 4.95494 12.7037L4.17863 12.7494C3.69754 12.7776 3.24561 12.5245 3.03057 12.1096L2.68069 11.4382C2.56406 11.2132 2.37454 11.0339 2.14493 10.9214L1.44151 10.5804C1.01145 10.373 0.749034 9.93713 0.778191 9.4731L0.825572 8.72432C0.84015 8.47473 0.770902 8.22514 0.628762 8.01773L0.20234 7.38847C-0.0637182 7.00178 -0.0637182 6.49556 0.20234 6.10887L0.628762 5.48313C0.770902 5.27221 0.84015 5.02613 0.825572 4.77654L0.778191 4.02776C0.749034 3.56373 1.01145 3.12782 1.44151 2.92041L2.13764 2.58293C2.37089 2.46693 2.56042 2.28413 2.67704 2.05914L3.02693 1.3877C3.24196 0.972884 3.6939 0.719776 4.17499 0.747899L4.95129 0.7936C5.21006 0.807661 5.46883 0.740869 5.68386 0.603768L6.33625 0.192468ZM9.91528 6.74867C9.91528 6.0028 9.60809 5.28748 9.06129 4.76007C8.51449 4.23266 7.77287 3.93636 6.99958 3.93636C6.22628 3.93636 5.48466 4.23266 4.93786 4.76007C4.39106 5.28748 4.08387 6.0028 4.08387 6.74867C4.08387 7.49454 4.39106 8.20987 4.93786 8.73728C5.48466 9.26469 6.22628 9.56098 6.99958 9.56098C7.77287 9.56098 8.51449 9.26469 9.06129 8.73728C9.60809 8.20987 9.91528 7.49454 9.91528 6.74867ZM0.0492653 15.5301L1.6201 11.9268C1.62739 11.9304 1.63103 11.9339 1.63468 11.9409L1.98456 12.6123C2.41099 13.4279 3.29663 13.9236 4.24424 13.8709L5.02054 13.8252C5.02783 13.8252 5.03876 13.8252 5.04605 13.8322L5.6948 14.247C5.88067 14.363 6.07748 14.4544 6.28158 14.5177L4.9112 17.6569C4.82738 17.8503 4.6415 17.9803 4.42647 17.9979C4.21143 18.0155 4.00369 17.9206 3.88706 17.7448L2.71349 16.0117L0.668852 16.3035C0.461109 16.3316 0.253365 16.2508 0.122158 16.0926C-0.00904873 15.9344 -0.0345612 15.7164 0.0456207 15.5301H0.0492653ZM9.08795 17.6534L7.71757 14.5177C7.92167 14.4544 8.11848 14.3665 8.30435 14.247L8.9531 13.8322C8.96039 13.8287 8.96768 13.8252 8.97861 13.8252L9.75492 13.8709C10.7025 13.9236 11.5882 13.4279 12.0146 12.6123L12.3645 11.9409C12.3681 11.9339 12.3718 11.9304 12.3791 11.9268L13.9535 15.5301C14.0337 15.7164 14.0046 15.9309 13.877 16.0926C13.7494 16.2543 13.538 16.3351 13.3303 16.3035L11.2857 16.0117L10.1121 17.7413C9.99546 17.9171 9.78772 18.012 9.57268 17.9944C9.35765 17.9768 9.17177 17.8432 9.08795 17.6534Z" fill="#0080A3"/>
</svg>
