<svg width="13" height="17" viewBox="0 0 13 17" fill="none" xmlns="http://www.w3.org/2000/svg">
<g clip-path="url(#clip0_3172_49485)">
<path d="M0 8.5L0.964844 0.929688C1.03255 0.398438 1.49297 0 2.04141 0H7.74922C8.25703 0 8.66667 0.401758 8.66667 0.899805C8.66667 1.00605 8.64635 1.11562 8.60911 1.21523L7.04167 5.3125H11.7576C12.4414 5.3125 13 5.85703 13 6.53105C13 6.77676 12.9255 7.01582 12.7833 7.21836L6.27656 16.5484C6.07682 16.834 5.74844 17.0033 5.39974 17.0033H5.30156C4.77005 17.0033 4.33672 16.5783 4.33672 16.057C4.33672 15.9807 4.34688 15.9043 4.36719 15.8279L5.95833 9.5625H1.08333C0.484115 9.5625 0 9.0877 0 8.5Z" fill="#0080A3"/>
</g>
<defs>
<clipPath id="clip0_3172_49485">
<rect width="13" height="17" fill="white"/>
</clipPath>
</defs>
</svg>
