<svg width="18" height="21" viewBox="0 0 18 21" fill="none" xmlns="http://www.w3.org/2000/svg">
<path d="M13.7571 3.28125H9.96429V6.5625H15.6054L14.3438 3.6709C14.2393 3.43301 14.0103 3.28125 13.7571 3.28125ZM16.0714 8.53125H1.92857V17.0625C1.92857 17.4234 2.21786 17.7188 2.57143 17.7188H15.4286C15.7821 17.7188 16.0714 17.4234 16.0714 17.0625V8.53125ZM2.39464 6.5625H8.03571V3.28125H4.24286C3.98973 3.28125 3.7567 3.43301 3.65625 3.6709L2.39464 6.5625ZM13.7571 1.3125C14.7737 1.3125 15.6937 1.92363 16.1076 2.87109L17.779 6.71016C17.9237 7.04648 18 7.40742 18 7.77656V17.0625C18 18.5104 16.8469 19.6875 15.4286 19.6875H2.57143C1.15313 19.6875 0 18.5104 0 17.0625V7.77656C0 7.40742 0.0763393 7.04648 0.220982 6.71016L1.89241 2.87109C2.30625 1.92363 3.22634 1.3125 4.24286 1.3125H13.7571Z" fill="#0080A3"/>
</svg>
