<svg width="59" height="51" viewBox="0 0 59 51" fill="none" xmlns="http://www.w3.org/2000/svg">
<path d="M17.4604 20.2012L20.2744 36.2012H53.3904L54.1836 33.8433L56.5835 20.2021L17.4604 20.2012Z" fill="#E6D4D9"/>
<mask id="mask0_1088_794" style="mask-type:luminance" maskUnits="userSpaceOnUse" x="0" y="0" width="59" height="51">
<path d="M58.5566 0.410156H0.538574V50.4102H58.5566V0.410156Z" fill="white"/>
</mask>
<g mask="url(#mask0_1088_794)">
<path fill-rule="evenodd" clip-rule="evenodd" d="M57.6216 11.5732C57.2472 11.1263 56.7793 10.7671 56.2509 10.5209C55.7225 10.2747 55.1465 10.1474 54.5636 10.1482H16.7116L15.7266 4.53816C15.5251 3.38108 14.9213 2.33237 14.0218 1.5771C13.1224 0.821825 11.9851 0.408535 10.8106 0.410161H0.538574V2.47716H10.8106C11.4986 2.47634 12.1647 2.71847 12.6916 3.16084C13.2185 3.60322 13.5723 4.21743 13.6906 4.89516L14.6136 10.1472L16.2246 19.3162L20.0246 40.9332C20.226 42.09 20.8294 43.1386 21.7285 43.894C22.6275 44.6494 23.7643 45.0631 24.9386 45.0622H53.9046V42.9942H24.9386C24.2506 42.995 23.5844 42.7529 23.0575 42.3105C22.5306 41.8681 22.1769 41.2539 22.0586 40.5762L21.4976 37.3852H51.1816C52.1208 37.3865 53.0304 37.0562 53.7499 36.4524C54.4694 35.8487 54.9527 35.0104 55.1146 34.0852L58.4966 14.8342C58.598 14.2602 58.5722 13.6709 58.421 13.108C58.2698 12.545 57.9969 12.0221 57.6216 11.5762M56.4606 14.4762L53.0786 33.7252C53.0005 34.172 52.767 34.5768 52.4193 34.8681C52.0716 35.1595 51.6322 35.3185 51.1786 35.3172H21.1386L17.2386 13.1472L17.0746 12.2152H54.5636C54.8449 12.2147 55.123 12.2759 55.3782 12.3945C55.6333 12.5131 55.8594 12.6861 56.0405 12.9014C56.2217 13.1168 56.3534 13.3692 56.4265 13.6409C56.4996 13.9126 56.5122 14.197 56.4636 14.4742" fill="#101820"/>
<path fill-rule="evenodd" clip-rule="evenodd" d="M29.5596 48.3422C29.0581 48.3416 28.5773 48.1423 28.2227 47.7878C27.868 47.4333 27.6684 46.9526 27.6676 46.4512H25.6006C25.6006 47.5012 26.0177 48.5082 26.7601 49.2506C27.5026 49.9931 28.5096 50.4102 29.5596 50.4102C30.6096 50.4102 31.6166 49.9931 32.359 49.2506C33.1015 48.5082 33.5186 47.5012 33.5186 46.4512H31.4516C31.4508 46.9525 31.2513 47.433 30.8969 47.7874C30.5424 48.1419 30.0619 48.3414 29.5606 48.3422" fill="#101820"/>
<path fill-rule="evenodd" clip-rule="evenodd" d="M44.5566 48.3422C44.0552 48.3416 43.5744 48.1423 43.2197 47.7878C42.8651 47.4333 42.6654 46.9526 42.6646 46.4512H40.5977C40.5977 47.5012 41.0147 48.5082 41.7572 49.2506C42.4997 49.9931 43.5066 50.4102 44.5566 50.4102C45.6066 50.4102 46.6136 49.9931 47.3561 49.2506C48.0985 48.5082 48.5157 47.5012 48.5157 46.4512H46.4486C46.4478 46.9525 46.2484 47.433 45.8939 47.7874C45.5395 48.1419 45.0589 48.3414 44.5576 48.3422" fill="#101820"/>
<path fill-rule="evenodd" clip-rule="evenodd" d="M41.7396 24.2713L37.5596 28.4533V17.1693C37.5596 16.911 37.457 16.6633 37.2743 16.4806C37.0917 16.2979 36.8439 16.1953 36.5856 16.1953C36.3273 16.1953 36.0795 16.2979 35.8969 16.4806C35.7142 16.6633 35.6116 16.911 35.6116 17.1693V28.4533L31.4316 24.2713C31.249 24.0888 31.0013 23.9863 30.7431 23.9863C30.4849 23.9863 30.2372 24.0888 30.0546 24.2713C29.8721 24.454 29.7695 24.7016 29.7695 24.9598C29.7695 25.218 29.8721 25.4657 30.0546 25.6483L35.8986 31.4923C36.0812 31.6748 36.3289 31.7774 36.5871 31.7774C36.8453 31.7774 37.0929 31.6748 37.2756 31.4923L43.1196 25.6483C43.3025 25.4654 43.4052 25.2174 43.4052 24.9588C43.4052 24.7002 43.3025 24.4522 43.1196 24.2693C42.9367 24.0864 42.6887 23.9837 42.4301 23.9837C42.1715 23.9837 41.9235 24.0864 41.7406 24.2693" fill="#101820"/>
</g>
</svg>
