<svg width="19" height="19" viewBox="0 0 19 19" fill="none" xmlns="http://www.w3.org/2000/svg">
<g clip-path="url(#clip0_1336_509)">
<mask id="mask0_1336_509" style="mask-type:luminance" maskUnits="userSpaceOnUse" x="0" y="0" width="19" height="19">
<path d="M18.5322 0.998535H0.532227V18.9985H18.5322V0.998535Z" fill="white"/>
</mask>
<g mask="url(#mask0_1336_509)">
<path d="M9.53223 0.998535C7.7522 0.998535 6.01214 1.52638 4.5321 2.51531C3.05206 3.50424 1.8985 4.90985 1.21731 6.55438C0.536126 8.19892 0.357896 10.0085 0.705163 11.7543C1.05243 13.5002 1.9096 15.1038 3.16827 16.3625C4.42694 17.6212 6.03059 18.4783 7.77642 18.8256C9.52225 19.1729 11.3318 18.9946 12.9764 18.3135C14.6209 17.6323 16.0265 16.4787 17.0155 14.9987C18.0044 13.5186 18.5322 11.7786 18.5322 9.99854C18.5303 7.61217 17.5815 5.32409 15.8941 3.63668C14.2067 1.94927 11.9186 1.00044 9.53223 0.998535ZM10.4169 16.7017C11.7015 16.2166 12.8078 15.3517 13.5887 14.2222C14.3695 13.0928 14.788 11.7523 14.7882 10.3792V10.0039C14.7702 8.6227 14.2088 7.30417 13.2256 6.33382C12.2425 5.36347 10.9167 4.81939 9.53538 4.81939C8.15403 4.81939 6.82826 5.36347 5.84513 6.33382C4.86199 7.30417 4.30061 8.6227 4.28253 10.0039C4.26775 10.4564 4.34411 10.9073 4.50707 11.3296C4.67002 11.752 4.91625 12.1373 5.23111 12.4626C5.54597 12.7879 5.92302 13.0466 6.33986 13.2233C6.7567 13.3999 7.2048 13.491 7.65753 13.491C8.11026 13.491 8.55836 13.3999 8.9752 13.2233C9.39204 13.0466 9.7691 12.7879 10.084 12.4626C10.3988 12.1373 10.645 11.752 10.808 11.3296C10.971 10.9073 11.0473 10.4564 11.0325 10.0039V9.62864C11.0386 9.47711 11.014 9.32593 10.9602 9.18415C10.9064 9.04237 10.8245 8.91292 10.7194 8.80357C10.6144 8.69422 10.4883 8.60722 10.3488 8.54779C10.2093 8.48836 10.0592 8.45773 9.90753 8.45773C9.75589 8.45773 9.60581 8.48836 9.46629 8.54779C9.32678 8.60722 9.20071 8.69422 9.09564 8.80357C8.99058 8.91292 8.90869 9.04237 8.85488 9.18415C8.80108 9.32593 8.77647 9.47711 8.78253 9.62864V10.0039C8.78859 10.1555 8.76398 10.3066 8.71018 10.4484C8.65637 10.5902 8.57448 10.7196 8.46942 10.829C8.36436 10.9384 8.23829 11.0254 8.09877 11.0848C7.95926 11.1442 7.80918 11.1748 7.65753 11.1748C7.50589 11.1748 7.3558 11.1442 7.21629 11.0848C7.07678 11.0254 6.95071 10.9384 6.84564 10.829C6.74058 10.7196 6.65869 10.5902 6.60488 10.4484C6.55108 10.3066 6.52647 10.1555 6.53253 10.0039C6.53253 9.20777 6.84881 8.44421 7.41178 7.88124C7.97476 7.31826 8.73831 7.00199 9.53448 7.00199C10.3306 7.00199 11.0942 7.31826 11.6572 7.88124C12.2202 8.44421 12.5364 9.20777 12.5364 10.0039V10.3792C12.5364 11.5727 12.0623 12.7173 11.2184 13.5612C10.3745 14.4051 9.22991 14.8792 8.03643 14.8792H7.66113C6.36755 14.8788 5.12709 14.3647 4.21239 13.45C3.29769 12.5353 2.78361 11.2948 2.78313 10.0012C2.78431 8.70427 3.15912 7.43511 3.86271 6.34558C4.5663 5.25605 5.56888 4.39228 6.75051 3.85762C7.93214 3.32296 9.24279 3.14005 10.5257 3.33075C11.8085 3.52146 13.0093 4.07772 13.9843 4.93298C14.9593 5.78824 15.6673 6.90629 16.0235 8.15337C16.3798 9.40045 16.3692 10.7238 15.993 11.965C15.6169 13.2062 14.8911 14.3128 13.9026 15.1523C12.914 15.9919 11.7045 16.5289 10.4187 16.699" fill="#101820"/>
</g>
</g>
<defs>
<clipPath id="clip0_1336_509">
<rect width="18" height="18" fill="white" transform="translate(0.532227 0.998535)"/>
</clipPath>
</defs>
</svg>
