<svg width="19" height="18" viewBox="0 0 19 18" fill="none" xmlns="http://www.w3.org/2000/svg">
<path d="M13.9374 6.97535C14.9677 5.76113 15.7818 4.37905 16.3444 2.88934C16.3816 2.7767 16.4493 2.67655 16.5399 2.59998C16.6305 2.52341 16.7406 2.4734 16.8579 2.45549C16.9751 2.43759 17.0951 2.45247 17.2044 2.49851C17.3138 2.54455 17.4083 2.61994 17.4774 2.71634C19.5374 5.83734 18.5294 10.7963 14.9284 14.3963C11.7284 17.5963 7.45441 18.7403 4.35241 17.5183C4.21461 17.4589 4.09062 17.3716 3.98823 17.2619C3.88584 17.1522 3.80728 17.0224 3.75749 16.8809C3.70771 16.7393 3.68777 16.589 3.69894 16.4393C3.71011 16.2897 3.75215 16.1439 3.8224 16.0113C3.8504 15.9473 3.88241 15.8863 3.91041 15.8223C4.49507 14.4807 5.27188 13.2313 6.2164 12.1133C7.2939 11.0877 8.54234 10.2582 9.9054 9.66234L9.9254 9.65034C11.4084 8.99854 12.7645 8.08992 13.9314 6.96634L13.9374 6.97535ZM2.7534 15.2683C2.712 15.3712 2.64407 15.4612 2.55654 15.5292C2.46901 15.5973 2.36501 15.6409 2.25513 15.6556C2.14525 15.6704 2.03343 15.6557 1.93106 15.6131C1.8287 15.5706 1.73944 15.5016 1.6724 15.4133C-0.497596 12.3033 0.483406 7.24835 4.13141 3.60035C7.35441 0.377345 11.6734 -0.763655 14.7834 0.510345C14.9148 0.568863 15.0334 0.652801 15.1323 0.757329C15.2312 0.861857 15.3084 0.98491 15.3595 1.1194C15.4106 1.25389 15.4346 1.39717 15.4301 1.54098C15.4257 1.68479 15.3928 1.82629 15.3334 1.95734C15.2774 2.09834 15.2164 2.24235 15.1564 2.39135C14.657 3.72834 13.9355 4.97146 13.0224 6.06834C11.946 7.09327 10.699 7.92238 9.3374 8.51834L9.31741 8.53034C7.83445 9.18215 6.47828 10.0908 5.31141 11.2143C4.26314 12.433 3.40174 13.8006 2.75541 15.2723L2.7534 15.2683Z" fill="#101820"/>
</svg>
