<?xml version="1.0" encoding="UTF-8"?>
<svg id="Layer_1" data-name="Layer 1" xmlns="http://www.w3.org/2000/svg" viewBox="0 0 648 648">
  <defs>
    <style>
      .cls-1, .cls-2, .cls-3, .cls-4, .cls-5 {
        stroke-width: 0px;
      }

      .cls-2 {
        fill: #231f20;
      }

      .cls-3 {
        fill: #dfdede;
      }

      .cls-4 {
        fill: #fff;
      }

      .cls-5 {
        fill: #e6e7e8;
      }
    </style>
  </defs>
  <g>
    <g>
      <polygon class="cls-3" points="192.9342 556.4765 171.7477 561.8167 171.7477 571.429 178.3944 571.429 177.5636 578.1931 179.6407 582.1093 186.2875 587.4418 200.8272 589.7041 238.2153 594.5696 274.357 597.4177 393.9987 597.4177 436.3718 593.1456 462.128 589.7041 468.3593 587.4418 466.6976 582.4653 451.327 576.9471 192.9342 556.4765"/>
      <polygon class="cls-4" points="461.5049 586.3814 461.5049 549.0003 463.3743 516.9594 462.4396 479.2223 469.1902 406.5963 485.3916 274.5165 494.9464 208.6546 499.1006 152.405 501.1777 88.3232 501.1777 51.6541 398.9838 53.4342 289.3122 55.9263 146.8223 62.3345 149.3149 132.8245 151.392 188.006 154.7154 219.3349 165.9318 296.5891 168.8397 327.206 177.5636 407.6643 178.3944 420.8367 181.3024 464.6259 181.7178 500.2269 179.6407 566.0888 188.78 565.3768 186.2875 570.0049 187.1183 575.3451 195.0113 581.0412 232.3994 586.3814 271.7703 591.3655 337.5012 593.1456 392.7524 593.1456 461.5049 586.3814"/>
      <path class="cls-1" d="M392.7527,594.2161h-55.2513l-65.771-1.7805c-.0476-.0016-.0958-.0052-.1427-.011l-39.3711-4.9843-37.4106-5.3429c-.2211-.0314-.4282-.1134-.5996-.2373l-7.8925-5.6963c-.2379-.1715-.3925-.413-.4337-.677l-.8311-5.3403c-.0314-.2013.0049-.4062.104-.5902l1.5866-2.9456-6.9858.5447c-.3578.0235-.7079-.0763-.968-.2859-.2602-.2091-.4035-.5034-.3937-.8092l2.077-65.8618-.416-35.5621-2.9056-43.7388-.8311-13.1752-8.7203-80.4173-2.9093-30.629-11.2111-77.2087-3.3277-31.3642c-.0021-.0209-.0037-.0416-.0046-.0625l-2.077-55.1817-2.4927-70.492c-.0207-.5818.5048-1.0711,1.1831-1.1017l142.4905-6.408,109.7035-2.4932,102.2014-1.7802c.3251-.0165.66.1043.8997.3055.2403.2015.3751.477.3751.7648v36.669l-2.0776,64.1117-4.1564,56.2875c-.0018.0214-.0043.0429-.0073.0643l-9.5547,65.8618-16.198,132.0597-6.7427,72.5456.9327,37.6834c.0012.0251.0006.0507-.0012.0758l-1.8696,32.0409.0018,37.3274c0,.5442-.4764,1.0016-1.1065,1.0638l-68.7519,6.7643c-.0476.0047-.0952.0068-.1427.0068ZM271.8811,590.2976l65.66,1.7778,55.1403-.0005,67.5741-6.6482v-36.4262l1.869-32.0566-.9339-37.6991c-.0006-.0355.0006-.0716.0037-.1077l6.7512-72.6261,16.2035-132.1065,9.5529-65.8495,4.1521-56.2177,2.0751-64.044-.0006-35.5467-100.9192,1.758-109.6638,2.4919-141.2376,6.3521,2.4558,69.4434,2.0758,55.1485,3.3201,31.2976,11.212,77.2189,2.9133,30.6622,8.7227,80.4458.8345,13.2144,2.9075,43.7859.4175,35.651-2.0395,64.6977,7.7394-.6032c.4428-.0303.8765.1364,1.134.449.2571.3126.3004.7188.1135,1.0659l-2.3408,4.3461.7192,4.6216,7.2615,5.2405,37.0504,5.2917,39.2765,4.9723ZM461.5046,586.3813h.0061-.0061Z"/>
      <polygon class="cls-3" points="418.795 583.2296 446.836 578.4361 450.5748 531.9768 448.0822 492.9937 455.5598 417.1635 459.2986 352.5477 463.6606 327.1903 450.5748 355.7518 443.7203 410.2086 430.6345 535.1809 418.795 572.562 390.7539 586.9804 418.795 583.2296"/>
      <polygon class="cls-3" points="162.3754 88.5238 164.868 143.4994 172.3441 127.4789 186.0545 105.0503 209.1105 92.7679 261.1518 83.1557 340.5917 76.7475 427.2073 71.9413 283.2812 70.8708 181.6926 76.2236 162.3754 77.2942 162.3754 88.5238"/>
      <path class="cls-3" d="M309.5808,579.9605l-30.9306-17.0885-35.8795-41.6532-22.8886-76.8982-13.6095-102.5309-16.0839-85.4424-6.1861-17.0885,7.4234,52.3335,6.1861,59.8097v50.7314l-.7891,26.9059h0s-3.9521,64.2454-3.9521,64.2454l-1.031,38.2711-1.0325,13.3504-1.2298,14.9524.2002,5.5182,1.6542,6.0445,8.0539,4.8074,13.6095,1.5983,21.0268,3.2041,34.6303,4.8112,58.1555,1.5995-17.3272-7.4813Z"/>
    </g>
    <g>
      <rect class="cls-5" x="237.669" y="220.0259" width="178.4779" height="267.7168" rx="25.6383" ry="25.6383"/>
      <path class="cls-1" d="M390.5084,488.7432h-127.2012c-14.6885,0-26.6377-11.9502-26.6377-26.6387v-216.4404c0-14.6885,11.9492-26.6382,26.6377-26.6382h127.2012c14.6885,0,26.6387,11.9497,26.6387,26.6382v216.4404c0,14.6885-11.9502,26.6387-26.6387,26.6387ZM263.3072,221.0259c-13.585,0-24.6377,11.0527-24.6377,24.6382v216.4404c0,13.5859,11.0527,24.6387,24.6377,24.6387h127.2012c13.5859,0,24.6387-11.0527,24.6387-24.6387v-216.4404c0-13.5854-11.0527-24.6382-24.6387-24.6382h-127.2012Z"/>
    </g>
  </g>
  <g>
    <path class="cls-2" d="M274.0452,285.1358c1.2919,0,2.0372.7456,2.0372,2.0375v1.4904c0,1.2919-.7452,2.0375-2.0372,2.0375h-7.2049v9.6391h5.3168c1.2919,0,2.0372.7456,2.0372,2.0375v1.4904c0,1.2919-.7452,2.0375-2.0372,2.0375h-5.3168v9.6391h7.2049c1.2919,0,2.0372.7456,2.0372,2.0375v1.4904c0,1.2919-.7452,2.0375-2.0372,2.0375h-12.5214c-1.2919,0-2.0375-.7456-2.0375-2.0375v-31.8996c0-1.2919.7456-2.0375,2.0375-2.0375h12.5214Z"/>
    <path class="cls-2" d="M293.8197,318.0299c.4966,1.2422.1985,3.0805-1.8387,3.0805h-2.1862c-1.0436,0-1.7889-.4966-2.0372-1.5402l-1.0931-4.4222-.8448-4.3724h-.4969l-.8448,4.3724-1.0931,4.4222c-.2483,1.0436-.9939,1.5402-2.0372,1.5402h-2.1862c-2.0372,0-2.3356-1.8383-1.8387-3.0805l4.4226-11.1302-4.4226-11.0804c-.4969-1.2428-.1985-3.0812,1.8387-3.0812h2.1862c1.0433,0,1.7889.4973,2.0372,1.5402l1.0931,4.4222.8448,4.3731h.4969l.8448-4.3731,1.0931-4.4222c.2483-1.043.9935-1.5402,2.0372-1.5402h2.1862c2.0372,0,2.3353,1.8383,1.8387,3.0812l-4.4226,11.0804,4.4226,11.1302Z"/>
    <path class="cls-2" d="M306.5884,304.2162v-4.8697c0-1.2913-.5962-1.8881-1.7391-1.8881s-1.7391.5969-1.7391,1.8881v.646c0,1.2919-.7452,2.0375-2.0372,2.0375h-2.4843c-1.2919,0-2.0372-.7456-2.0372-2.0375v-.8445c0-4.5716,2.9314-6.6582,8.2977-6.6582s8.2981,2.0866,8.2981,6.6582v19.9747c0,1.2422-.7452,1.9877-2.0372,1.9877h-2.4843c-1.2919,0-2.0375-.7456-2.0375-1.9877v-.0498c-1.4904,1.4413-3.5276,2.2858-5.3663,2.2858-2.5341,0-4.6705-1.6398-4.6705-5.5648v-4.9195c0-4.5709,2.9314-6.6582,8.2977-6.6582h1.7391ZM304.8493,308.9863c-1.1429,0-1.7391.5962-1.7391,1.8881v3.1303c0,1.2919.5962,1.8881,1.7391,1.8881,1.1927,0,1.7391-.5962,1.7391-1.8881v-5.0184h-1.7391Z"/>
    <path class="cls-2" d="M333.0215,294.8254c1.6893-1.4911,3.9253-2.3356,6.0617-2.3356,2.5344,0,4.6709,1.6398,4.6709,5.5655v21.0674c0,1.2422-.7456,1.9877-2.0375,1.9877h-2.4843c-1.2916,0-2.0372-.7456-2.0372-1.9877v-19.2789c0-1.2919-.5962-1.8881-1.7391-1.8881-1.1924,0-1.7391.5962-1.7391,1.8881v19.2789c0,1.2422-.7452,1.9877-2.0372,1.9877h-2.4843c-1.2919,0-2.0375-.7456-2.0375-1.9877v-19.2789c0-1.2919-.5962-1.8881-1.7391-1.8881-1.1924,0-1.7391.5962-1.7391,1.8881v19.2789c0,1.2422-.7452,1.9877-2.0372,1.9877h-2.4843c-1.2919,0-2.0372-.7456-2.0372-1.9877v-24.3969c0-1.2422.7452-1.9877,2.0372-1.9877h2.4843c1.2919,0,2.0372.7456,2.0372,1.9877v.0498c1.4908-1.4413,3.528-2.2858,5.3663-2.2858,1.6398,0,3.1306.7456,3.9754,2.3356Z"/>
    <path class="cls-2" d="M347.7274,294.7258c0-1.2422.7449-1.9877,2.0368-1.9877h2.485c1.2913,0,2.0368.7456,2.0368,1.9877v.0498c1.4904-1.4413,3.528-2.2858,5.3663-2.2858,2.5341,0,4.6712,1.6398,4.6712,5.5655v17.7387c0,3.925-2.1371,5.5648-4.6712,5.5648-1.8383,0-3.8758-.8445-5.3663-2.2858v9.9877c0,1.2422-.7456,1.9877-2.0368,1.9877h-2.485c-1.2919,0-2.0368-.7456-2.0368-1.9877v-34.3348ZM357.7642,299.8438c0-1.2919-.5962-1.8881-1.7387-1.8881-1.193,0-1.7394.5962-1.7394,1.8881v14.1609c0,1.2919.5464,1.8881,1.7394,1.8881,1.1426,0,1.7387-.5962,1.7387-1.8881v-14.1609Z"/>
    <path class="cls-2" d="M374.8556,319.0729c0,1.2919-.7456,2.0375-2.0368,2.0375h-2.485c-1.2919,0-2.0368-.7456-2.0368-2.0375v-35.6758c0-1.2919.7449-2.0375,2.0368-2.0375h2.485c1.2913,0,2.0368.7456,2.0368,2.0375v35.6758Z"/>
    <path class="cls-2" d="M395.4257,306.8997c0,1.4904-.8949,2.3847-2.3854,2.3847h-7.6521v5.2176c0,1.2919.5962,1.8881,1.7394,1.8881,1.1426,0,1.7387-.5962,1.7387-1.8881v-.646c0-1.2919.7456-2.0375,2.0375-2.0375h2.4843c1.2919,0,2.0375.7456,2.0375,2.0375v.8445c0,4.6214-2.9318,6.6582-8.2981,6.6582s-8.2981-2.0866-8.2981-6.708v-15.5027c0-4.5716,2.9318-6.6582,8.2981-6.6582s8.2981,2.0866,8.2981,6.6582v7.7517ZM385.3883,304.5143h3.4782v-5.1678c0-1.2913-.5962-1.8881-1.7387-1.8881-1.1432,0-1.7394.5969-1.7394,1.8881v5.1678Z"/>
    <path class="cls-2" d="M285.8705,351.5512c0,1.2919-.7456,2.0375-2.0372,2.0375h-3.2797c-1.2919,0-2.0372-.7456-2.0372-2.0375v-5.0184c0-1.3417-.8448-2.3356-2.4843-2.3356s-2.4846.9939-2.4846,2.3356v20.6704c0,1.3417.8448,2.3356,2.4846,2.3356s2.4843-.9939,2.4843-2.3356v-5.0184c0-1.2919.7452-2.0375,2.0372-2.0375h3.2797c1.2916,0,2.0372.7456,2.0372,2.0375v5.0184c0,5.4161-3.4287,7.9004-9.8383,7.9004s-9.8386-2.4843-9.8386-7.9004v-20.6704c0-5.4161,3.4287-7.9004,9.8386-7.9004s9.8383,2.4843,9.8383,7.9004v5.0184Z"/>
    <path class="cls-2" d="M306.4404,352.8929v15.5525c0,4.5716-2.9314,6.6582-8.2981,6.6582s-8.2981-2.0866-8.2981-6.6582v-15.5525c0-4.5716,2.9318-6.6582,8.2981-6.6582s8.2981,2.0866,8.2981,6.6582ZM296.4032,353.0914v15.1555c0,1.2919.5965,1.8881,1.7391,1.8881s1.7391-.5962,1.7391-1.8881v-15.1555c0-1.2913-.5962-1.8881-1.7391-1.8881s-1.7391.5969-1.7391,1.8881Z"/>
    <path class="cls-2" d="M326.3141,348.5703c1.6896-1.4911,3.9256-2.3356,6.062-2.3356,2.5341,0,4.6709,1.6398,4.6709,5.5655v21.0674c0,1.2422-.7452,1.9877-2.0372,1.9877h-2.4846c-1.2916,0-2.0372-.7456-2.0372-1.9877v-19.2789c0-1.2919-.5962-1.8881-1.7391-1.8881-1.1924,0-1.7391.5962-1.7391,1.8881v19.2789c0,1.2422-.7452,1.9877-2.0372,1.9877h-2.4843c-1.2919,0-2.0375-.7456-2.0375-1.9877v-19.2789c0-1.2919-.5962-1.8881-1.7391-1.8881-1.1924,0-1.7391.5962-1.7391,1.8881v19.2789c0,1.2422-.7452,1.9877-2.0372,1.9877h-2.4843c-1.2919,0-2.0375-.7456-2.0375-1.9877v-24.3969c0-1.2422.7456-1.9877,2.0375-1.9877h2.4843c1.2919,0,2.0372.7456,2.0372,1.9877v.0498c1.4908-1.4413,3.528-2.2858,5.3666-2.2858,1.6395,0,3.1303.7456,3.9747,2.3356Z"/>
    <path class="cls-2" d="M344.2997,335.9489c2.236,0,3.7769,1.5402,3.7769,3.7762s-1.5409,3.7769-3.7769,3.7769-3.7762-1.5409-3.7762-3.7769,1.5402-3.7762,3.7762-3.7762ZM347.5794,372.8178c0,1.2919-.7456,2.0375-2.0368,2.0375h-2.485c-1.2919,0-2.0368-.7456-2.0368-2.0375v-24.2973c0-1.2919.7449-2.0375,2.0368-2.0375h2.485c1.2913,0,2.0368.7456,2.0368,2.0375v24.2973Z"/>
    <path class="cls-2" d="M368.1496,372.8676c0,1.2422-.7456,1.9877-2.0375,1.9877h-2.4843c-1.2919,0-2.0375-.7456-2.0375-1.9877v-19.2789c0-1.2919-.5962-1.8881-1.7387-1.8881-1.193,0-1.7394.5962-1.7394,1.8881v19.2789c0,1.2422-.7456,1.9877-2.0368,1.9877h-2.485c-1.2919,0-2.0368-.7456-2.0368-1.9877v-24.3969c0-1.2422.7449-1.9877,2.0368-1.9877h2.485c1.2913,0,2.0368.7456,2.0368,1.9877v.0498c1.4904-1.4413,3.528-2.2858,5.3663-2.2858,2.5341,0,4.6712,1.6398,4.6712,5.5655v21.0674Z"/>
    <path class="cls-2" d="M388.7191,378.1349c0,4.5709-2.9318,6.6582-8.2981,6.6582h-3.429c-1.2919,0-2.0368-.7456-2.0368-2.0375v-.8943c0-1.2919.7449-2.0375,2.0368-2.0375h3.429c1.1426,0,1.7387-.5962,1.7387-1.8881v-5.118c-1.4904,1.4413-3.528,2.2858-5.3663,2.2858-2.5341,0-4.6705-1.6398-4.6705-5.5648v-17.7387c0-3.9256,2.1364-5.5655,4.6705-5.5655,1.8383,0,3.8758.8445,5.3663,2.2858v-.0498c0-1.2422.7456-1.9877,2.0375-1.9877h2.4843c1.2919,0,2.0375.7456,2.0375,1.9877v29.6643ZM378.6816,367.7496c0,1.2919.5962,1.8881,1.7394,1.8881,1.1924,0,1.7387-.5962,1.7387-1.8881v-14.1609c0-1.2919-.5464-1.8881-1.7387-1.8881-1.1432,0-1.7394.5962-1.7394,1.8881v14.1609Z"/>
    <path class="cls-2" d="M289.3975,405.8922l5.8138,4.9195c3.5774,3.0307,4.0743,5.5157,4.0743,10.1364,0,5.4161-3.4287,7.9004-9.8383,7.9004s-9.8383-2.4843-9.8383-7.9004v-3.528c0-1.2919.7452-2.0368,2.0372-2.0368h3.2793c1.2919,0,2.0372.7449,2.0372,2.0368v3.528c0,1.3417.8448,2.3356,2.4846,2.3356s2.4843-.9939,2.4843-2.3356c0-2.5839-.3973-3.9256-2.4348-5.6146l-5.8134-4.9195c-3.5777-3.0307-4.0743-5.515-4.0743-10.1364,0-5.4161,3.4284-7.9004,9.8383-7.9004s9.8383,2.4843,9.8383,7.9004v3.528c0,1.2919-.7452,2.0375-2.0372,2.0375h-3.2797c-1.2919,0-2.0372-.7456-2.0372-2.0375v-3.528c0-1.3417-.8448-2.3356-2.4843-2.3356s-2.4846.9939-2.4846,2.3356c0,2.5839.3977,3.9256,2.4348,5.6146Z"/>
    <path class="cls-2" d="M319.3581,406.6378v15.5525c0,4.5716-2.9314,6.6582-8.2981,6.6582s-8.2977-2.0866-8.2977-6.6582v-15.5525c0-4.5716,2.9314-6.6582,8.2977-6.6582s8.2981,2.0866,8.2981,6.6582ZM309.321,406.8363v15.1555c0,1.2919.5962,1.8881,1.7391,1.8881s1.7391-.5962,1.7391-1.8881v-15.1555c0-1.2913-.5962-1.8881-1.7391-1.8881s-1.7391.5969-1.7391,1.8881Z"/>
    <path class="cls-2" d="M339.928,406.6378v15.5525c0,4.5716-2.9318,6.6582-8.2984,6.6582s-8.2977-2.0866-8.2977-6.6582v-15.5525c0-4.5716,2.9314-6.6582,8.2977-6.6582s8.2984,2.0866,8.2984,6.6582ZM329.8905,406.8363v15.1555c0,1.2919.5962,1.8881,1.7391,1.8881s1.7391-.5962,1.7391-1.8881v-15.1555c0-1.2913-.5962-1.8881-1.7391-1.8881s-1.7391.5969-1.7391,1.8881Z"/>
    <path class="cls-2" d="M360.4975,426.6125c0,1.2422-.7456,1.9877-2.0375,1.9877h-2.4843c-1.2919,0-2.0375-.7456-2.0375-1.9877v-19.2789c0-1.2919-.5962-1.8881-1.7387-1.8881-1.193,0-1.7394.5962-1.7394,1.8881v19.2789c0,1.2422-.7456,1.9877-2.0368,1.9877h-2.485c-1.2919,0-2.0368-.7456-2.0368-1.9877v-24.3969c0-1.2422.7449-1.9877,2.0368-1.9877h2.485c1.2913,0,2.0368.7456,2.0368,1.9877v.0498c1.4904-1.4413,3.528-2.2858,5.3663-2.2858,2.5341,0,4.6712,1.6398,4.6712,5.5655v21.0674Z"/>
    <path class="cls-2" d="M372.5698,415.5818c-.0989,1.2919-.7449,2.0375-2.0368,2.0375h-1.7892c-1.2919,0-1.9379-.7456-2.0368-2.0375l-1.2422-20.9187c-.0996-1.2919.7449-2.0375,2.0368-2.0375h4.2735c1.2919,0,2.1364.7456,2.0368,2.0375l-1.2422,20.9187ZM369.6387,421.296c2.2353,0,3.7762,1.5402,3.7762,3.7762s-1.5409,3.7762-3.7762,3.7762-3.7769-1.5402-3.7769-3.7762,1.5409-3.7762,3.7769-3.7762Z"/>
  </g>
</svg>