<svg width="50" height="50" viewBox="0 0 50 50" fill="none" xmlns="http://www.w3.org/2000/svg">
<path d="M0 50H49.143L48.012 44.145L45.981 40.936L34.993 35.7841L37.337 44.145H34.037L30.52 42.678L27.388 40.936L24.64 37.913L22.508 40.936L18.457 42.678L14.031 44.145H11.717L14.992 35.7841L10.626 37.913L5.37402 39.946L1.711 44.146L0 50Z" fill="#E6D4D9"/>
<mask id="mask0_15_293" style="mask-type:luminance" maskUnits="userSpaceOnUse" x="0" y="0" width="50" height="50">
<path d="M50 0H0V50H50V0Z" fill="white"/>
</mask>
<g mask="url(#mask0_15_293)">
<path d="M0.781001 50C0.678354 50 0.576714 49.9798 0.481894 49.9405C0.387073 49.9012 0.300932 49.8436 0.228396 49.771C0.155861 49.6983 0.0983535 49.6121 0.0591635 49.5172C0.0199734 49.4224 -0.000130789 49.3207 6.40263e-07 49.218C6.40263e-07 48.911 0.0760007 41.6661 6.682 38.3631C6.702 38.3531 6.721 38.344 6.741 38.336L14.554 35.211C14.6939 35.1551 14.8471 35.1408 14.995 35.17C15.1429 35.1991 15.2792 35.2704 15.3874 35.3753C15.4957 35.4801 15.5713 35.6141 15.6051 35.761C15.6389 35.9079 15.6295 36.0614 15.578 36.203L12.878 43.625C16.046 43.2835 19.0622 42.0899 21.606 40.1711C22.3409 39.5888 23.0072 38.9249 23.592 38.192C21.9319 38.0375 20.3852 37.2827 19.242 36.069C18.633 35.4134 18.1998 34.6143 17.983 33.746C17.9729 33.6957 17.9679 33.6444 17.968 33.593V29.868C17.968 29.6608 18.0503 29.462 18.1969 29.3154C18.3435 29.1689 18.5422 29.0865 18.7495 29.0865C18.9568 29.0865 19.1555 29.1689 19.3021 29.3154C19.4487 29.462 19.531 29.6608 19.531 29.868V33.5011C19.656 33.9621 20.586 36.718 25 36.718C25.1333 36.7177 25.2646 36.7516 25.3811 36.8163C25.4977 36.8811 25.5957 36.9746 25.6659 37.088C25.7361 37.2014 25.7761 37.3309 25.782 37.4641C25.788 37.5973 25.7598 37.7298 25.7 37.849C25.564 38.12 22.257 44.504 11.78 45.31C11.6497 45.3201 11.519 45.2973 11.3998 45.2438C11.2806 45.1902 11.1768 45.1077 11.0977 45.0036C11.0187 44.8995 10.9671 44.7773 10.9476 44.6481C10.9281 44.5189 10.9413 44.3868 10.986 44.2641L13.514 37.3111L7.353 39.7751C1.63 42.6581 1.563 49.153 1.563 49.218C1.563 49.4252 1.48072 49.6238 1.33425 49.7703C1.18779 49.9168 0.989135 49.9991 0.782001 49.9991" fill="#101820"/>
<path d="M49.2189 50.002C49.0117 50.002 48.8131 49.9198 48.6666 49.7733C48.5202 49.6268 48.4379 49.4282 48.4379 49.221C48.4379 48.955 48.3479 42.648 42.6479 39.778L36.3229 37.248L38.2539 44.328C38.287 44.4489 38.2905 44.5759 38.2642 44.6984C38.2379 44.8209 38.1825 44.9353 38.1027 45.0319C38.0228 45.1285 37.921 45.2045 37.8056 45.2534C37.6902 45.3023 37.5648 45.3228 37.4399 45.313C26.9079 44.503 24.3709 38.051 24.2689 37.777C24.2246 37.6589 24.2096 37.5318 24.2252 37.4066C24.2408 37.2815 24.2864 37.1619 24.3583 37.0582C24.4301 36.9546 24.526 36.8698 24.6377 36.8113C24.7495 36.7527 24.8737 36.7221 24.9999 36.722C29.3999 36.722 30.3389 33.98 30.4689 33.504V29.983C30.4689 29.7758 30.5512 29.577 30.6978 29.4304C30.8443 29.2839 31.0431 29.2015 31.2504 29.2015C31.4576 29.2015 31.6564 29.2839 31.803 29.4304C31.9495 29.577 32.0319 29.7758 32.0319 29.983V33.597C32.032 33.6484 32.0269 33.6997 32.0169 33.75C31.8001 34.6182 31.3669 35.4174 30.7579 36.073C29.5787 37.3208 27.9767 38.0842 26.2649 38.214C27.3059 39.814 30.0859 42.857 36.4489 43.645L34.4039 36.145C34.3655 36.0048 34.367 35.8567 34.4083 35.7173C34.4496 35.5779 34.5289 35.4528 34.6374 35.356C34.7459 35.2593 34.8792 35.1947 35.0224 35.1696C35.1656 35.1446 35.313 35.1599 35.4479 35.214L43.2609 38.339C43.2809 38.347 43.3009 38.356 43.3199 38.366C49.9259 41.666 50.0019 48.914 50.0019 49.221C50.0019 49.4282 49.9196 49.6268 49.7731 49.7733C49.6267 49.9198 49.428 50.002 49.2209 50.002" fill="#101820"/>
<path d="M27.3442 28.907H23.4382C22.825 28.8943 22.2413 28.6418 21.8121 28.2037C21.3829 27.7656 21.1426 27.1768 21.1426 26.5635C21.1426 25.9502 21.3829 25.3613 21.8121 24.9232C22.2413 24.4851 22.825 24.2326 23.4382 24.22H27.3442C27.9658 24.22 28.562 24.4669 29.0016 24.9065C29.4412 25.3461 29.6882 25.9423 29.6882 26.564C29.6882 27.1856 29.4412 27.7818 29.0016 28.2214C28.562 28.661 27.9658 28.907 27.3442 28.907ZM23.4382 25.783C23.2309 25.783 23.0321 25.8653 22.8856 26.0119C22.739 26.1584 22.6567 26.3572 22.6567 26.5645C22.6567 26.7717 22.739 26.9705 22.8856 27.1171C23.0321 27.2636 23.2309 27.346 23.4382 27.346H27.3442C27.5513 27.346 27.75 27.2637 27.8964 27.1172C28.0429 26.9708 28.1252 26.7721 28.1252 26.565C28.1252 26.3578 28.0429 26.1592 27.8964 26.0127C27.75 25.8663 27.5513 25.784 27.3442 25.784L23.4382 25.783Z" fill="#101820"/>
<path d="M21.8752 27.344H17.1882C16.4699 27.3444 15.7586 27.2032 15.0949 26.9285C14.4312 26.6538 13.8281 26.251 13.3202 25.7431C12.8123 25.2351 12.4094 24.6321 12.1347 23.9684C11.86 23.3047 11.7188 22.5933 11.7192 21.875C11.7192 21.6677 11.8016 21.469 11.9481 21.3224C12.0947 21.1758 12.2935 21.0935 12.5007 21.0935C12.708 21.0935 12.9068 21.1758 13.0533 21.3224C13.1999 21.469 13.2822 21.6677 13.2822 21.875C13.2814 22.3882 13.3819 22.8965 13.578 23.3707C13.774 23.845 14.0617 24.2759 14.4245 24.6387C14.7874 25.0016 15.2183 25.2893 15.6925 25.4853C16.1668 25.6813 16.6751 25.7818 17.1882 25.781H21.8762C22.0835 25.781 22.2823 25.8633 22.4288 26.0099C22.5754 26.1565 22.6577 26.3552 22.6577 26.5625C22.6577 26.7698 22.5754 26.9686 22.4288 27.1151C22.2823 27.2617 22.0825 27.344 21.8752 27.344Z" fill="#101820"/>
<path d="M13.127 25H12.5C11.9072 25.0381 11.3128 24.956 10.7525 24.7586C10.1922 24.5612 9.67768 24.2525 9.23976 23.8511C8.80185 23.4497 8.44962 22.9639 8.20426 22.4229C7.9589 21.8819 7.82548 21.2968 7.81201 20.703V18.362C7.82508 17.7678 7.95821 17.1825 8.2034 16.6411C8.44858 16.0997 8.80074 15.6136 9.2387 15.2119C9.67666 14.8102 10.1914 14.5012 10.7518 14.3036C11.3123 14.106 11.907 14.0238 12.5 14.062C12.7073 14.062 12.9061 14.1443 13.0526 14.2909C13.1992 14.4374 13.2815 14.6362 13.2815 14.8435C13.2815 15.0507 13.1992 15.2495 13.0526 15.3961C12.9061 15.5426 12.7073 15.625 12.5 15.625C12.1127 15.5875 11.7218 15.6296 11.3514 15.7488C10.981 15.8681 10.6389 16.0618 10.3461 16.3182C10.0534 16.5746 9.81622 16.8882 9.64922 17.2397C9.48221 17.5911 9.38889 17.9731 9.37501 18.362V20.706C9.38929 21.0946 9.4829 21.4762 9.65008 21.8273C9.81727 22.1784 10.0545 22.4917 10.3472 22.7477C10.6399 23.0038 10.9818 23.1973 11.3521 23.3163C11.7223 23.4354 12.1129 23.4774 12.5 23.44H13.127C13.3343 23.44 13.5331 23.5223 13.6796 23.6689C13.8262 23.8154 13.9085 24.0142 13.9085 24.2215C13.9085 24.4287 13.8262 24.6275 13.6796 24.7741C13.5331 24.9206 13.3343 25.003 13.127 25.003" fill="#101820"/>
<path d="M20.3122 32.031C20.1593 32.0309 20.0097 31.9856 19.8822 31.901C17.3742 30.241 14.8442 26.135 14.8442 20.703V17.968C14.8442 17.7608 14.9266 17.562 15.0731 17.4154C15.2197 17.2689 15.4185 17.1865 15.6257 17.1865C15.833 17.1865 16.0318 17.2689 16.1783 17.4154C16.3249 17.562 16.4072 17.7608 16.4072 17.968V20.702C16.4072 24.085 17.7642 28.625 20.7452 30.602C20.8856 30.6946 20.9923 30.83 21.0496 30.9881C21.1069 31.1461 21.1116 31.3185 21.063 31.4795C21.0145 31.6404 20.9153 31.7815 20.7803 31.8815C20.6452 31.9816 20.4814 32.0355 20.3132 32.035" fill="#101820"/>
<path d="M29.688 31.813C29.5128 31.8134 29.3426 31.7549 29.2046 31.6468C29.0667 31.5388 28.9691 31.3874 28.9275 31.2172C28.886 31.047 28.9029 30.8677 28.9755 30.7083C29.0482 30.5488 29.1723 30.4184 29.328 30.338C33.053 28.407 34.375 23.938 34.375 20.702V17.968C34.375 17.7608 34.4574 17.562 34.6039 17.4154C34.7505 17.2689 34.9493 17.1865 35.1566 17.1865C35.3638 17.1865 35.5626 17.2689 35.7091 17.4154C35.8557 17.562 35.938 17.7608 35.938 17.968V20.702C35.938 25.543 33.626 29.87 30.048 31.725C29.9372 31.7828 29.8141 31.813 29.6891 31.813" fill="#101820"/>
<path d="M34.375 14.062H30.469C30.2619 14.062 30.0632 13.9797 29.9167 13.8333C29.7703 13.6868 29.688 13.4882 29.688 13.281V10.751L27.163 13.781C27.0897 13.8689 26.9979 13.9397 26.8942 13.9882C26.7906 14.0368 26.6775 14.062 26.563 14.062H16.406C16.1989 14.062 16.0002 13.9797 15.8538 13.8333C15.7073 13.6868 15.625 13.4882 15.625 13.281C15.625 13.0739 15.7073 12.8752 15.8538 12.7288C16.0002 12.5823 16.1989 12.5 16.406 12.5H26.196L29.868 8.09403C29.9707 7.97072 30.109 7.88206 30.2639 7.84012C30.4189 7.79818 30.583 7.805 30.7339 7.85964C30.8848 7.91428 31.0152 8.0141 31.1074 8.1455C31.1996 8.27691 31.249 8.43352 31.249 8.59403V12.5H34.375C34.5823 12.5 34.781 12.5824 34.9276 12.7289C35.0742 12.8755 35.1565 13.0743 35.1565 13.2815C35.1565 13.4888 35.0742 13.6876 34.9276 13.8341C34.781 13.9807 34.5823 14.062 34.375 14.062Z" fill="#101820"/>
<path d="M41.407 39.063C41.3044 39.063 41.2029 39.0428 41.1081 39.0035C41.0134 38.9642 40.9274 38.9066 40.855 38.834C36.819 34.8 37.443 25.7 37.5 24.969V13.281C37.5 6.81899 31.893 1.56199 25 1.56199C23.4533 1.53363 21.9167 1.81739 20.4821 2.3963C19.0476 2.97521 17.7444 3.83739 16.6506 4.93131C15.5568 6.02523 14.6947 7.32845 14.1159 8.76307C13.5371 10.1977 13.2535 11.7343 13.282 13.281V14.844C13.282 15.0511 13.1997 15.2498 13.0532 15.3962C12.9068 15.5427 12.7081 15.625 12.501 15.625C12.2938 15.625 12.0952 15.5427 11.9487 15.3962C11.8023 15.2498 11.72 15.0511 11.72 14.844V13.281C11.6916 11.5292 12.0157 9.7895 12.673 8.16542C13.3304 6.54134 14.3075 5.06599 15.5463 3.82705C16.7852 2.58811 18.2604 1.61087 19.8845 0.953427C21.5085 0.295981 23.2481 -0.0282548 25 -1.03029e-05C32.754 -1.03029e-05 39.063 5.95799 39.063 13.281V25C39.063 25.021 39.063 25.043 39.063 25.065C39.056 25.155 38.363 34.127 41.963 37.729C42.0724 37.8382 42.147 37.9774 42.1773 38.129C42.2076 38.2806 42.1922 38.4378 42.1331 38.5806C42.074 38.7235 41.9738 38.8456 41.8453 38.9314C41.7167 39.0173 41.5656 39.0631 41.411 39.063" fill="#101820"/>
</g>
</svg>
