<svg width="46" height="50" viewBox="0 0 46 50" fill="none" xmlns="http://www.w3.org/2000/svg">
<path d="M14.9399 24.012V8.23096H30.8279V24.0161H25.1769V16.979L23.9149 15.186L22.0419 14.8301L20.8149 15.6689L20.2499 16.979V24.0161L14.9399 24.012Z" fill="#E6D4D9"/>
<mask id="mask0_15_259" style="mask-type:luminance" maskUnits="userSpaceOnUse" x="0" y="0" width="46" height="50">
<path d="M45.729 0H0V50H45.729V0Z" fill="white"/>
</mask>
<g mask="url(#mask0_15_259)">
<path d="M43.17 0H2.56C1.88129 0.000793969 1.2306 0.270762 0.750684 0.750684C0.270762 1.2306 0.000793969 1.88129 0 2.56L0 29.945C0.00211533 30.6228 0.272667 31.2722 0.752445 31.7511C1.23222 32.2299 1.88215 32.4992 2.56 32.5H9.438V30.858H2.56C2.31767 30.8577 2.08535 30.7614 1.914 30.59C1.74265 30.4187 1.64626 30.1863 1.646 29.944V2.56C1.64626 2.31767 1.74265 2.08535 1.914 1.914C2.08535 1.74265 2.31767 1.64626 2.56 1.646H43.17C43.4123 1.64626 43.6446 1.74265 43.816 1.914C43.9874 2.08535 44.0837 2.31767 44.084 2.56V29.945C44.0837 30.1873 43.9874 30.4197 43.816 30.591C43.6446 30.7624 43.4123 30.8587 43.17 30.859H41.692V32.5H43.17C43.8487 32.4992 44.4994 32.2292 44.9793 31.7493C45.4592 31.2694 45.7292 30.6187 45.73 29.94V2.56C45.7292 1.88129 45.4592 1.2306 44.9793 0.750684C44.4994 0.270762 43.8487 0.000793969 43.17 0Z" fill="#101820"/>
<path d="M37.0398 26.693C36.3278 26.6934 35.6372 26.9364 35.0818 27.382C34.8434 26.9283 34.498 26.5396 34.0754 26.2497C33.6527 25.9598 33.1658 25.7773 32.6567 25.7182C32.1476 25.6591 31.6318 25.7251 31.154 25.9105C30.6762 26.0958 30.2508 26.395 29.9148 26.782C29.6194 26.442 29.2546 26.1691 28.8449 25.9818C28.4353 25.7945 27.9903 25.697 27.5398 25.696C26.9953 25.6957 26.4602 25.8381 25.9878 26.109V17.409C25.9878 16.5603 25.6507 15.7464 25.0506 15.1462C24.4505 14.5461 23.6365 14.209 22.7878 14.209C21.9391 14.209 21.1252 14.5461 20.5251 15.1462C19.925 15.7464 19.5878 16.5603 19.5878 17.409V25.239H19.5988L19.5898 32.071C18.4348 30.033 16.5318 27.394 14.2548 26.982C13.7829 26.8369 13.2807 26.8204 12.8002 26.9344C12.3198 27.0483 11.8784 27.2884 11.5218 27.63C11.242 28.0336 11.0617 28.4977 10.9959 28.9844C10.93 29.4711 10.9804 29.9665 11.1428 30.43L15.2948 41.794C15.5978 42.6252 16.0563 43.3912 16.6458 44.051L18.0458 45.62C18.921 46.5996 19.4045 47.8674 19.4038 49.181C19.4038 49.3993 19.4905 49.6086 19.6449 49.7629C19.7992 49.9173 20.0086 50.004 20.2268 50.004C20.2528 50.004 20.2788 50.004 20.3048 50.004C20.9188 49.973 30.8618 49.989 37.4268 50.004C37.6451 50.004 37.8544 49.9173 38.0088 49.7629C38.1631 49.6086 38.2498 49.3993 38.2498 49.181C38.2477 48.2084 38.4522 47.2465 38.8498 46.359L39.4498 45.209C39.964 44.2145 40.2328 43.1115 40.2338 41.992V29.972C40.2434 29.1131 39.9119 28.2854 39.312 27.6707C38.712 27.0559 37.8927 26.7043 37.0338 26.693M38.5858 41.988C38.5846 42.8441 38.3789 43.6875 37.9858 44.448L37.3858 45.598C36.9779 46.4649 36.7273 47.3974 36.6458 48.352C28.2208 48.329 22.9798 48.326 20.9948 48.344C20.8249 46.9221 20.222 45.5868 19.2678 44.519L17.8678 42.951C17.4168 42.4465 17.0659 41.8607 16.8338 41.225L12.6898 29.885C12.622 29.6959 12.5923 29.4952 12.6024 29.2946C12.6125 29.0939 12.6623 28.8973 12.7488 28.716C12.9098 28.535 13.3598 28.492 13.9488 28.599C15.3588 28.855 17.1068 30.79 18.6258 33.776C18.7648 34.0527 18.9932 34.2744 19.2741 34.4049C19.5549 34.5355 19.8716 34.5673 20.1728 34.4951C20.474 34.4229 20.7419 34.2511 20.933 34.0074C21.1242 33.7638 21.2274 33.4627 21.2258 33.153L21.2368 25.238H21.2258V17.408C21.2105 17.1951 21.2392 16.9813 21.3102 16.78C21.3812 16.5786 21.4928 16.3941 21.6383 16.2378C21.7837 16.0816 21.9598 15.9569 22.1555 15.8717C22.3512 15.7865 22.5624 15.7426 22.7758 15.7426C22.9893 15.7426 23.2005 15.7865 23.3962 15.8717C23.5919 15.9569 23.768 16.0816 23.9134 16.2378C24.0588 16.3941 24.1705 16.5786 24.2415 16.78C24.3124 16.9813 24.3411 17.1951 24.3258 17.408V31.16C24.3258 31.3782 24.4125 31.5876 24.5669 31.7419C24.7212 31.8963 24.9306 31.983 25.1488 31.983C25.3671 31.983 25.5764 31.8963 25.7308 31.7419C25.8851 31.5876 25.9718 31.3782 25.9718 31.16V28.977C25.9565 28.7641 25.9852 28.5503 26.0562 28.349C26.1272 28.1476 26.2388 27.9631 26.3843 27.8068C26.5297 27.6506 26.7058 27.5259 26.9015 27.4407C27.0972 27.3555 27.3084 27.3116 27.5218 27.3116C27.7353 27.3116 27.9465 27.3555 28.1422 27.4407C28.3379 27.5259 28.514 27.6506 28.6594 27.8068C28.8048 27.9631 28.9165 28.1476 28.9875 28.349C29.0584 28.5503 29.0871 28.7641 29.0718 28.977V31.159C29.0718 31.3773 29.1585 31.5866 29.3129 31.7409C29.4672 31.8953 29.6766 31.982 29.8948 31.982C30.1131 31.982 30.3224 31.8953 30.4768 31.7409C30.6311 31.5866 30.7178 31.3773 30.7178 31.159V28.977C30.7025 28.7641 30.7313 28.5503 30.8022 28.349C30.8732 28.1476 30.9848 27.9631 31.1303 27.8068C31.2757 27.6506 31.4518 27.5259 31.6475 27.4407C31.8432 27.3555 32.0544 27.3116 32.2678 27.3116C32.4813 27.3116 32.6925 27.3555 32.8882 27.4407C33.0839 27.5259 33.26 27.6506 33.4054 27.8068C33.5508 27.9631 33.6625 28.1476 33.7334 28.349C33.8044 28.5503 33.8331 28.7641 33.8178 28.977V31.159C33.8178 31.3773 33.9045 31.5866 34.0589 31.7409C34.2132 31.8953 34.4226 31.982 34.6408 31.982C34.8591 31.982 35.0684 31.8953 35.2228 31.7409C35.3771 31.5866 35.4638 31.3773 35.4638 31.159V29.971C35.4485 29.7581 35.4772 29.5443 35.5482 29.343C35.6192 29.1416 35.7308 28.9571 35.8763 28.8008C36.0217 28.6446 36.1978 28.52 36.3935 28.4347C36.5892 28.3495 36.8004 28.3056 37.0138 28.3056C37.2273 28.3056 37.4385 28.3495 37.6342 28.4347C37.8299 28.52 38.006 28.6446 38.1514 28.8008C38.2968 28.9571 38.4085 29.1416 38.4795 29.343C38.5504 29.5443 38.5791 29.7581 38.5638 29.971L38.5858 41.988Z" fill="#101820"/>
<path d="M25.3542 23.293V24.939H30.7292C30.9475 24.939 31.1568 24.8523 31.3112 24.698C31.4655 24.5436 31.5522 24.3343 31.5522 24.116V8.38904C31.5522 8.17076 31.4655 7.96143 31.3112 7.80709C31.1568 7.65275 30.9475 7.56604 30.7292 7.56604H15.0012C14.7829 7.56604 14.5736 7.65275 14.4193 7.80709C14.2649 7.96143 14.1782 8.17076 14.1782 8.38904V24.116C14.1782 24.3343 14.2649 24.5436 14.4193 24.698C14.5736 24.8523 14.7829 24.939 15.0012 24.939H19.6812V23.293H15.8242V9.21204H29.9052V23.293H25.3542Z" fill="url(#paint0_radial_15_259)"/>
<path d="M9.67178 11.318L5.73378 15.256C5.65734 15.3324 5.5967 15.4232 5.55534 15.523C5.51397 15.6229 5.49268 15.7299 5.49268 15.838C5.49268 15.9461 5.51397 16.0531 5.55534 16.153C5.5967 16.2528 5.65734 16.3436 5.73378 16.42L9.67178 20.358L10.8358 19.194L7.47978 15.838L10.8358 12.482L9.67178 11.318Z" fill="#101820"/>
<path d="M36.0551 11.318L34.8911 12.482L38.2471 15.838L34.8911 19.194L36.0551 20.358L39.9931 16.42C40.0695 16.3436 40.1302 16.2528 40.1715 16.153C40.2129 16.0531 40.2342 15.9461 40.2342 15.838C40.2342 15.7299 40.2129 15.6229 40.1715 15.523C40.1302 15.4232 40.0695 15.3324 39.9931 15.256L36.0551 11.318Z" fill="#101820"/>
</g>
<defs>
<radialGradient id="paint0_radial_15_259" cx="0" cy="0" r="1" gradientUnits="userSpaceOnUse" gradientTransform="translate(22.8652 16.2525) scale(8.687 8.6865)">
<stop stop-color="#5A5A5A"/>
<stop offset="1" stop-color="#101820"/>
</radialGradient>
</defs>
</svg>
