<svg width="157" height="44" viewBox="0 0 157 44" fill="none" xmlns="http://www.w3.org/2000/svg">
<g clip-path="url(#clip0_2262_1602)">
<mask id="mask0_2262_1602" style="mask-type:luminance" maskUnits="userSpaceOnUse" x="0" y="-1" width="17" height="19">
<path d="M11.5991 -0.00898767L0.416168 6.40479L5.70791 17.1338L16.8908 10.72L11.5991 -0.00898767Z" fill="white"/>
</mask>
<g mask="url(#mask0_2262_1602)">
<path d="M5.87834 5.18466C5.99934 5.1492 6.12334 5.12803 6.24804 5.12156C6.38859 5.1109 6.52772 5.08116 6.66203 5.03306C6.84758 5.18084 7.06879 5.27151 7.30214 5.29543C7.53549 5.31935 7.77225 5.27561 7.98724 5.16888C8.14017 5.43253 8.35494 5.64887 8.61132 5.79753C8.84241 5.92107 9.0839 6.0224 9.33298 6.10034C9.58082 6.17694 9.82488 6.26615 10.0652 6.36799C10.3147 6.47448 10.5441 6.62581 10.7435 6.81546C10.9236 6.79168 11.0756 6.77392 11.2033 6.76117C11.331 6.74841 11.4834 6.72931 11.6631 6.70688C11.7736 6.87023 11.9328 6.98908 12.116 7.04508C12.3839 7.15489 12.6584 7.24692 12.9379 7.32067C13.2298 7.39958 13.5265 7.45904 13.8263 7.49872C14.0418 7.52989 14.2594 7.54499 14.4777 7.54393C14.5912 7.73484 14.7468 7.89306 14.9316 8.00543C15.1164 8.11779 15.325 8.18106 15.5401 8.18995C15.7768 8.44156 15.9498 8.75273 16.0438 9.09596C16.1225 9.40915 16.2084 9.73837 16.3016 10.0836C16.2028 10.2525 16.1292 10.4361 16.0833 10.6276C16.0408 10.811 15.9833 11.0232 15.9107 11.2642C15.7774 11.3794 15.6769 11.4072 15.6089 11.3476C15.5655 11.3159 15.5152 11.296 15.4622 11.2899C15.4093 11.2837 15.3555 11.2914 15.3053 11.3123C14.8967 11.6133 14.4373 11.8257 13.9544 11.9371C13.666 11.9641 13.3766 11.9598 13.0906 11.9241L12.2366 11.8159C11.9168 11.7798 11.593 11.785 11.2723 11.8315C11.1812 11.7039 11.0551 11.6095 10.9105 11.5608C10.7727 11.517 10.6431 11.45 10.5264 11.3622C10.2545 11.1195 10.04 11.0134 9.88278 11.0438C9.76032 11.0738 9.63382 11.0748 9.51238 11.0468C9.38096 11.0306 9.25665 10.9784 9.15155 10.8954C9.10574 10.8515 9.04523 10.8284 8.98262 10.8309C8.92 10.8334 8.86008 10.8614 8.81533 10.9091C8.73976 10.8108 8.64177 10.7346 8.53021 10.6874C8.37222 10.5988 8.19531 10.511 7.99949 10.424C7.82711 10.3448 7.65027 10.2765 7.46986 10.2194C7.31245 10.1697 7.20388 10.1625 7.14373 10.197C6.73685 10.0533 6.30814 9.98412 5.87576 9.9925C5.70293 10.0036 5.53098 9.97323 5.37282 9.90356C5.21465 9.83388 5.07436 9.72675 4.96248 9.59019C4.84492 9.65707 4.74548 9.75546 4.67438 9.87525C4.60121 9.99635 4.50426 10.012 4.38353 9.92223C4.13916 9.58256 3.80509 9.32796 3.42187 9.18932C3.22821 9.11581 3.01558 9.1117 2.81608 9.17764C2.61659 9.24357 2.44107 9.37595 2.31604 9.55479C2.30982 9.42362 2.27052 9.29752 2.20221 9.1896C2.1339 9.08167 2.03908 8.99585 1.9276 8.94105C1.70225 8.83183 1.51909 8.64604 1.40642 8.4124C1.25769 8.14774 1.16562 7.85062 1.1365 7.54143C1.10739 7.23223 1.14193 6.91827 1.23776 6.62107C1.45477 6.02531 1.87887 5.53567 2.42119 5.25475C2.87491 4.97583 3.39679 4.85454 3.91155 4.90839C4.39802 4.96758 4.90354 5.02629 5.42812 5.08452L5.87834 5.18466Z" fill="white"/>
</g>
<mask id="mask1_2262_1602" style="mask-type:luminance" maskUnits="userSpaceOnUse" x="21" y="7" width="16" height="18">
<path d="M33.0017 7.80803L21.1285 12.793L25.0757 24.0745L36.9489 19.0895L33.0017 7.80803Z" fill="white"/>
</mask>
<g mask="url(#mask1_2262_1602)">
<path d="M26.6956 12.254C26.8199 12.2337 26.9455 12.2279 27.07 12.2368C27.2107 12.2435 27.3524 12.2311 27.4915 12.1999C27.6576 12.3691 27.8661 12.486 28.0947 12.5384C28.3233 12.5907 28.5635 12.5764 28.7897 12.497C28.9094 12.777 29.0962 13.0177 29.3325 13.1965C29.5468 13.3472 29.7741 13.4773 30.0117 13.5851C30.2483 13.6914 30.4796 13.8097 30.7056 13.9401C30.9402 14.0762 31.1494 14.2543 31.3242 14.4667C31.5058 14.4652 31.6588 14.4663 31.787 14.4693C31.9152 14.4723 32.0687 14.4721 32.2497 14.4719C32.3396 14.6473 32.4831 14.7846 32.6581 14.8626C32.9105 15.0042 33.1716 15.1291 33.4399 15.2364C33.7199 15.3504 34.0071 15.4457 34.2997 15.5218C34.5097 15.5791 34.7238 15.6208 34.9405 15.6465C35.0299 15.8496 35.1651 16.0255 35.3348 16.1595C35.5045 16.2935 35.7038 16.3818 35.916 16.417C36.1203 16.6954 36.2542 17.025 36.3057 17.3766C36.3458 17.6967 36.3911 18.0335 36.4416 18.387C36.3231 18.5423 36.2277 18.7152 36.159 18.8994C36.0946 19.0759 36.0117 19.2791 35.9104 19.509C35.7643 19.6069 35.6611 19.6221 35.6009 19.5548C35.5617 19.5179 35.5142 19.4921 35.4624 19.4795C35.4107 19.4669 35.3563 19.468 35.304 19.4826C34.8621 19.7307 34.3805 19.8849 33.8879 19.936C33.5986 19.9275 33.3119 19.8877 33.0326 19.8172L32.1985 19.6053C31.8855 19.5303 31.5636 19.4958 31.2398 19.5025C31.165 19.3649 31.0513 19.2559 30.9138 19.1899C30.7824 19.1296 30.6619 19.0473 30.5568 18.946C30.3166 18.6721 30.1166 18.5406 29.957 18.5515C29.8318 18.5662 29.7062 18.5517 29.5891 18.5091C29.4607 18.4769 29.3437 18.4099 29.2495 18.3148C29.2094 18.2656 29.1522 18.2353 29.0898 18.2302C29.0273 18.225 28.9645 18.2454 28.9143 18.2871C28.8513 18.1804 28.7633 18.0929 28.6584 18.0324C28.5124 17.9253 28.3475 17.8166 28.1638 17.7064C28.0024 17.6068 27.8353 17.5174 27.6632 17.4386C27.5131 17.3701 27.4063 17.3496 27.3424 17.3765C26.9562 17.1841 26.5393 17.063 26.1093 17.0183C25.9365 17.0082 25.7696 16.957 25.6211 16.8685C25.4727 16.7801 25.3465 16.6567 25.2521 16.5077C25.1273 16.5595 25.0167 16.6448 24.9316 16.7548C24.8443 16.8659 24.7463 16.8695 24.6374 16.7657C24.4362 16.3991 24.1357 16.1059 23.7723 15.9215C23.5891 15.8249 23.3787 15.7947 23.1727 15.8356C22.9668 15.8765 22.7766 15.9862 22.6309 16.1481C22.6406 16.0173 22.6169 15.8875 22.5623 15.7722C22.5076 15.6569 22.4239 15.5602 22.32 15.4922C22.1097 15.3563 21.9505 15.1498 21.8671 14.9044C21.7517 14.6239 21.6964 14.3182 21.7051 14.0082C21.7137 13.6982 21.7861 13.3913 21.9173 13.1085C22.2049 12.5447 22.6851 12.1114 23.2572 11.8996C23.7412 11.6788 24.2737 11.6226 24.7779 11.7391C25.2533 11.8574 25.7477 11.9775 26.2611 12.0996L26.6956 12.254Z" fill="white"/>
</g>
<mask id="mask2_2262_1602" style="mask-type:luminance" maskUnits="userSpaceOnUse" x="40" y="14" width="17" height="17">
<path d="M52.9034 14.8322L40.9494 19.6113L44.7068 30.958L56.6607 26.1789L52.9034 14.8322Z" fill="white"/>
</mask>
<g mask="url(#mask2_2262_1602)">
<path d="M46.5243 19.168C46.649 19.1498 46.7746 19.1462 46.8989 19.1572C47.0395 19.1663 47.1813 19.1563 47.3209 19.1275C47.4842 19.2996 47.6906 19.4201 47.9183 19.4764C48.146 19.5326 48.3864 19.5224 48.6139 19.4469C48.7289 19.729 48.9116 19.9728 49.1449 20.1556C49.3565 20.3101 49.5816 20.444 49.8174 20.5558C50.0521 20.6662 50.2814 20.7885 50.5052 20.9227C50.7374 21.0628 50.9436 21.2445 51.1148 21.4599C51.2964 21.4615 51.4493 21.4652 51.5774 21.4704C51.7056 21.4756 51.8591 21.478 52.04 21.4809C52.1269 21.6579 52.268 21.7976 52.4417 21.8786C52.6917 22.0246 52.9507 22.1539 53.2171 22.2659C53.4952 22.3846 53.7806 22.4849 54.0719 22.566C54.2809 22.6269 54.4943 22.6722 54.7104 22.7017C54.7965 22.9063 54.9287 23.0844 55.0961 23.2213C55.2635 23.3582 55.4612 23.4499 55.6729 23.4888C55.8725 23.7706 56.0007 24.1024 56.0464 24.4549C56.0811 24.7755 56.1207 25.113 56.1653 25.4674C56.0442 25.6206 55.946 25.7918 55.8742 25.9747C55.8068 26.1501 55.7206 26.3518 55.6155 26.5799C55.4677 26.6752 55.3643 26.6887 55.3052 26.6203C55.2667 26.5828 55.2196 26.5562 55.1681 26.5427C55.1165 26.5293 55.0621 26.5294 55.0096 26.543C54.5636 26.7834 54.0796 26.9293 53.5863 26.972C53.2971 26.9584 53.0112 26.9137 52.7331 26.8385L51.9028 26.6122C51.5911 26.5319 51.2699 26.4918 50.9461 26.4929C50.8735 26.3541 50.7617 26.2432 50.6253 26.1748C50.495 26.1123 50.3759 26.0279 50.2725 25.9248C50.0369 25.6469 49.8392 25.512 49.6794 25.5201C49.5541 25.5327 49.4287 25.516 49.3124 25.4714C49.1845 25.4369 49.0687 25.368 48.9761 25.2713C48.9368 25.2214 48.8801 25.1901 48.8178 25.1839C48.7555 25.1777 48.6923 25.197 48.6414 25.2378C48.5802 25.13 48.4937 25.041 48.3898 24.9788C48.2457 24.8692 48.0827 24.7577 47.9008 24.6443C47.7412 24.5419 47.5755 24.4497 47.4049 24.368C47.2559 24.2968 47.1494 24.2746 47.0851 24.3003C46.7022 24.1014 46.2874 23.9731 45.8583 23.921C45.6857 23.9079 45.5197 23.8538 45.3728 23.7628C45.2258 23.6719 45.1018 23.5463 45.0099 23.3957C44.8843 23.4454 44.7723 23.5288 44.6854 23.6373C44.5962 23.7468 44.4981 23.7487 44.391 23.6431C44.196 23.2732 43.9004 22.9748 43.5403 22.7842C43.3587 22.6844 43.1488 22.6507 42.9423 22.688C42.7357 22.7253 42.5437 22.8317 42.3953 22.991C42.4072 22.8605 42.3857 22.7303 42.333 22.6141C42.2803 22.4978 42.1983 22.3998 42.0955 22.33C41.8875 22.1905 41.7318 21.9813 41.6526 21.7345C41.5419 21.4521 41.4917 21.1455 41.5056 20.8357C41.5194 20.526 41.5969 20.2204 41.7328 19.9399C42.0298 19.3812 42.5172 18.9564 43.0927 18.7544C43.5803 18.542 44.1136 18.495 44.6157 18.6201C45.089 18.7466 45.5813 18.8752 46.0925 19.0061L46.5243 19.168Z" fill="white"/>
</g>
<mask id="mask3_2262_1602" style="mask-type:luminance" maskUnits="userSpaceOnUse" x="59" y="21" width="18" height="18">
<path d="M70.8515 21.1106L59.6685 27.5244L64.9603 38.2534L76.1432 31.8397L70.8515 21.1106Z" fill="white"/>
</mask>
<g mask="url(#mask3_2262_1602)">
<path d="M65.1307 26.3043C65.2517 26.2688 65.3757 26.2477 65.5004 26.2412C65.641 26.2305 65.7801 26.2008 65.9144 26.1527C66.1 26.3005 66.3212 26.3911 66.5545 26.4151C66.7879 26.439 67.0246 26.3952 67.2396 26.2885C67.3926 26.5522 67.6073 26.7685 67.8637 26.9172C68.0948 27.0407 68.3363 27.142 68.5854 27.22C68.8332 27.2966 69.0773 27.3858 69.3175 27.4876C69.5671 27.5941 69.7965 27.7454 69.9959 27.9351C70.176 27.9113 70.328 27.8936 70.4557 27.8808C70.5833 27.868 70.7358 27.8489 70.9155 27.8265C71.026 27.9899 71.1852 28.1087 71.3684 28.1647C71.6363 28.2745 71.9108 28.3666 72.1903 28.4403C72.4821 28.5192 72.7789 28.5787 73.0787 28.6183C73.2941 28.6495 73.5118 28.6646 73.7301 28.6636C73.8436 28.8545 73.9992 29.0127 74.184 29.1251C74.3688 29.2374 74.5774 29.3007 74.7925 29.3096C75.0292 29.5612 75.2022 29.8724 75.2962 30.2156C75.3749 30.5288 75.4608 30.858 75.5539 31.2033C75.4552 31.3722 75.3815 31.5557 75.3357 31.7473C75.2932 31.9306 75.2357 32.1428 75.1631 32.3838C75.0298 32.499 74.9292 32.5268 74.8613 32.4673C74.8179 32.4355 74.7675 32.4157 74.7146 32.4095C74.6617 32.4034 74.6078 32.4111 74.5577 32.432C74.1491 32.7329 73.6897 32.9453 73.2068 33.0567C72.9184 33.0838 72.629 33.0794 72.343 33.0437L71.489 32.9355C71.1692 32.8994 70.8454 32.9046 70.5247 32.9511C70.4336 32.8235 70.3074 32.7291 70.1629 32.6804C70.0251 32.6366 69.8955 32.5696 69.7788 32.4819C69.5069 32.2391 69.2923 32.133 69.1352 32.1634C69.0127 32.1934 68.8862 32.1945 68.7648 32.1664C68.6333 32.1502 68.509 32.098 68.4039 32.015C68.3581 31.9711 68.2976 31.948 68.235 31.9505C68.1724 31.9531 68.1125 31.9811 68.0677 32.0287C67.9921 31.9304 67.8942 31.8542 67.7826 31.807C67.6246 31.7184 67.4477 31.6307 67.2519 31.5436C67.0795 31.4645 66.9027 31.3961 66.7222 31.339C66.5648 31.2893 66.4563 31.2821 66.3961 31.3166C65.9892 31.1729 65.5605 31.1038 65.1281 31.1121C64.9553 31.1233 64.7834 31.0929 64.6252 31.0232C64.467 30.9535 64.3267 30.8464 64.2149 30.7098C64.0973 30.7767 63.9979 30.8751 63.9268 30.9949C63.8536 31.116 63.7566 31.1316 63.6359 31.0419C63.3915 30.7022 63.0575 30.4476 62.6743 30.3089C62.4806 30.2354 62.268 30.2313 62.0685 30.2973C61.869 30.3632 61.6935 30.4956 61.5684 30.6744C61.5622 30.5432 61.5229 30.4172 61.4546 30.3092C61.3863 30.2013 61.2915 30.1155 61.18 30.0607C60.9546 29.9515 60.7715 29.7657 60.6588 29.532C60.5101 29.2674 60.418 28.9703 60.3889 28.6611C60.3598 28.3519 60.3943 28.0379 60.4901 27.7407C60.7071 27.1449 61.1312 26.6553 61.6736 26.3744C62.1273 26.0955 62.6492 25.9742 63.1639 26.028C63.6504 26.0872 64.1559 26.1459 64.6805 26.2042L65.1307 26.3043Z" fill="white"/>
</g>
<mask id="mask4_2262_1602" style="mask-type:luminance" maskUnits="userSpaceOnUse" x="80" y="25" width="18" height="19">
<path d="M90.9514 25.314L80.6387 33.043L87.1906 43.0568L97.5033 35.3279L90.9514 25.314Z" fill="white"/>
</mask>
<g mask="url(#mask4_2262_1602)">
<path d="M85.9082 31.1676C86.0239 31.1177 86.1443 31.0816 86.2672 31.06C86.4053 31.0324 86.5397 30.9859 86.667 30.9218C86.869 31.0461 87.0995 31.1093 87.3338 31.1047C87.5682 31.1001 87.7977 31.0279 87.9979 30.8958C88.1817 31.1391 88.421 31.3278 88.6933 31.4444C88.9375 31.539 89.1894 31.6103 89.4459 31.6575C89.701 31.7034 89.9539 31.7624 90.2046 31.8344C90.465 31.9098 90.7109 32.0323 90.9318 32.1964C91.1075 32.1509 91.2561 32.1148 91.3812 32.0867C91.5063 32.0585 91.6551 32.021 91.8307 31.9769C91.9601 32.1257 92.1325 32.2244 92.321 32.2578C92.6001 32.3343 92.8835 32.3924 93.1696 32.4317C93.4687 32.4746 93.7702 32.4976 94.0724 32.5006C94.2899 32.5054 94.5077 32.494 94.724 32.4664C94.8598 32.6422 95.0334 32.7805 95.2303 32.8696C95.4272 32.9588 95.6418 32.9963 95.8562 32.979C96.1216 33.2002 96.331 33.4882 96.4659 33.8177C96.582 34.1192 96.7072 34.4358 96.8415 34.7674C96.7641 34.9472 96.7133 35.1384 96.6911 35.3343C96.6713 35.5215 96.64 35.7393 96.5972 35.9875C96.4791 36.1181 96.3827 36.158 96.308 36.1071C96.2612 36.0808 96.2088 36.0672 96.1556 36.0675C96.1023 36.0678 96.0498 36.082 96.0027 36.1089C95.6339 36.4574 95.2041 36.7242 94.7386 36.8935C94.4559 36.9554 94.1683 36.9862 93.8803 36.9855L93.0202 36.9818C92.6985 36.9848 92.378 37.0293 92.0655 37.1144C91.9597 36.9987 91.8231 36.9203 91.6738 36.8895C91.5319 36.8627 91.3951 36.8119 91.2688 36.7389C90.9696 36.5309 90.7439 36.4515 90.5917 36.5008C90.4739 36.5455 90.3485 36.5619 90.2247 36.5488C90.0924 36.5486 89.9627 36.5119 89.8484 36.4423C89.7976 36.4042 89.7348 36.3886 89.673 36.3987C89.6112 36.4088 89.5552 36.4439 89.5166 36.4967C89.4297 36.4082 89.3232 36.3444 89.2069 36.3111C89.0394 36.2423 88.8533 36.1766 88.6485 36.114C88.4679 36.0563 88.2842 36.0099 88.0983 35.975C87.9361 35.9448 87.8276 35.9509 87.7721 35.9924C87.3511 35.8991 86.9175 35.8825 86.4896 35.9434C86.3196 35.9754 86.1453 35.9661 85.98 35.9161C85.8146 35.8661 85.6625 35.7767 85.5349 35.6547C85.4264 35.7354 85.3398 35.8452 85.2838 35.9728C85.2259 36.102 85.1317 36.1293 85.001 36.0548C84.7174 35.7471 84.3551 35.5348 83.9582 35.4437C83.7572 35.3942 83.5458 35.4159 83.3559 35.5056C83.166 35.5954 83.008 35.7482 82.9057 35.941C82.8836 35.8115 82.8293 35.691 82.7485 35.5921C82.6676 35.4932 82.5632 35.4195 82.4459 35.3786C82.2091 35.2975 82.0049 35.1352 81.8648 34.9168C81.6851 34.672 81.5577 34.3881 81.4913 34.0845C81.4248 33.7809 81.4209 33.4649 81.4799 33.158C81.6228 32.5399 81.9839 32.0021 82.4877 31.6572C82.9038 31.325 83.4067 31.1412 83.9238 31.1321C84.4135 31.1318 84.9221 31.1287 85.4494 31.1228L85.9082 31.1676Z" fill="white"/>
</g>
<mask id="mask5_2262_1602" style="mask-type:luminance" maskUnits="userSpaceOnUse" x="101" y="24" width="18" height="19">
<path d="M118.337 32.9826L108.07 24.9766L101.437 34.778L111.704 42.784L118.337 32.9826Z" fill="white"/>
</mask>
<g mask="url(#mask5_2262_1602)">
<path d="M106.698 36.7999C106.814 36.853 106.934 36.8925 107.057 36.9175C107.195 36.9491 107.329 36.9993 107.456 37.0668C107.659 36.9487 107.891 36.8923 108.125 36.9036C108.36 36.9149 108.589 36.9935 108.788 37.1311C108.974 36.8936 109.215 36.7122 109.489 36.6037C109.734 36.5164 109.986 36.4524 110.244 36.4128C110.499 36.3742 110.753 36.3227 111.005 36.2581C111.266 36.1903 111.513 36.0752 111.735 35.9178C111.911 35.9682 112.059 36.0085 112.184 36.0402C112.309 36.0719 112.458 36.1135 112.633 36.1626C112.764 36.0178 112.937 35.9243 113.126 35.8964C113.406 35.8281 113.691 35.7783 113.977 35.7473C114.277 35.7131 114.579 35.6988 114.882 35.7045C115.099 35.7059 115.317 35.7236 115.534 35.7573C115.671 35.5856 115.846 35.4524 116.044 35.369C116.242 35.2856 116.457 35.2542 116.671 35.2777C116.939 35.0646 117.151 34.7833 117.288 34.4585C117.408 34.1594 117.536 33.8474 117.672 33.5225C117.595 33.3423 117.545 33.1515 117.523 32.9567C117.504 32.7693 117.475 32.5512 117.434 32.3024C117.316 32.1687 117.22 32.1261 117.145 32.1748C117.098 32.1997 117.045 32.2117 116.992 32.2099C116.939 32.208 116.886 32.1924 116.839 32.1642C116.473 31.806 116.044 31.5275 115.58 31.3452C115.297 31.2754 115.009 31.2363 114.721 31.2288L113.865 31.2007C113.543 31.1884 113.222 31.1348 112.91 31.041C112.803 31.1533 112.666 31.2276 112.516 31.2541C112.374 31.2767 112.237 31.3235 112.11 31.3926C111.808 31.5916 111.582 31.6643 111.43 31.6107C111.312 31.5628 111.187 31.5428 111.063 31.5523C110.93 31.5487 110.8 31.5816 110.685 31.6478C110.634 31.6844 110.571 31.6981 110.509 31.6862C110.448 31.6744 110.392 31.6377 110.354 31.584C110.267 31.6713 110.16 31.7335 110.044 31.765C109.875 31.8288 109.689 31.889 109.483 31.9456C109.302 31.998 109.118 32.039 108.931 32.0685C108.769 32.094 108.66 32.0848 108.605 32.0417C108.182 32.1206 107.747 32.1223 107.319 32.0469C107.149 32.01 106.975 32.0143 106.809 32.0595C106.643 32.1046 106.49 32.1894 106.362 32.3075C106.254 32.2238 106.168 32.1118 106.112 31.9829C106.055 31.8524 105.961 31.8224 105.83 31.893C105.544 32.1918 105.179 32.3932 104.781 32.4727C104.58 32.5163 104.368 32.4886 104.179 32.3936C103.99 32.2987 103.832 32.1417 103.732 31.9464C103.708 32.075 103.653 32.1936 103.571 32.2899C103.49 32.3863 103.385 32.4568 103.267 32.4942C103.024 32.5698 102.815 32.7307 102.673 32.951C102.493 33.1898 102.364 33.4688 102.295 33.769C102.227 34.0692 102.221 34.3835 102.278 34.6904C102.416 35.3118 102.774 35.8592 103.277 36.2177C103.691 36.5603 104.192 36.7577 104.709 36.7815C105.2 36.7959 105.709 36.8136 106.237 36.8346L106.698 36.7999Z" fill="white"/>
</g>
<mask id="mask6_2262_1602" style="mask-type:luminance" maskUnits="userSpaceOnUse" x="122" y="21" width="17" height="18">
<path d="M138.634 27.8302L127.162 21.731L122.329 32.5424L133.801 38.6416L138.634 27.8302Z" fill="white"/>
</mask>
<g mask="url(#mask6_2262_1602)">
<path d="M127.849 33.6181C127.972 33.6504 128.097 33.6683 128.222 33.6715C128.363 33.6786 128.504 33.7047 128.64 33.7491C128.82 33.5973 129.037 33.5015 129.27 33.4718C129.502 33.4421 129.741 33.4796 129.961 33.5803C130.103 33.3141 130.309 33.0933 130.559 32.9389C130.785 32.8101 131.022 32.7031 131.268 32.6192C131.513 32.5367 131.753 32.4418 131.99 32.3343C132.235 32.222 132.458 32.0656 132.649 31.8718C132.831 31.8909 132.983 31.9047 133.112 31.9142C133.24 31.9236 133.394 31.9388 133.574 31.9565C133.678 31.7912 133.832 31.6689 134.013 31.6085C134.277 31.4924 134.548 31.3939 134.824 31.3134C135.113 31.2274 135.407 31.1607 135.706 31.1137C135.92 31.0772 136.137 31.0566 136.356 31.0521C136.461 30.8591 136.61 30.6974 136.79 30.5808C136.971 30.4641 137.177 30.3957 137.392 30.3814C137.618 30.125 137.778 29.811 137.857 29.467C137.923 29.1516 137.995 28.8219 138.073 28.478C137.967 28.3139 137.884 28.1346 137.829 27.9466C137.779 27.7652 137.712 27.5555 137.629 27.3175C137.491 27.2062 137.389 27.1811 137.323 27.2421C137.281 27.2748 137.232 27.2958 137.179 27.3033C137.126 27.3107 137.072 27.3044 137.021 27.2849C136.599 26.9958 136.13 26.796 135.642 26.6974C135.352 26.6778 135.062 26.6895 134.777 26.7323L133.931 26.8537C133.612 26.8977 133.288 26.9007 132.965 26.8627C132.879 26.9919 132.757 27.089 132.614 27.1412C132.478 27.1883 132.351 27.2583 132.238 27.3485C131.977 27.597 131.766 27.708 131.608 27.6818C131.484 27.655 131.357 27.6572 131.237 27.6881C131.106 27.7076 130.984 27.7627 130.882 27.848C130.838 27.8929 130.779 27.9174 130.716 27.9164C130.653 27.9155 130.592 27.8892 130.545 27.8429C130.475 27.944 130.381 28.0239 130.271 28.0752C130.117 28.1674 129.944 28.2592 129.751 28.3508C129.582 28.4339 129.408 28.5064 129.23 28.5679C129.075 28.6213 128.966 28.6312 128.905 28.5984C128.502 28.7497 128.075 28.8271 127.642 28.8274C127.468 28.8207 127.297 28.8553 127.142 28.9286C126.987 29.002 126.851 29.1122 126.745 29.2509C126.624 29.1873 126.521 29.0919 126.444 28.9745C126.366 28.8559 126.268 28.8427 126.151 28.9352C125.921 29.2794 125.598 29.5412 125.22 29.6889C125.029 29.767 124.817 29.7765 124.614 29.7159C124.411 29.6554 124.23 29.5281 124.097 29.3533C124.097 29.484 124.063 29.6104 123.999 29.7196C123.935 29.8287 123.844 29.9165 123.735 29.9739C123.509 30.0906 123.331 30.2855 123.23 30.5273C123.093 30.794 123.014 31.0914 122.999 31.399C122.984 31.7066 123.032 32.0173 123.14 32.3098C123.383 32.8979 123.83 33.3748 124.386 33.6405C124.851 33.9059 125.378 34.013 125.891 33.9465C126.375 33.8752 126.879 33.804 127.401 33.7327L127.849 33.6181Z" fill="white"/>
</g>
<mask id="mask7_2262_1602" style="mask-type:luminance" maskUnits="userSpaceOnUse" x="142" y="14" width="15" height="15">
<path d="M156.621 16.5119L144.012 14.1367L142.438 25.9995L155.047 28.3747L156.621 16.5119Z" fill="white"/>
</mask>
<g mask="url(#mask7_2262_1602)">
<path d="M147.986 25.3553C148.112 25.3489 148.236 25.3281 148.355 25.2933C148.492 25.2571 148.633 25.2394 148.775 25.2407C148.903 25.0402 149.083 24.8819 149.296 24.7827C149.508 24.6834 149.746 24.6468 149.983 24.6768C150.043 24.3778 150.177 24.1031 150.372 23.8785C150.551 23.686 150.747 23.511 150.957 23.3556C151.167 23.2018 151.369 23.0374 151.563 22.8623C151.765 22.6798 151.933 22.4616 152.061 22.2171C152.239 22.1804 152.388 22.1471 152.513 22.1172C152.637 22.0873 152.787 22.0552 152.964 22.0173C153.016 21.8268 153.129 21.6623 153.284 21.5493C153.502 21.3576 153.732 21.1805 153.972 21.0191C154.223 20.8486 154.484 20.695 154.755 20.559C154.948 20.4587 155.149 20.3729 155.356 20.3022C155.402 20.0845 155.498 19.8839 155.637 19.7169C155.776 19.55 155.953 19.4216 156.153 19.3424C156.296 19.0272 156.36 18.6767 156.34 18.322C156.314 17.9987 156.291 17.6599 156.269 17.3055C156.122 17.1801 155.993 17.0328 155.888 16.8688C155.79 16.7098 155.668 16.5285 155.522 16.325C155.359 16.2601 155.256 16.2669 155.21 16.3454C155.18 16.3897 155.138 16.4249 155.09 16.4481C155.042 16.4713 154.989 16.4818 154.935 16.4785C154.453 16.3289 153.951 16.2795 153.46 16.3332C153.179 16.4025 152.907 16.5017 152.648 16.6294L151.877 17.0036C151.586 17.1428 151.279 17.2443 150.961 17.3059C150.916 17.4562 150.827 17.5867 150.706 17.6802C150.59 17.7668 150.489 17.8727 150.406 17.9938C150.227 18.3122 150.058 18.4829 149.9 18.5059C149.775 18.5178 149.655 18.5584 149.549 18.6248C149.43 18.6833 149.33 18.7734 149.257 18.8863C149.227 18.9428 149.178 18.9845 149.118 19.0027C149.058 19.0209 148.992 19.0141 148.935 18.9839C148.896 19.1025 148.829 19.2078 148.74 19.2904C148.619 19.4259 148.48 19.5669 148.322 19.7134C148.185 19.8448 148.04 19.9674 147.887 20.0806C147.755 20.1793 147.654 20.2217 147.587 20.2089C147.247 20.4767 146.862 20.6809 146.45 20.813C146.283 20.8593 146.131 20.9445 146.003 21.0623C145.876 21.18 145.778 21.3272 145.716 21.4928C145.584 21.4684 145.458 21.4082 145.353 21.3186C145.245 21.2284 145.148 21.2455 145.063 21.3699C144.941 21.7707 144.706 22.1208 144.389 22.3775C144.229 22.5106 144.03 22.5843 143.82 22.5877C143.611 22.5911 143.403 22.5239 143.228 22.3962C143.264 22.5221 143.267 22.654 143.237 22.7782C143.207 22.9025 143.144 23.0147 143.057 23.103C142.875 23.2838 142.76 23.5252 142.731 23.7886C142.676 24.0865 142.684 24.3963 142.755 24.6967C142.827 24.9971 142.959 25.2811 143.144 25.5294C143.54 26.0207 144.097 26.3435 144.7 26.4299C145.217 26.5433 145.748 26.4861 146.216 26.2664C146.657 26.0506 147.115 25.829 147.592 25.6016L147.986 25.3553Z" fill="white"/>
</g>
</g>
<defs>
<clipPath id="clip0_2262_1602">
<rect width="156.231" height="43.082" fill="white" transform="translate(0.419434)"/>
</clipPath>
</defs>
</svg>
