<svg width="156" height="43" viewBox="0 0 156 43" fill="none" xmlns="http://www.w3.org/2000/svg">
<g clip-path="url(#clip0_2262_1552)">
<mask id="mask0_2262_1552" style="mask-type:luminance" maskUnits="userSpaceOnUse" x="0" y="25" width="17" height="18">
<path d="M16.5955 32.1825L5.47192 25.8027L0.208603 36.4741L11.3322 42.8539L16.5955 32.1825Z" fill="white"/>
</mask>
<g mask="url(#mask0_2262_1552)">
<path d="M5.64101 37.6872C5.76157 37.7228 5.88515 37.7441 6.00946 37.7507C6.14941 37.7611 6.28799 37.7905 6.42177 37.8382C6.60623 37.6903 6.82646 37.5992 7.05897 37.5748C7.29149 37.5504 7.52755 37.5935 7.74197 37.6995C7.89424 37.4374 8.10797 37.2224 8.36306 37.0748C8.59292 36.9517 8.83314 36.8508 9.08092 36.7731C9.32707 36.6971 9.56986 36.6082 9.8093 36.5067C10.0568 36.4026 10.2847 36.2542 10.4833 36.0679C10.6622 36.0921 10.8146 36.109 10.9402 36.1217C11.0658 36.1343 11.2194 36.153 11.397 36.1754C11.5068 36.013 11.665 35.8947 11.847 35.8388C12.1137 35.7295 12.3869 35.6379 12.6651 35.5644C12.9554 35.4859 13.2506 35.4266 13.5488 35.3871C13.7632 35.3561 13.9798 35.3411 14.1969 35.3422C14.3097 35.1523 14.4645 34.9949 14.6483 34.8831C14.832 34.7713 15.0395 34.7084 15.2534 34.6995C15.4889 34.449 15.6612 34.1394 15.7549 33.7978C15.8305 33.4881 15.9154 33.1602 16.0097 32.8141C15.9116 32.6461 15.8386 32.4636 15.7931 32.2732C15.7509 32.0908 15.6939 31.8797 15.6221 31.6399C15.4894 31.525 15.3891 31.4973 15.3212 31.5569C15.2781 31.5885 15.2281 31.6082 15.1755 31.6144C15.123 31.6205 15.0695 31.613 15.0197 31.5923C14.6134 31.2931 14.1568 31.0818 13.6767 30.971C13.3889 30.943 13.0998 30.9465 12.8142 30.9813L11.9652 31.0947C11.6477 31.1309 11.3261 31.1262 11.0076 31.0807C10.917 31.2078 10.7914 31.3017 10.6475 31.3501C10.5106 31.3938 10.3818 31.4605 10.2659 31.5479C9.99439 31.7841 9.78086 31.8874 9.62534 31.858C9.50359 31.8281 9.37779 31.8271 9.25705 31.855C9.12632 31.8715 9.00273 31.9237 8.89832 32.0065C8.85274 32.0505 8.79239 32.0736 8.72993 32.071C8.66748 32.0683 8.60778 32.0402 8.56337 31.9925C8.48932 32.0916 8.39261 32.1689 8.282 32.2174C8.12485 32.3057 7.9495 32.3918 7.75595 32.4756C7.58397 32.5539 7.40756 32.6214 7.22762 32.6777C7.07064 32.7265 6.96291 32.7342 6.90359 32.7001C6.49788 32.8412 6.07076 32.9078 5.64033 32.8972C5.46831 32.8861 5.29717 32.9163 5.13973 32.9856C4.98229 33.055 4.84265 33.1616 4.73128 33.2975C4.61356 33.2311 4.51394 33.133 4.44275 33.0133C4.37014 32.8925 4.27361 32.8767 4.15317 32.9659C3.9101 33.3038 3.5778 33.5571 3.1966 33.695C3.00378 33.7685 2.79195 33.7728 2.59322 33.7071C2.3945 33.6414 2.21971 33.5094 2.09538 33.3311C2.08913 33.4616 2.04996 33.587 1.98196 33.6943C1.91395 33.8016 1.81959 33.8869 1.70866 33.9413C1.48285 34.0538 1.30088 34.2438 1.19156 34.4813C1.04466 34.7443 0.95387 35.0392 0.925371 35.346C0.896872 35.6527 0.931337 35.9641 1.02641 36.259C1.24233 36.852 1.66454 37.3394 2.20445 37.6188C2.6551 37.8954 3.17322 38.0158 3.68433 37.9625C4.16826 37.9041 4.67112 37.8458 5.1929 37.7874L5.64101 37.6872Z" fill="white"/>
</g>
<mask id="mask1_2262_1552" style="mask-type:luminance" maskUnits="userSpaceOnUse" x="20" y="18" width="17" height="18">
<path d="M36.5537 23.856L24.7435 18.8975L20.8175 30.1184L32.6277 35.0769L36.5537 23.856Z" fill="white"/>
</mask>
<g mask="url(#mask1_2262_1552)">
<path d="M26.3542 30.6546C26.4781 30.6751 26.6033 30.6811 26.7274 30.6724C26.8675 30.6655 27.0086 30.6777 27.1471 30.7086C27.3121 30.5393 27.5196 30.4221 27.7473 30.3694C27.975 30.3167 28.2144 30.3304 28.44 30.4093C28.5593 30.1308 28.7452 29.8916 28.9803 29.7139C29.1934 29.5638 29.4195 29.4344 29.6559 29.327C29.8909 29.2214 30.121 29.1036 30.3462 28.9736C30.5791 28.8401 30.7872 28.6652 30.9616 28.4562C31.142 28.4582 31.2952 28.4562 31.4214 28.4534C31.5475 28.4506 31.7022 28.4503 31.8811 28.4506C31.9703 28.2762 32.1128 28.1396 32.2867 28.0619C32.538 27.9209 32.7979 27.7965 33.065 27.6897C33.3435 27.5762 33.6291 27.4813 33.9202 27.4056C34.1291 27.3486 34.3421 27.3071 34.5577 27.2816C34.6466 27.0796 34.781 26.9046 34.9497 26.7713C35.1185 26.638 35.3167 26.5502 35.5278 26.5151C35.7311 26.238 35.8643 25.9101 35.9158 25.5601C35.9533 25.2438 35.9977 24.9084 36.0492 24.5539C35.9315 24.3995 35.8369 24.2276 35.7686 24.0445C35.7046 23.8688 35.6224 23.6666 35.5221 23.4378C35.3765 23.3402 35.2737 23.3251 35.2135 23.3924C35.1746 23.429 35.1274 23.4547 35.076 23.4673C35.0246 23.4798 34.9706 23.4789 34.9187 23.4645C34.4793 23.2178 34.0006 23.0644 33.5109 23.0134C33.2219 23.021 32.9356 23.0599 32.6565 23.1295L31.828 23.3459C31.5173 23.4207 31.1977 23.4555 30.8762 23.4495C30.8018 23.5865 30.6886 23.695 30.5516 23.7606C30.4212 23.8207 30.3015 23.9026 30.1971 24.0034C29.9564 24.2707 29.7571 24.3994 29.5993 24.3892C29.4748 24.3745 29.3499 24.389 29.2335 24.4315C29.1058 24.4638 28.9895 24.5307 28.896 24.6256C28.8561 24.6747 28.7991 24.705 28.7368 24.7101C28.6745 24.7152 28.6119 24.6946 28.562 24.6527C28.5006 24.76 28.414 24.8485 28.3102 24.9102C28.165 25.017 28.0015 25.1238 27.8196 25.2306C27.6585 25.3293 27.4917 25.4177 27.32 25.4956C27.1702 25.5632 27.0643 25.584 27.0013 25.5576C26.6159 25.7471 26.2003 25.8655 25.7719 25.9078C25.5999 25.9179 25.4338 25.9688 25.286 26.0568C25.1383 26.1448 25.0127 26.2676 24.9187 26.4159C24.7938 26.3645 24.6831 26.2795 24.5979 26.1697C24.5112 26.0589 24.4135 26.0551 24.3049 26.1582C24.1048 26.5229 23.8058 26.8147 23.4444 26.9981C23.262 27.0946 23.0524 27.1247 22.8473 27.084C22.6421 27.0433 22.4527 26.9339 22.3077 26.7724C22.3173 26.9025 22.2937 27.0316 22.2393 27.1463C22.1848 27.261 22.1016 27.3571 21.9981 27.4246C21.7878 27.5637 21.6303 27.7743 21.5507 28.0231C21.4369 28.3017 21.3826 28.6051 21.3916 28.9127C21.4005 29.2202 21.4725 29.5246 21.6027 29.8051C21.8889 30.3663 22.3669 30.7976 22.9365 31.0083C23.4172 31.2271 23.9458 31.2829 24.4464 31.1674C24.9194 31.0502 25.4112 30.9307 25.9218 30.8089L26.3542 30.6546Z" fill="white"/>
</g>
<mask id="mask2_2262_1552" style="mask-type:luminance" maskUnits="userSpaceOnUse" x="40" y="12" width="17" height="17">
<path d="M56.1561 16.8022L44.2655 12.0483L40.5284 23.3341L52.4189 28.0879L56.1561 16.8022Z" fill="white"/>
</mask>
<g mask="url(#mask2_2262_1552)">
<path d="M46.0728 23.7748C46.1971 23.7931 46.3223 23.7969 46.4463 23.7861C46.5862 23.7769 46.7275 23.7866 46.8665 23.8151C47.0286 23.643 47.234 23.5222 47.4608 23.4656C47.6876 23.409 47.9272 23.4186 48.1541 23.4936C48.2686 23.2132 48.4505 22.9707 48.6826 22.7891C48.8931 22.6354 49.117 22.502 49.3515 22.3906C49.5847 22.281 49.8127 22.1593 50.0357 22.0254C50.2664 21.888 50.4715 21.7095 50.6423 21.4975C50.8227 21.4964 50.9759 21.4918 51.1019 21.4868C51.228 21.4818 51.3827 21.4788 51.5616 21.4761C51.6478 21.3002 51.788 21.1612 51.9605 21.0805C52.2094 20.9352 52.4671 20.8064 52.7324 20.695C53.0089 20.5767 53.2929 20.477 53.5827 20.3962C53.7906 20.3356 54.0028 20.2905 54.2179 20.2613C54.3034 20.0578 54.4349 19.8806 54.6013 19.7444C54.7678 19.6082 54.9644 19.517 55.1749 19.4783C55.3735 19.1978 55.5013 18.8676 55.5469 18.5168C55.579 18.2 55.6178 17.8639 55.6634 17.5086C55.5431 17.3562 55.4456 17.186 55.3743 17.0041C55.3074 16.8296 55.2218 16.6289 55.1177 16.4018C54.9705 16.3068 54.8674 16.2934 54.8084 16.3618C54.7701 16.399 54.7233 16.4255 54.6722 16.439C54.621 16.4524 54.567 16.4524 54.5149 16.4389C54.0715 16.1999 53.5903 16.0548 53.0998 16.0122C52.8111 16.0248 52.5255 16.0686 52.2476 16.1429L51.4229 16.3736C51.1135 16.4538 50.7946 16.4941 50.473 16.4935C50.4009 16.6318 50.2896 16.7422 50.1538 16.8102C50.0244 16.8725 49.9061 16.9565 49.8034 17.059C49.5672 17.3304 49.3702 17.4625 49.2122 17.4551C49.0875 17.4425 48.9629 17.4591 48.8472 17.5036C48.7201 17.5381 48.605 17.607 48.513 17.7035C48.474 17.7533 48.4174 17.7846 48.3553 17.7907C48.2931 17.7968 48.2301 17.7774 48.1796 17.7364C48.1199 17.8447 48.0349 17.9347 47.9321 17.9981C47.7887 18.1073 47.6271 18.2169 47.4471 18.3269C47.2876 18.4283 47.1223 18.5196 46.952 18.6004C46.8033 18.6706 46.6978 18.6932 46.6344 18.6679C46.2522 18.864 45.8387 18.9895 45.4112 19.0392C45.2394 19.0522 45.0741 19.106 44.9279 19.1965C44.7816 19.287 44.6581 19.4119 44.5666 19.5619C44.4409 19.5127 44.3288 19.4296 44.2418 19.3212C44.1533 19.2119 44.0556 19.2098 43.9486 19.3148C43.7547 19.6829 43.4607 19.9797 43.1024 20.1693C42.9217 20.2689 42.7126 20.3027 42.5069 20.2655C42.3011 20.2283 42.1099 20.1222 41.9622 19.9633C41.974 20.0931 41.9526 20.2226 41.9001 20.3382C41.8476 20.4538 41.7659 20.5513 41.6636 20.6206C41.4557 20.7633 41.3018 20.9766 41.2263 21.2267C41.1172 21.5072 41.068 21.8115 41.0822 22.1187C41.0963 22.426 41.1734 22.7291 41.3082 23.0073C41.6037 23.5635 42.0889 23.9864 42.6618 24.1872C43.1461 24.3978 43.6755 24.4444 44.1741 24.3203C44.645 24.195 45.1347 24.0671 45.6431 23.9365L46.0728 23.7748Z" fill="white"/>
</g>
<mask id="mask3_2262_1552" style="mask-type:luminance" maskUnits="userSpaceOnUse" x="59" y="4" width="17" height="18">
<path d="M75.5292 11.1771L64.4056 4.79736L59.1423 15.4688L70.2659 21.8485L75.5292 11.1771Z" fill="white"/>
</mask>
<g mask="url(#mask3_2262_1552)">
<path d="M64.5747 16.6818C64.6953 16.7174 64.8189 16.7387 64.9432 16.7453C65.0831 16.7557 65.2217 16.7851 65.3555 16.8329C65.5399 16.6849 65.7602 16.5938 65.9927 16.5694C66.2252 16.545 66.4613 16.5881 66.6757 16.6942C66.828 16.4321 67.0417 16.2171 67.2968 16.0694C67.5266 15.9464 67.7669 15.8454 68.0146 15.7678C68.2608 15.6917 68.5036 15.6029 68.743 15.5013C68.9905 15.3972 69.2185 15.2489 69.417 15.0626C69.5959 15.0867 69.7483 15.1036 69.8739 15.1163C69.9995 15.129 70.1532 15.1477 70.3308 15.17C70.4405 15.0076 70.5987 14.8893 70.7808 14.8335C71.0474 14.7241 71.3206 14.6325 71.5988 14.5591C71.8891 14.4805 72.1843 14.4213 72.4826 14.3817C72.6969 14.3507 72.9135 14.3357 73.1306 14.3368C73.2435 14.1469 73.3982 13.9895 73.582 13.8777C73.7657 13.7659 73.9732 13.703 74.1871 13.6941C74.4226 13.4437 74.5949 13.134 74.6886 12.7925C74.7642 12.4827 74.8492 12.1548 74.9434 11.8087C74.8454 11.6407 74.7723 11.4583 74.7268 11.2679C74.6846 11.0854 74.6276 10.8743 74.5558 10.6345C74.4231 10.5196 74.3228 10.4919 74.2549 10.5515C74.2118 10.5831 74.1618 10.6028 74.1093 10.609C74.0567 10.6152 74.0032 10.6076 73.9534 10.5869C73.5472 10.2877 73.0905 10.0765 72.6104 9.96561C72.3226 9.93762 72.0336 9.94109 71.7479 9.97598L70.899 10.0893C70.5814 10.1256 70.2598 10.1209 69.9413 10.0753C69.8507 10.2024 69.7252 10.2963 69.5812 10.3447C69.4443 10.3884 69.3155 10.4552 69.1997 10.5425C68.9281 10.7787 68.7146 10.8821 68.5591 10.8526C68.4373 10.8227 68.3115 10.8217 68.1908 10.8497C68.06 10.8661 67.9364 10.9183 67.832 11.0011C67.7865 11.0451 67.7261 11.0682 67.6636 11.0656C67.6012 11.063 67.5415 11.0348 67.4971 10.9871C67.423 11.0862 67.3263 11.1635 67.2157 11.2121C67.0586 11.3004 66.8832 11.3864 66.6897 11.4703C66.5177 11.5486 66.3413 11.616 66.1613 11.6723C66.0044 11.7211 65.8966 11.7288 65.8373 11.6948C65.4316 11.8358 65.0045 11.9024 64.574 11.8919C64.402 11.8807 64.2309 11.911 64.0734 11.9803C63.916 12.0496 63.7764 12.1562 63.665 12.2921C63.5473 12.2257 63.4477 12.1276 63.3765 12.0079C63.3039 11.8872 63.2073 11.8714 63.0869 11.9606C62.8438 12.2985 62.5115 12.5518 62.1303 12.6897C61.9375 12.7632 61.7257 12.7674 61.5269 12.7017C61.3282 12.6361 61.1534 12.504 61.0291 12.3257C61.0228 12.4562 60.9837 12.5816 60.9157 12.6889C60.8477 12.7962 60.7533 12.8815 60.6424 12.936C60.4166 13.0484 60.2346 13.2384 60.1253 13.4759C59.9784 13.7389 59.8876 14.0338 59.8591 14.3406C59.8306 14.6474 59.8651 14.9588 59.9601 15.2536C60.176 15.8466 60.5983 16.334 61.1382 16.6135C61.5888 16.8901 62.1069 17.0104 62.618 16.9572C63.102 16.8988 63.6048 16.8404 64.1266 16.782L64.5747 16.6818Z" fill="white"/>
</g>
<mask id="mask4_2262_1552" style="mask-type:luminance" maskUnits="userSpaceOnUse" x="80" y="0" width="17" height="18">
<path d="M96.7791 7.7026L86.5211 0.0146484L80.0044 9.97475L90.2623 17.6627L96.7791 7.7026Z" fill="white"/>
</mask>
<g mask="url(#mask4_2262_1552)">
<path d="M85.2452 11.8393C85.3604 11.8893 85.4804 11.9254 85.6029 11.9471C85.7404 11.9744 85.8743 12.0205 86.0012 12.0841C86.2021 11.9596 86.4316 11.8959 86.6652 11.8999C86.8988 11.9039 87.1277 11.9754 87.3275 12.1067C87.5104 11.8649 87.7485 11.6773 88.0194 11.5616C88.2623 11.4674 88.5129 11.3963 88.7681 11.3492C89.0215 11.3036 89.2731 11.2449 89.5229 11.1731C89.781 11.0997 90.0251 10.9801 90.2447 10.8191C90.4192 10.8649 90.5683 10.9002 90.6913 10.928C90.8143 10.9558 90.9645 10.9931 91.1379 11.0369C91.2665 10.8889 91.4377 10.7906 91.6251 10.7573C91.9029 10.681 92.185 10.6232 92.4698 10.5841C92.7674 10.5413 93.0673 10.5183 93.368 10.5153C93.5843 10.5105 93.8009 10.5219 94.0162 10.5494C94.1512 10.3745 94.3238 10.2369 94.5196 10.1482C94.7155 10.0595 94.9289 10.0222 95.1421 10.0394C95.4062 9.8192 95.6146 9.53256 95.7491 9.20471C95.8617 8.90623 95.9858 8.59083 96.1213 8.25851C96.0445 8.07977 95.9941 7.88965 95.9721 7.69503C95.9525 7.50867 95.9216 7.29205 95.8795 7.04518C95.7619 6.91493 95.6657 6.87526 95.5911 6.92617C95.5445 6.95231 95.4925 6.96584 95.4397 6.96559C95.3868 6.96533 95.3347 6.9513 95.2878 6.9247C94.9212 6.5782 94.4939 6.31287 94.0312 6.14446C93.7491 6.08169 93.462 6.05004 93.1745 6.04999L92.3187 6.05942C91.9993 6.05686 91.6809 6.01314 91.3705 5.92921C91.2652 6.04443 91.1293 6.12249 90.9806 6.15306C90.8396 6.17982 90.7037 6.23049 90.5782 6.30314C90.2801 6.50476 90.0558 6.5815 89.9051 6.53334C89.788 6.48885 89.6633 6.47257 89.5402 6.48568C89.4085 6.48617 89.2796 6.52299 89.166 6.59257C89.1154 6.6307 89.0528 6.64631 88.9911 6.63612C88.9295 6.62593 88.8737 6.59074 88.8355 6.53792C88.75 6.62738 88.6447 6.69243 88.5291 6.7272C88.3625 6.79581 88.1781 6.86 87.9759 6.91978C87.7958 6.97664 87.6127 7.02221 87.4274 7.05627C87.2657 7.0857 87.158 7.0802 87.1033 7.03921C86.6837 7.13003 86.252 7.14434 85.8263 7.08153C85.6571 7.04958 85.4837 7.05881 85.3191 7.10854C85.1545 7.15827 85.0031 7.2472 84.8761 7.36867C84.7674 7.2884 84.6805 7.17884 84.6244 7.05135C84.5671 6.92256 84.4733 6.89515 84.343 6.96911C84.0608 7.27522 83.7005 7.48643 83.3056 7.57712C83.1054 7.6267 82.8948 7.60517 82.7057 7.5158C82.5166 7.42642 82.3592 7.27408 82.2576 7.08186C82.2355 7.21069 82.1815 7.33049 82.101 7.42882C82.0205 7.52715 81.9165 7.60041 81.7999 7.64101C81.5623 7.72523 81.3587 7.89186 81.2214 8.11451C81.0438 8.35785 80.9179 8.63976 80.8524 8.941C80.7868 9.24225 80.7832 9.55575 80.8417 9.86012C80.9838 10.4754 81.3433 11.0108 81.8449 11.3539C82.2583 11.6834 82.7576 11.8659 83.271 11.8751C83.7581 11.8759 84.2639 11.879 84.7885 11.8844L85.2452 11.8393Z" fill="white"/>
</g>
<mask id="mask5_2262_1552" style="mask-type:luminance" maskUnits="userSpaceOnUse" x="100" y="0" width="18" height="18">
<path d="M110.903 0.284927L100.691 8.24854L107.288 17.9973L117.501 10.0337L110.903 0.284927Z" fill="white"/>
</mask>
<g mask="url(#mask5_2262_1552)">
<path d="M105.924 6.23828C106.039 6.18488 106.158 6.14509 106.281 6.11965C106.418 6.08844 106.552 6.03866 106.679 5.97152C106.881 6.09001 107.111 6.14695 107.345 6.13628C107.578 6.1256 107.807 6.04771 108.006 5.9109C108.191 6.1469 108.431 6.32719 108.703 6.43482C108.947 6.5219 109.198 6.58561 109.454 6.62521C109.708 6.66348 109.96 6.71485 110.211 6.77931C110.471 6.84666 110.717 6.96108 110.938 7.11762C111.112 7.06698 111.261 7.02751 111.384 6.99621C111.507 6.96491 111.657 6.92344 111.831 6.87479C111.96 7.01874 112.132 7.11184 112.32 7.13974C112.599 7.2078 112.882 7.2574 113.167 7.28826C113.465 7.3221 113.766 7.33615 114.066 7.33032C114.283 7.32883 114.5 7.31124 114.715 7.27768C114.852 7.44828 115.025 7.58053 115.222 7.6634C115.419 7.74628 115.633 7.77739 115.846 7.75415C116.112 7.96619 116.323 8.24615 116.46 8.56934C116.578 8.86572 116.705 9.1762 116.842 9.50076C116.766 9.68127 116.717 9.87237 116.697 10.0671C116.678 10.2536 116.649 10.4706 116.609 10.7181C116.492 10.8514 116.396 10.8937 116.321 10.8451C116.274 10.8203 116.222 10.8083 116.169 10.8101C116.116 10.8119 116.064 10.8274 116.017 10.8552C115.653 11.2114 115.227 11.4884 114.765 11.6696C114.483 11.7404 114.196 11.7802 113.908 11.7885L113.051 11.8094C112.732 11.8211 112.413 11.8739 112.103 11.9665C111.997 11.8546 111.86 11.7806 111.711 11.7544C111.57 11.7318 111.433 11.6851 111.307 11.6162C111.008 11.4185 110.783 11.346 110.632 11.3987C110.515 11.4465 110.39 11.4663 110.267 11.4568C110.135 11.4602 110.006 11.4274 109.892 11.3617C109.841 11.3251 109.778 11.3113 109.716 11.3232C109.655 11.3352 109.599 11.3719 109.561 11.4257C109.475 11.3389 109.369 11.277 109.253 11.2456C109.086 11.182 108.901 11.1232 108.698 11.0694C108.517 11.0179 108.333 10.9777 108.148 10.949C107.986 10.9243 107.878 10.9329 107.823 10.9753C107.403 10.8968 106.97 10.8949 106.545 10.9698C106.375 11.0065 106.202 11.0023 106.037 10.9574C105.871 10.9125 105.719 10.8281 105.591 10.7106C105.483 10.7938 105.397 10.9056 105.342 11.0344C105.285 11.1645 105.191 11.1945 105.06 11.1245C104.776 10.8272 104.413 10.6269 104.017 10.5477C103.817 10.5024 103.606 10.5282 103.417 10.6213C103.228 10.7144 103.07 10.8696 102.969 11.0635C102.946 10.9356 102.891 10.8176 102.81 10.7217C102.728 10.6258 102.624 10.5556 102.507 10.5182C102.269 10.443 102.063 10.2848 101.923 10.0687C101.743 9.83102 101.615 9.55341 101.547 9.25478C101.479 8.95615 101.473 8.64351 101.53 8.3382C101.667 7.72033 102.023 7.17594 102.523 6.81925C102.934 6.47869 103.433 6.28235 103.947 6.25843C104.434 6.24367 104.941 6.22606 105.466 6.20558L105.924 6.23828Z" fill="white"/>
</g>
<mask id="mask6_2262_1552" style="mask-type:luminance" maskUnits="userSpaceOnUse" x="121" y="4" width="17" height="18">
<path d="M132.881 4.40627L121.47 10.4731L126.278 21.2265L137.689 15.1597L132.881 4.40627Z" fill="white"/>
</mask>
<g mask="url(#mask6_2262_1552)">
<path d="M126.961 9.40476C127.083 9.37215 127.208 9.35379 127.332 9.35003C127.473 9.34324 127.613 9.31747 127.749 9.27337C127.927 9.4253 128.144 9.5215 128.375 9.55171C128.607 9.58191 128.845 9.54499 129.065 9.44488C129.206 9.70958 129.41 9.92896 129.659 10.0824C129.884 10.2107 130.12 10.3172 130.365 10.4008C130.608 10.4827 130.847 10.5773 131.083 10.6844C131.327 10.7961 131.549 10.9516 131.739 11.1443C131.919 11.1248 132.072 11.1119 132.199 11.1025C132.325 11.093 132.48 11.0783 132.658 11.0606C132.761 11.225 132.914 11.3467 133.094 11.4069C133.357 11.5225 133.626 11.6206 133.901 11.7007C134.189 11.7863 134.482 11.8527 134.778 11.8996C134.992 11.9359 135.208 11.9563 135.425 11.9608C135.53 12.1526 135.678 12.3132 135.857 12.4291C136.036 12.545 136.241 12.6129 136.455 12.6272C136.68 12.8824 136.839 13.1949 136.918 13.5372C136.983 13.8497 137.055 14.1777 137.133 14.5213C137.028 14.686 136.947 14.8657 136.893 15.054C136.843 15.2346 136.777 15.4432 136.695 15.68C136.557 15.791 136.455 15.816 136.39 15.755C136.348 15.7225 136.299 15.7016 136.246 15.6941C136.194 15.6866 136.14 15.6928 136.089 15.7121C135.67 15.9996 135.204 16.1982 134.718 16.2964C134.429 16.3169 134.14 16.3061 133.855 16.2642L133.01 16.1356C132.693 16.0915 132.371 16.088 132.05 16.1253C131.965 15.9965 131.843 15.8998 131.701 15.848C131.566 15.8011 131.44 15.7314 131.328 15.6415C131.068 15.3945 130.859 15.2839 130.701 15.3096C130.578 15.3362 130.452 15.3341 130.332 15.3032C130.202 15.2835 130.081 15.2284 129.98 15.1433C129.936 15.0984 129.877 15.0739 129.814 15.0749C129.751 15.0759 129.69 15.1024 129.644 15.1488C129.574 15.0483 129.481 14.9689 129.372 14.9178C129.218 14.8259 129.047 14.7358 128.856 14.6475C128.688 14.5652 128.514 14.4936 128.336 14.433C128.181 14.3804 128.074 14.3701 128.013 14.4024C127.613 14.2518 127.188 14.1746 126.757 14.1742C126.584 14.181 126.414 14.1465 126.259 14.0736C126.105 14.0006 125.97 13.8909 125.864 13.7529C125.743 13.816 125.639 13.9111 125.563 14.0284C125.485 14.1467 125.388 14.16 125.271 14.0682C125.042 13.7257 124.721 13.4652 124.345 13.3183C124.156 13.2388 123.944 13.2275 123.742 13.2862C123.54 13.3449 123.358 13.4705 123.225 13.6437C123.224 13.5137 123.191 13.3879 123.128 13.2793C123.064 13.1707 122.974 13.0833 122.865 13.0262C122.644 12.9105 122.469 12.7189 122.368 12.4815C122.232 12.2161 122.154 11.9203 122.139 11.6143C122.124 11.3082 122.172 10.9992 122.28 10.7082C122.521 10.1235 122.965 9.64915 123.518 9.38476C123.981 9.12091 124.505 9.01429 125.014 9.08024C125.496 9.15063 125.997 9.22148 126.517 9.29277L126.961 9.40476Z" fill="white"/>
</g>
<mask id="mask7_2262_1552" style="mask-type:luminance" maskUnits="userSpaceOnUse" x="141" y="14" width="15" height="15">
<path d="M154.018 14.6237L141.475 16.9863L143.041 28.7854L155.583 26.4228L154.018 14.6237Z" fill="white"/>
</mask>
<g mask="url(#mask7_2262_1552)">
<path d="M146.993 17.6283C147.118 17.6341 147.242 17.6543 147.361 17.6886C147.497 17.7248 147.637 17.7426 147.779 17.7415C147.906 17.9418 148.085 18.1001 148.297 18.1996C148.508 18.2991 148.745 18.336 148.982 18.3064C149.042 18.6038 149.175 18.8769 149.369 19.1001C149.547 19.2917 149.741 19.466 149.951 19.6207C150.159 19.7734 150.36 19.937 150.554 20.1116C150.754 20.2931 150.922 20.5101 151.049 20.7533C151.226 20.7893 151.375 20.8234 151.498 20.8528C151.62 20.8821 151.771 20.915 151.946 20.9523C151.998 21.1416 152.11 21.3052 152.264 21.4178C152.481 21.6086 152.71 21.7849 152.949 21.9456C153.198 22.1149 153.458 22.2675 153.727 22.4025C153.92 22.5022 154.119 22.5876 154.325 22.6579C154.371 22.8742 154.467 23.0736 154.605 23.2395C154.743 23.4054 154.918 23.533 155.118 23.6117C155.26 23.9254 155.324 24.2742 155.304 24.6273C155.278 24.9474 155.254 25.2845 155.233 25.6387C155.087 25.765 154.96 25.9131 154.856 26.0778C154.758 26.2361 154.637 26.4166 154.492 26.6192C154.33 26.684 154.227 26.6771 154.181 26.5986C154.151 26.5546 154.11 26.5196 154.062 26.4965C154.015 26.4734 153.962 26.4629 153.908 26.4661C153.429 26.6148 152.93 26.664 152.441 26.6108C152.16 26.5426 151.889 26.4443 151.63 26.3175L150.862 25.9368C150.574 25.7982 150.268 25.6969 149.953 25.6351C149.908 25.4855 149.819 25.3555 149.699 25.2626C149.584 25.1764 149.483 25.071 149.402 24.9505C149.223 24.6339 149.055 24.464 148.898 24.4408C148.774 24.429 148.655 24.3886 148.55 24.3225C148.432 24.2643 148.332 24.1747 148.259 24.0626C148.23 24.0062 148.181 23.9645 148.121 23.9465C148.061 23.9284 147.996 23.9353 147.938 23.9658C147.9 23.8479 147.833 23.7432 147.744 23.661C147.624 23.526 147.486 23.3872 147.33 23.2444C147.193 23.114 147.047 22.9924 146.895 22.8801C146.763 22.7824 146.663 22.7398 146.597 22.7524C146.258 22.4859 145.876 22.2826 145.466 22.1511C145.3 22.1051 145.148 22.0203 145.022 21.9031C144.895 21.786 144.797 21.6395 144.735 21.4746C144.603 21.4986 144.478 21.5584 144.372 21.6479C144.265 21.738 144.169 21.7212 144.084 21.5974C143.962 21.1987 143.729 20.8504 143.413 20.595C143.255 20.461 143.057 20.3858 142.848 20.3808C142.64 20.3758 142.432 20.4413 142.257 20.5673C142.293 20.4422 142.296 20.311 142.266 20.1874C142.237 20.0638 142.175 19.9522 142.088 19.8642C141.91 19.6858 141.797 19.4484 141.767 19.1895C141.712 18.8931 141.721 18.585 141.792 18.2861C141.863 17.9873 141.995 17.7048 142.179 17.4579C142.572 16.9693 143.126 16.6483 143.725 16.5621C144.239 16.4493 144.767 16.5061 145.233 16.7243C145.671 16.9385 146.128 17.1589 146.602 17.3855L146.993 17.6283Z" fill="white"/>
</g>
</g>
<defs>
<clipPath id="clip0_2262_1552">
<rect width="155.393" height="42.851" fill="white" transform="translate(0.216675)"/>
</clipPath>
</defs>
</svg>
