<svg width="53" height="72" viewBox="0 0 53 72" fill="none" xmlns="http://www.w3.org/2000/svg">
    <path d="M45.3497 70.3399C45.156 70.6214 44.9018 70.8559 44.6057 71.0263C44.3095 71.1966 43.979 71.2985 43.6383 71.3244C43.2977 71.3503 42.9555 71.2996 42.637 71.176C42.3185 71.0524 42.0317 70.859 41.7977 70.6101C39.5 68.5109 36.9671 66.6847 34.2496 65.1679C32.8885 64.3694 31.5088 63.6051 30.134 62.8322C29.0627 62.2299 27.6311 61.8214 26.9385 60.7471C26.8445 60.5508 26.83 60.3258 26.8981 60.1192C26.9662 59.9125 27.1116 59.7402 27.3039 59.6382C28.417 58.9103 30.1962 59.4906 31.3731 59.7741C33.1403 60.2379 34.8485 60.9029 36.4642 61.7561C37.9626 62.5067 39.4141 63.3474 40.8107 64.2737C40.2461 59.9236 39.6611 55.6229 37.5489 51.6113C34.9327 46.6368 30.5631 43.0551 25.7153 40.3637C22.9453 38.8256 19.9763 37.728 17.1683 36.2696C14.6054 34.9425 12.1999 33.3313 9.99704 31.4665C5.61605 27.9468 2.4474 23.1434 0.935977 17.7308C0.211441 14.7382 0.139178 11.6247 0.724089 8.60176C1.0214 6.9348 1.531 5.31279 2.24046 3.77532C2.78399 2.6319 3.5701 0.216325 5.15274 0.563107C5.2744 0.60093 5.38372 0.670616 5.46936 0.764934C5.555 0.859253 5.61385 0.974769 5.6398 1.0995C5.74869 1.54689 5.51636 1.8573 5.47044 2.30884C5.46016 2.40132 5.42189 2.48845 5.36076 2.5586C5.29963 2.62874 5.21854 2.67855 5.12833 2.70138C4.82897 3.6359 4.43799 4.55909 4.16075 5.48329C3.70961 6.92014 3.40864 8.39989 3.26266 9.89882C3.03253 12.5259 3.36299 15.1718 4.23217 17.6616C6.11128 22.5311 9.38793 26.7364 13.6502 29.749C18.4791 33.3452 24.2254 35.0463 29.3473 38.1189C34.1789 40.8816 38.1805 44.8904 40.9348 49.7268C42.4009 52.4891 43.4373 55.4587 44.0082 58.5334C44.2372 59.7129 44.4058 60.9049 44.524 62.1001C44.8939 60.9754 45.2129 59.8328 45.5296 58.7063C46.0022 57.0219 46.4417 55.3265 46.9828 53.6632C47.5411 51.9463 48.0504 50.5222 49.6641 49.5532C50.9645 48.7729 52.2134 50.0297 52.305 51.265C52.4256 52.8681 51.6409 54.2833 51.1653 55.787C50.6291 57.4797 50.1726 59.1964 49.6673 60.8977C48.6973 64.1678 47.5962 67.7029 45.3482 70.3425" fill="#221F1F"/>
</svg>
