<svg width="39" height="45" viewBox="0 0 39 45" fill="none" xmlns="http://www.w3.org/2000/svg">
    <path d="M21.2767 42.8654C17.7614 42.1315 14.1825 41.7457 10.5916 41.7135C9.95239 41.6923 9.32088 41.6944 8.69014 41.71C11.4295 40.6677 14.1285 39.5115 16.7547 38.2203C21.8115 35.8655 26.4902 32.7721 30.6374 29.0414C34.2776 25.6247 37.2183 21.206 37.9806 16.1926C38.4378 13.5305 38.3027 10.8005 37.5847 8.19663C36.7938 5.58418 35.0198 3.3807 32.6364 2.05044C30.6841 1.11695 28.5614 0.592649 26.399 0.509688C25.3829 0.412816 21.9328 0.0260355 21.8119 1.70259C21.7872 2.01018 22.1449 2.3453 22.4391 2.10206C22.6625 1.91821 23.5209 2.05259 23.8066 2.07522C24.7019 2.1726 25.5916 2.31678 26.4718 2.50723C28.1387 2.75411 29.7605 3.24269 31.2864 3.95752C35.5814 6.27259 36.1217 11.7951 35.3304 16.0979C34.5137 20.5378 31.7552 24.2437 28.5273 27.2737C24.8618 30.5543 20.7425 33.2895 16.2965 35.3948C12.5069 37.2476 8.62692 38.9093 4.67097 40.3735C5.82851 38.9218 6.99878 37.4801 8.16197 36.034C10.1702 33.5464 11.9606 30.9485 13.7474 28.3046C13.7757 28.271 13.797 28.2321 13.8102 28.1903C13.8234 28.1484 13.8282 28.1044 13.8244 28.0607C13.8206 28.017 13.8082 27.9744 13.7879 27.9355C13.7677 27.8965 13.74 27.8619 13.7064 27.8337C13.6727 27.8055 13.6339 27.7841 13.5921 27.7708C13.5502 27.7576 13.5062 27.7529 13.4624 27.7567C13.4187 27.7605 13.3762 27.7729 13.3373 27.7931C13.2983 27.8134 13.2637 27.8411 13.2355 27.8747C11.1036 30.2244 8.77004 32.4037 6.61336 34.7357C4.45668 37.0678 2.3304 39.4189 0.342017 41.8994C0.222734 42.0461 0.138333 42.218 0.0951515 42.4021C0.0519698 42.5862 0.0511323 42.7777 0.0927346 42.9622C0.134337 43.1466 0.217349 43.3193 0.335371 43.467C0.453393 43.6148 0.603406 43.7337 0.774119 43.815C3.62659 45.167 6.97827 44.1558 9.99974 44.2314C13.7269 44.3227 17.4915 44.9676 21.2052 44.5589C21.4084 44.5349 21.5964 44.4392 21.7354 44.2891C21.8744 44.139 21.9553 43.9443 21.9637 43.7399C21.972 43.5355 21.9072 43.3348 21.7809 43.1739C21.6546 43.013 21.475 42.9023 21.2745 42.8619" fill="#221F1F"/>
</svg>
