<svg width="37" height="49" viewBox="0 0 37 49" fill="none" xmlns="http://www.w3.org/2000/svg">
    <path d="M31.4202 47.8564C31.2886 48.048 31.1157 48.2076 30.9143 48.3236C30.7129 48.4396 30.4881 48.509 30.2564 48.5268C30.0246 48.5445 29.7919 48.5101 29.5752 48.426C29.3585 48.342 29.1634 48.2105 29.0042 48.0412C27.4406 46.6126 25.717 45.3699 23.8677 44.3378C22.9411 43.7947 22.0023 43.2747 21.0671 42.7486C20.2406 42.454 19.4956 41.9681 18.8929 41.3305C18.8289 41.1969 18.8191 41.0437 18.8655 40.9031C18.9118 40.7624 19.0107 40.6451 19.1416 40.5757C19.9006 40.0809 21.1095 40.4752 21.9081 40.6719C23.1101 40.9859 24.2721 41.4367 25.3713 42.0154C26.3913 42.5246 27.3796 43.0951 28.3305 43.7239C28.1183 40.7418 27.3665 37.8229 26.1115 35.1093C24.2323 31.8268 21.4327 29.1667 18.0585 27.4577C16.1733 26.4108 14.1536 25.6651 12.2408 24.6762C10.4973 23.7731 8.8608 22.6768 7.36225 21.4081C4.3822 19.0128 2.22719 15.7444 1.19984 12.0617C0.707999 10.0256 0.660025 7.90755 1.05917 5.8513C1.26144 4.71774 1.60799 3.61474 2.09039 2.56919C2.46013 1.79078 2.99473 0.146827 4.07192 0.383075C4.15457 0.408816 4.22885 0.456167 4.28707 0.520232C4.34529 0.584296 4.38534 0.662749 4.40309 0.747479C4.47715 1.0512 4.3193 1.2626 4.28829 1.57032C4.28102 1.63335 4.25465 1.69265 4.21271 1.74027C4.17077 1.78788 4.11527 1.82153 4.05366 1.83669C3.85064 2.47234 3.58352 3.10101 3.39529 3.72903C3.08894 4.70697 2.8848 5.71403 2.78616 6.73407C2.63007 8.52018 2.85484 10.3191 3.44561 12.0119C4.72426 15.3251 6.95387 18.1864 9.85414 20.236C13.139 22.6844 17.0479 23.842 20.536 25.9344C23.8231 27.8147 26.5452 30.5427 28.4183 33.8338C29.4166 35.7123 30.1226 37.7319 30.5122 39.8232C30.6679 40.6255 30.7827 41.4366 30.863 42.2496C31.1149 41.4852 31.3319 40.7075 31.5467 39.9413C31.8678 38.7953 32.1667 37.6434 32.5358 36.5101C32.752 35.3741 33.4077 34.3692 34.3604 33.7138C34.5543 33.6211 34.7687 33.5797 34.9832 33.5935C35.1977 33.6074 35.405 33.676 35.5853 33.7929C35.7657 33.9098 35.913 34.0709 36.0132 34.261C36.1135 34.4511 36.1633 34.6637 36.1579 34.8786C36.1008 35.9446 35.8375 36.9894 35.3827 37.9552C35.0179 39.1071 34.7077 40.2744 34.3635 41.4325C33.8351 43.7536 32.8347 45.9411 31.4245 47.8589" fill="#221F1F"/>
</svg>
