<svg width="50" height="50" viewBox="0 0 50 50" fill="none" xmlns="http://www.w3.org/2000/svg">
<g clip-path="url(#clip0_65_1526)">
<mask id="mask0_65_1526" style="mask-type:luminance" maskUnits="userSpaceOnUse" x="0" y="0" width="50" height="50">
<path d="M50 0H0V50H50V0Z" fill="white"/>
</mask>
<g mask="url(#mask0_65_1526)">
<path d="M24.2075 45.274C24.2075 46.0919 23.965 46.8914 23.5106 47.5714C23.0562 48.2514 22.4103 48.7814 21.6547 49.0944C20.899 49.4073 20.0676 49.4891 19.2654 49.3295C18.4633 49.1699 17.7265 48.776 17.1483 48.1976C16.57 47.6192 16.1763 46.8823 16.0168 46.0801C15.8574 45.2779 15.9394 44.4465 16.2525 43.6909C16.5657 42.9354 17.0958 42.2897 17.7759 41.8354C18.4561 41.3812 19.2556 41.1388 20.0735 41.139C21.1702 41.139 22.2219 41.5747 22.9974 42.3502C23.7728 43.1256 24.2075 44.1774 24.2075 45.274Z" fill="#E6D4D9"/>
<path d="M38.3823 45.274C38.3823 46.0919 38.1398 46.8914 37.6854 47.5714C37.231 48.2514 36.5851 48.7814 35.8295 49.0944C35.0739 49.4073 34.2424 49.4891 33.4402 49.3295C32.6381 49.1699 31.9013 48.776 31.3231 48.1976C30.7448 47.6192 30.3511 46.8823 30.1916 46.0801C30.0322 45.2779 30.1142 44.4465 30.4274 43.6909C30.7405 42.9354 31.2706 42.2897 31.9508 41.8354C32.6309 41.3812 33.4304 41.1388 34.2483 41.139C35.345 41.139 36.3967 41.5747 37.1722 42.3502C37.9477 43.1256 38.3833 44.1774 38.3833 45.274" fill="#E6D4D9"/>
<path d="M20.0727 40.5481C19.1381 40.5481 18.2246 40.8252 17.4476 41.3444C16.6706 41.8636 16.065 42.6015 15.7073 43.4649C15.3497 44.3283 15.2561 45.2783 15.4384 46.1949C15.6208 47.1115 16.0708 47.9534 16.7316 48.6142C17.3924 49.275 18.2343 49.725 19.1509 49.9073C20.0674 50.0896 21.0175 49.9961 21.8808 49.6384C22.7442 49.2808 23.4822 48.6752 24.0014 47.8982C24.5205 47.1211 24.7977 46.2076 24.7977 45.2731C24.7961 44.0204 24.2977 42.8195 23.412 41.9338C22.5262 41.048 21.3253 40.5497 20.0727 40.5481ZM20.0727 48.4241C19.4496 48.4241 18.8406 48.2393 18.3226 47.8932C17.8046 47.5471 17.4009 47.0551 17.1624 46.4796C16.924 45.904 16.8616 45.2706 16.9832 44.6596C17.1047 44.0485 17.4047 43.4872 17.8453 43.0467C18.2858 42.6062 18.8471 42.3062 19.4581 42.1846C20.0692 42.0631 20.7025 42.1255 21.2781 42.3639C21.8537 42.6023 22.3457 43.006 22.6918 43.524C23.0379 44.0421 23.2227 44.6511 23.2227 45.2741C23.2216 46.1092 22.8894 46.9098 22.2989 47.5003C21.7084 48.0908 20.9078 48.423 20.0727 48.4241Z" fill="#101820"/>
<path d="M34.2484 40.5481C33.3139 40.5481 32.4004 40.8252 31.6234 41.3444C30.8463 41.8636 30.2407 42.6015 29.8831 43.4649C29.5255 44.3283 29.4319 45.2783 29.6142 46.1949C29.7965 47.1115 30.2466 47.9534 30.9074 48.6142C31.5682 49.275 32.4101 49.725 33.3266 49.9073C34.2432 50.0896 35.1932 49.9961 36.0566 49.6384C36.92 49.2808 37.6579 48.6752 38.1771 47.8982C38.6963 47.1211 38.9734 46.2076 38.9734 45.2731C38.9718 44.0204 38.4735 42.8195 37.5878 41.9338C36.702 41.048 35.5011 40.5497 34.2484 40.5481ZM34.2484 48.4241C33.6254 48.4241 33.0164 48.2393 32.4984 47.8932C31.9804 47.5471 31.5766 47.0551 31.3382 46.4796C31.0998 45.904 31.0374 45.2706 31.159 44.6596C31.2805 44.0485 31.5805 43.4872 32.0211 43.0467C32.4616 42.6062 33.0229 42.3062 33.6339 42.1846C34.2449 42.0631 34.8783 42.1255 35.4539 42.3639C36.0295 42.6023 36.5214 43.006 36.8676 43.524C37.2137 44.0421 37.3984 44.6511 37.3984 45.2741C37.3974 46.1092 37.0652 46.9098 36.4747 47.5003C35.8841 48.0908 35.0836 48.423 34.2484 48.4241Z" fill="#101820"/>
<path d="M49.8597 10.961C49.7872 10.8565 49.6905 10.771 49.5779 10.712C49.4652 10.653 49.3399 10.6221 49.2127 10.622H16.1357C16.0299 10.6182 15.9245 10.6358 15.8257 10.6737C15.7268 10.7116 15.6366 10.769 15.5605 10.8425C15.4843 10.916 15.4237 11.0041 15.3823 11.1015C15.341 11.1989 15.3196 11.3037 15.3196 11.4095C15.3196 11.5154 15.341 11.6201 15.3823 11.7175C15.4237 11.815 15.4843 11.903 15.5605 11.9765C15.6366 12.05 15.7268 12.1074 15.8257 12.1453C15.9245 12.1832 16.0299 12.2008 16.1357 12.197H48.0757L42.1537 27.99C41.9836 28.4395 41.681 28.8267 41.2861 29.1004C40.8911 29.3742 40.4223 29.5215 39.9417 29.523H13.4877L8.37372 5.09001C8.18551 4.20644 7.70048 3.41394 6.99931 2.84431C6.29815 2.27468 5.4231 1.96226 4.51972 1.95901H2.53372C2.36036 1.65875 2.09277 1.42408 1.77245 1.2914C1.45213 1.15872 1.09698 1.13544 0.762087 1.22518C0.427189 1.31491 0.13126 1.51265 -0.0798049 1.78771C-0.290869 2.06277 -0.405273 2.3998 -0.405273 2.74651C-0.405273 3.09322 -0.290869 3.43024 -0.0798049 3.70531C0.13126 3.98037 0.427189 4.17811 0.762087 4.26784C1.09698 4.35758 1.45213 4.3343 1.77245 4.20162C2.09277 4.06894 2.36036 3.83427 2.53372 3.53401H4.51972C5.06159 3.53602 5.58646 3.72343 6.00707 4.06508C6.42768 4.40673 6.71869 4.88205 6.83172 5.41201L12.0767 30.471L12.8717 34.271C13.0598 35.1547 13.5447 35.9473 14.2459 36.5169C14.9471 37.0866 15.8223 37.3989 16.7257 37.402H39.7617C39.8675 37.4058 39.9729 37.3882 40.0718 37.3503C40.1706 37.3124 40.2608 37.255 40.337 37.1815C40.4131 37.108 40.4737 37.02 40.5151 36.9225C40.5565 36.8251 40.5778 36.7204 40.5778 36.6145C40.5778 36.5087 40.5565 36.4039 40.5151 36.3065C40.4737 36.2091 40.4131 36.121 40.337 36.0475C40.2608 35.974 40.1706 35.9166 40.0718 35.8787C39.9729 35.8408 39.8675 35.8232 39.7617 35.827H16.7257C16.1837 35.8249 15.6587 35.6374 15.2381 35.2956C14.8175 34.9537 14.5265 34.4782 14.4137 33.948L13.8137 31.101H39.9417C40.7427 31.0985 41.524 30.8528 42.1824 30.3966C42.8407 29.9404 43.3451 29.2951 43.6287 28.546L49.9497 11.689C49.9944 11.5699 50.0095 11.4417 49.9938 11.3154C49.9781 11.1892 49.9321 11.0686 49.8597 10.964" fill="#101820"/>
<path d="M42.7143 11.409C42.7143 13.4339 42.1138 15.4133 40.9889 17.0969C39.8639 18.7806 38.2649 20.0928 36.3942 20.8677C34.5234 21.6426 32.4649 21.8453 30.4789 21.4503C28.493 21.0553 26.6687 20.0802 25.2369 18.6484C23.8051 17.2166 22.83 15.3923 22.435 13.4064C22.04 11.4204 22.2427 9.36186 23.0176 7.49111C23.7925 5.62036 25.1047 4.0214 26.7884 2.89643C28.472 1.77147 30.4514 1.17102 32.4763 1.17102C35.1916 1.17102 37.7956 2.24966 39.7156 4.16966C41.6356 6.08966 42.7143 8.69373 42.7143 11.409Z" fill="#E6D4D9"/>
<path d="M32.4772 0.383057C30.2964 0.383057 28.1647 1.02972 26.3515 2.24127C24.5382 3.45283 23.125 5.17485 22.2905 7.18959C21.4559 9.20433 21.2376 11.4213 21.663 13.5601C22.0885 15.699 23.1386 17.6636 24.6806 19.2056C26.2226 20.7476 28.1873 21.7978 30.3261 22.2232C32.4649 22.6486 34.6819 22.4303 36.6966 21.5958C38.7114 20.7612 40.4334 19.348 41.645 17.5348C42.8565 15.7216 43.5032 13.5898 43.5032 11.4091C43.5 8.48575 42.3373 5.68309 40.2702 3.61601C38.2031 1.54892 35.4005 0.386233 32.4772 0.383057ZM32.4772 20.8591C30.6079 20.8591 28.7807 20.3048 27.2265 19.2663C25.6723 18.2278 24.4609 16.7517 23.7456 15.0248C23.0303 13.2979 22.8431 11.3976 23.2078 9.56426C23.5724 7.73094 24.4726 6.04694 25.7943 4.72519C27.1161 3.40344 28.8001 2.50332 30.6334 2.13865C32.4667 1.77399 34.367 1.96115 36.0939 2.67647C37.8209 3.3918 39.2969 4.60315 40.3354 6.15736C41.3739 7.71157 41.9282 9.53883 41.9282 11.4081C41.9255 13.9138 40.929 16.3162 39.1571 18.088C37.3853 19.8598 34.9829 20.8564 32.4772 20.8591Z" fill="#101820"/>
<path d="M37.9895 10.622H33.2645V5.89702C33.2572 5.69302 33.1711 5.4998 33.0242 5.35805C32.8773 5.2163 32.6811 5.13708 32.477 5.13708C32.2729 5.13708 32.0767 5.2163 31.9298 5.35805C31.7829 5.4998 31.6968 5.69302 31.6895 5.89702V10.622H26.9645C26.8587 10.6182 26.7533 10.6358 26.6544 10.6737C26.5556 10.7116 26.4654 10.769 26.3893 10.8425C26.3131 10.916 26.2525 11.0041 26.2111 11.1015C26.1698 11.1989 26.1484 11.3037 26.1484 11.4095C26.1484 11.5154 26.1698 11.6201 26.2111 11.7175C26.2525 11.815 26.3131 11.9031 26.3893 11.9766C26.4654 12.0501 26.5556 12.1075 26.6544 12.1453C26.7533 12.1832 26.8587 12.2008 26.9645 12.197H31.6895V16.922C31.6857 17.0278 31.7033 17.1332 31.7412 17.2321C31.7791 17.3309 31.8365 17.4211 31.91 17.4973C31.9835 17.5734 32.0716 17.634 32.169 17.6754C32.2664 17.7168 32.3712 17.7381 32.477 17.7381C32.5828 17.7381 32.6876 17.7168 32.785 17.6754C32.8824 17.634 32.9705 17.5734 33.044 17.4973C33.1175 17.4211 33.1749 17.3309 33.2128 17.2321C33.2507 17.1332 33.2683 17.0278 33.2645 16.922V12.197H37.9895C38.0953 12.2008 38.2007 12.1832 38.2996 12.1453C38.3984 12.1075 38.4886 12.0501 38.5648 11.9766C38.6409 11.9031 38.7015 11.815 38.7429 11.7175C38.7842 11.6201 38.8056 11.5154 38.8056 11.4095C38.8056 11.3037 38.7842 11.1989 38.7429 11.1015C38.7015 11.0041 38.6409 10.916 38.5648 10.8425C38.4886 10.769 38.3984 10.7116 38.2996 10.6737C38.2007 10.6358 38.0953 10.6182 37.9895 10.622Z" fill="#101820"/>
</g>
</g>
<defs>
<clipPath id="clip0_65_1526">
<rect width="50" height="50" fill="white"/>
</clipPath>
</defs>
</svg>
