<svg width="50" height="50" viewBox="0 0 50 50" fill="none" xmlns="http://www.w3.org/2000/svg">
<g clip-path="url(#clip0_65_1339)">
<path d="M17.0574 41.499H10.0664L21.6184 8.54297H27.9324L40.0903 41.498H32.9343L29.7344 32.814H20.1475L17.0474 41.498L17.0574 41.499ZM25.1465 18.4341L21.9314 27.25H28.2815L25.1465 18.4341Z" fill="#E6D4D9"/>
<mask id="mask0_65_1339" style="mask-type:luminance" maskUnits="userSpaceOnUse" x="0" y="0" width="50" height="50">
<path d="M50 0H0V50H50V0Z" fill="white"/>
</mask>
<g mask="url(#mask0_65_1339)">
<path d="M39.8442 42.187H32.8122C32.6519 42.1869 32.4956 42.1375 32.3643 42.0456C32.233 41.9536 32.1331 41.8236 32.0782 41.673L29.1412 33.593H20.3122C20.2096 33.593 20.1081 33.5728 20.0133 33.5336C19.9186 33.4943 19.8325 33.4368 19.7599 33.3643C19.6874 33.2917 19.6299 33.2056 19.5906 33.1109C19.5514 33.0161 19.5312 32.9146 19.5312 32.812C19.5312 32.7094 19.5514 32.6079 19.5906 32.5131C19.6299 32.4184 19.6874 32.3323 19.7599 32.2598C19.8325 32.1872 19.9186 32.1297 20.0133 32.0905C20.1081 32.0512 20.2096 32.031 20.3122 32.031H29.6872C29.8475 32.0311 30.0038 32.0805 30.1351 32.1725C30.2664 32.2644 30.3663 32.3944 30.4212 32.545L33.3592 40.625H38.7352L27.5752 9.37501H22.4262L11.2652 40.625H16.4062C16.6135 40.625 16.8122 40.7073 16.9588 40.8539C17.1054 41.0005 17.1877 41.1992 17.1877 41.4065C17.1877 41.6138 17.1054 41.8126 16.9588 41.9591C16.8122 42.1057 16.6135 42.188 16.4062 42.188H10.1562C10.031 42.1879 9.90774 42.1577 9.79666 42.1C9.68559 42.0424 9.58997 41.9589 9.51786 41.8566C9.44575 41.7543 9.39924 41.6362 9.38224 41.5122C9.36525 41.3882 9.37826 41.2619 9.4202 41.144L21.1392 8.33101C21.1933 8.17911 21.2931 8.04767 21.4249 7.95474C21.5566 7.86182 21.7139 7.81196 21.8752 7.81201H28.1252C28.2864 7.81196 28.4438 7.86182 28.5755 7.95474C28.7073 8.04767 28.8071 8.17911 28.8612 8.33101L40.5752 41.143C40.6171 41.2609 40.6301 41.3872 40.6131 41.5112C40.5962 41.6352 40.5496 41.7533 40.4775 41.8556C40.4054 41.9579 40.3098 42.0414 40.1987 42.099C40.0877 42.1567 39.9644 42.1869 39.8392 42.187" fill="#101820"/>
<path d="M15.6254 46.875C15.5397 46.8751 15.4546 46.8613 15.3734 46.834C15.2763 46.801 15.1866 46.7492 15.1095 46.6815C15.0324 46.6138 14.9694 46.5316 14.9241 46.4396C14.8788 46.3476 14.852 46.2475 14.8454 46.1451C14.8387 46.0428 14.8523 45.9401 14.8854 45.843L28.9444 4.436C28.9772 4.33882 29.0289 4.24906 29.0964 4.17184C29.1639 4.09462 29.246 4.03146 29.3379 3.98596C29.4298 3.94046 29.5298 3.91351 29.6322 3.90665C29.7345 3.8998 29.8372 3.91317 29.9344 3.946C30.0316 3.97883 30.1213 4.03048 30.1985 4.098C30.2757 4.16552 30.3389 4.24758 30.3844 4.33951C30.4299 4.43144 30.4569 4.53144 30.4637 4.63378C30.4706 4.73613 30.4572 4.83882 30.4244 4.936L16.3654 46.344C16.3129 46.4986 16.2133 46.6329 16.0806 46.7279C15.9478 46.823 15.7886 46.8741 15.6254 46.874" fill="#101820"/>
<path d="M28.2652 28.1291C28.1019 28.1291 27.9427 28.0781 27.81 27.983C27.6772 27.8879 27.5776 27.7537 27.5252 27.5991L24.3902 18.3581C24.3536 18.26 24.337 18.1557 24.3415 18.0511C24.3461 17.9466 24.3715 17.8441 24.4164 17.7496C24.4614 17.6551 24.5248 17.5706 24.603 17.5011C24.6812 17.4316 24.7726 17.3785 24.8717 17.345C24.9708 17.3115 25.0756 17.2982 25.18 17.306C25.2843 17.3138 25.386 17.3425 25.4791 17.3903C25.5721 17.4382 25.6546 17.5042 25.7216 17.5846C25.7886 17.6649 25.8388 17.7579 25.8692 17.8581L29.0052 27.0991C29.0451 27.2166 29.0564 27.342 29.0381 27.4648C29.0199 27.5876 28.9726 27.7043 28.9003 27.8052C28.828 27.9061 28.7326 27.9882 28.6221 28.0449C28.5117 28.1016 28.3893 28.1311 28.2652 28.1311" fill="#101820"/>
<path d="M40.6265 48.438H39.0635V50.001H40.6265V48.438Z" fill="#101820"/>
<path d="M40.6265 45.313H39.0635V46.876H40.6265V45.313Z" fill="#101820"/>
<path d="M40.6265 28.125H39.0635V29.688H40.6265V28.125Z" fill="#101820"/>
<path d="M40.6265 31.25H39.0635V32.813H40.6265V31.25Z" fill="#101820"/>
<path d="M40.6265 25H39.0635V26.563H40.6265V25Z" fill="#101820"/>
<path d="M40.6265 21.875H39.0635V23.438H40.6265V21.875Z" fill="#101820"/>
<path d="M40.6265 18.75H39.0635V20.313H40.6265V18.75Z" fill="#101820"/>
<path d="M40.6265 12.5H39.0635V14.063H40.6265V12.5Z" fill="#101820"/>
<path d="M40.6265 15.625H39.0635V17.188H40.6265V15.625Z" fill="#101820"/>
<path d="M40.6265 3.125H39.0635V4.688H40.6265V3.125Z" fill="#101820"/>
<path d="M40.6265 0H39.0635V1.563H40.6265V0Z" fill="#101820"/>
<path d="M10.938 48.438H9.375V50.001H10.938V48.438Z" fill="#101820"/>
<path d="M10.938 45.313H9.375V46.876H10.938V45.313Z" fill="#101820"/>
<path d="M10.938 28.125H9.375V29.688H10.938V28.125Z" fill="#101820"/>
<path d="M10.938 31.25H9.375V32.813H10.938V31.25Z" fill="#101820"/>
<path d="M10.938 25H9.375V26.563H10.938V25Z" fill="#101820"/>
<path d="M10.938 21.875H9.375V23.438H10.938V21.875Z" fill="#101820"/>
<path d="M10.938 18.75H9.375V20.313H10.938V18.75Z" fill="#101820"/>
<path d="M10.938 12.5H9.375V14.063H10.938V12.5Z" fill="#101820"/>
<path d="M10.938 15.625H9.375V17.188H10.938V15.625Z" fill="#101820"/>
<path d="M10.938 3.125H9.375V4.688H10.938V3.125Z" fill="#101820"/>
<path d="M10.938 0H9.375V1.563H10.938V0Z" fill="#101820"/>
<path d="M50.0015 7.81299H48.4385V9.37599H50.0015V7.81299Z" fill="#101820"/>
<path d="M43.7515 7.81299H42.1885V9.37599H43.7515V7.81299Z" fill="#101820"/>
<path d="M46.8765 7.81299H45.3135V9.37599H46.8765V7.81299Z" fill="#101820"/>
<path d="M40.6265 7.81299H39.0635V9.37599H40.6265V7.81299Z" fill="#101820"/>
<path d="M37.5015 7.81299H35.9385V9.37599H37.5015V7.81299Z" fill="#101820"/>
<path d="M34.3765 7.81299H32.8135V9.37599H34.3765V7.81299Z" fill="#101820"/>
<path d="M14.063 7.81299H12.5V9.37599H14.063V7.81299Z" fill="#101820"/>
<path d="M17.188 7.81299H15.625V9.37599H17.188V7.81299Z" fill="#101820"/>
<path d="M10.938 7.81299H9.375V9.37599H10.938V7.81299Z" fill="#101820"/>
<path d="M7.813 7.81299H6.25V9.37599H7.813V7.81299Z" fill="#101820"/>
<path d="M4.688 7.81299H3.125V9.37599H4.688V7.81299Z" fill="#101820"/>
<path d="M1.563 7.81299H0V9.37599H1.563V7.81299Z" fill="#101820"/>
<path d="M48.438 40.625H46.875V42.188H48.438V40.625Z" fill="#101820"/>
<path d="M45.313 40.625H43.75V42.188H45.313V40.625Z" fill="#101820"/>
<path d="M28.9067 40.625H27.3438V42.188H28.9067V40.625Z" fill="#101820"/>
<path d="M25.7817 40.625H24.2188V42.188H25.7817V40.625Z" fill="#101820"/>
<path d="M22.6567 40.625H21.0938V42.188H22.6567V40.625Z" fill="#101820"/>
<path d="M6.25148 40.625H4.68848V42.188H6.25148V40.625Z" fill="#101820"/>
<path d="M3.12648 40.625H1.56348V42.188H3.12648V40.625Z" fill="#101820"/>
</g>
</g>
<defs>
<clipPath id="clip0_65_1339">
<rect width="50" height="50" fill="white"/>
</clipPath>
</defs>
</svg>
