<?xml version="1.0" encoding="UTF-8"?>
<svg id="Flat_Pouch" data-name="Flat Pouch" xmlns="http://www.w3.org/2000/svg" xmlns:xlink="http://www.w3.org/1999/xlink" viewBox="0 0 972 1039.13">
  <defs>
    <style>
      .cls-1 {
        fill: none;
      }

      .cls-2 {
        clip-path: url(#clippath);
      }

      .cls-3 {
        fill: #ebebeb;
      }

      .cls-4 {
        fill: #fff;
      }

      .cls-5 {
        fill: #bdbdbd;
      }

      .cls-6 {
        fill: #dedede;
      }

      .cls-7 {
        fill: #231f20;
      }

      .cls-8 {
        fill: #6d6e71;
      }

      .cls-9 {
        fill: #841e2b;
      }

      .cls-10 {
        clip-path: url(#clippath-1);
      }
    </style>
    <clipPath id="clippath">
      <rect class="cls-1" x="103.13" y="296.51" width="520.83" height="102.43" transform="translate(-3.69 3.9) rotate(-.61)"/>
    </clipPath>
    <clipPath id="clippath-1">
      <rect class="cls-1" x="814.01" y="539.75" width="50.11" height="254.81" transform="translate(-7.07 8.99) rotate(-.61)"/>
    </clipPath>
  </defs>
  <path class="cls-6" d="M904.35,993.08s6.65,14.63-10.31,19.95c-16.96,5.32-33.27-15.64-33.27-15.64l-77.47-90.11-18.18-20.84s-8.87-9.31,3.1-13.75c11.97-4.43,37.24-5.32,37.24-5.32l98.88,125.7Z"/>
  <path class="cls-6" d="M53.71,968.47l-18.63,7.98s-25.93,20.62,5.33,19.95c31.26-.67,184.89-13.96,184.89-13.96l196.2-13.97,180.24-9.31,92.45-4.66s25.27-8.65,3.99-23.94-38.57-10.64-38.57-10.64L53.71,968.47Z"/>
  <polygon class="cls-3" points="267.54 104.53 392.24 109.52 570.81 108.56 625.68 106.56 625.68 147.43 618.7 217.26 618.7 335.98 600.74 248.19 592.76 187.33 560.84 153.41 494 133.46 373.28 121.49 267.54 104.53"/>
  <polygon class="cls-6" points="882.63 1000.4 891.94 996.85 893.94 846.98 911.89 784.47 926.08 716.19 934.95 664.75 940.71 600.02 942.93 556.12 942.93 466.11 942.93 424.44 937.61 383.2 930.96 338.86 925.19 301.17 912.78 247.97 902.37 189.44 903.03 32.7 893.71 32.7 888.39 40.02 876.42 979.11 882.63 1000.4"/>
  <path d="M882.63,1002.4c-.31,0-.61-.07-.89-.21-.5-.25-.87-.7-1.03-1.23l-6.21-21.28c-.06-.19-.08-.39-.08-.58l11.97-939.1c0-.41,.14-.82,.38-1.15l5.32-7.32c.38-.52,.98-.82,1.62-.82h9.32c.53,0,1.04,.21,1.42,.59s.58,.89,.58,1.42l-.66,156.56,10.36,58.3,12.4,53.16c.01,.05,.02,.1,.03,.15l5.76,37.69,6.65,44.34,5.33,41.28c.01,.08,.02,.17,.02,.26v131.69s0,.07,0,.1l-2.22,43.9-5.77,64.81c0,.05-.01,.11-.02,.16l-8.87,51.43-14.2,68.35s-.02,.1-.04,.14l-17.88,62.26-2,149.6c-.01,.82-.52,1.55-1.29,1.84l-9.31,3.55c-.23,.09-.47,.13-.71,.13Zm-4.2-23.56l5.52,18.92,6.02-2.29,1.98-148.51c0-.18,.03-.35,.08-.53l17.93-62.45,14.17-68.21,8.84-51.29,5.76-64.65,2.21-43.77v-131.51l-5.3-41.11-6.65-44.3-5.75-37.61-12.4-53.13s-.02-.07-.02-.1l-10.41-58.53c-.02-.12-.03-.24-.03-.36l.65-154.73h-6.29l-4.35,5.98-11.96,938.16Z"/>
  <polygon class="cls-4" points="791.29 876.69 804.26 899.64 820.22 919.59 839.17 942.53 859.13 972.46 882.07 999.4 888.06 672.18 894.04 32.7 866.11 39.69 842.67 42.68 799.27 36.69 799.27 161.4 791.29 190.33 771.34 251.18 760.36 293.08 750.39 372.89 745.4 465.67 745.4 591.37 757.37 726.05 777.32 792.89 793.28 838.78 791.29 876.69"/>
  <path d="M882.07,1001.4c-.58,0-1.13-.25-1.52-.7l-22.94-26.93c-.05-.06-.1-.12-.14-.19l-19.9-29.84-18.89-22.87-15.98-19.98c-.07-.08-.13-.17-.18-.26l-12.97-22.95c-.19-.33-.28-.71-.26-1.09l1.97-37.52-15.83-45.52-19.98-66.93c-.04-.13-.06-.26-.08-.4l-11.97-134.68c0-.06,0-.12,0-.18v-125.7s0-.07,0-.11l4.99-92.78s0-.09,.01-.14l9.98-79.81c.01-.09,.03-.17,.05-.26l10.97-41.9s.02-.08,.03-.12l19.95-60.85,7.88-28.58V36.69c0-.58,.25-1.13,.69-1.51,.44-.38,1.01-.55,1.59-.47l43.13,5.95,23.06-2.94,27.82-6.96c.6-.15,1.24-.01,1.72,.37,.49,.38,.77,.97,.76,1.59l-5.99,639.48-5.99,327.24c-.02,.83-.54,1.57-1.33,1.85-.22,.08-.45,.12-.67,.12Zm-21.34-30.14l19.44,22.82,5.89-321.94,5.96-636.87-25.42,6.36c-.08,.02-.15,.03-.23,.04l-23.44,2.99c-.17,.02-.35,.02-.53,0l-41.12-5.67v122.41c0,.18-.02,.36-.07,.53l-7.98,28.93-19.96,60.89-10.92,41.71-9.95,79.61-4.98,92.65v125.56l11.95,134.39,19.89,66.65,15.93,45.81c.09,.25,.12,.5,.11,.76l-1.96,37.33,12.6,22.3,15.86,19.83,18.93,22.92c.04,.05,.08,.11,.12,.16l19.89,29.83Z"/>
  <polygon class="cls-5" points="890.39 834.13 894.04 705.1 894.04 548.14 894.04 425.1 898.37 473.65 901.69 633.27 913 712.42 918.32 728.38 909.67 774.27 890.39 834.13"/>
  <polygon class="cls-3" points="885.73 180.85 885.73 40.68 877.1 69.28 861.47 91.89 830.21 113.84 807.92 127.81 807.92 157.09 885.73 180.85"/>
  <polygon class="cls-6" points="876.42 979.11 876.42 891.32 860.46 882.68 836.51 866.72 805.92 837.45 779.98 766.95 766.68 718.4 755.37 589.38 751.38 596.03 761.36 724.06 797.94 839.78 796.61 872.69 809.06 895.63 844.57 936.16 860.33 961.76 876.42 979.11"/>
  <polygon class="cls-4" points="40.08 987.43 203.69 972.46 335.37 955.5 471.05 941.54 604.73 934.55 671.57 929.57 671.57 827.81 663.59 675.17 655.61 596.36 652.62 463.68 660.6 318.02 664.59 203.3 665.59 134.46 663.59 40.68 572.81 40.68 445.11 40.68 318.42 40.68 221.65 40.68 112.9 32.7 35.08 31.7 36.09 133.46 46.06 299.07 52.05 399.83 54.05 537.5 57.04 710.09 53.05 882.74 40.08 987.43"/>
  <path d="M37.79,989.65l13.26-107.05,3.99-172.55-2.99-172.51-2-137.68-5.98-100.67-9.98-165.7-1.03-103.81,79.99,1.03,108.67,7.98h443.83l2.04,95.73-1,68.91-3.99,114.77-7.98,145.62,2.99,132.53,7.97,78.74,7.99,152.84v103.61l-68.69,5.12-133.68,6.98-135.62,13.96-131.64,16.95-166.16,15.2Zm.3-856.25l9.97,165.56,5.99,100.76,2,137.76,2.99,172.58-4,172.83v.1s-12.67,102.22-12.67,102.22l161.14-14.74,131.61-16.95,135.83-13.98,133.68-6.98,64.95-4.85v-99.85l-7.98-152.58-7.98-78.87-2.99-132.76v-.08s7.99-145.65,7.99-145.65l3.99-114.69,1-68.8-1.95-91.75H221.5s-108.68-7.98-108.68-7.98l-75.72-.97,.99,99.66Z"/>
  <path class="cls-6" d="M78.99,941.54l106.75-5.99,132.68-16.96,114.73-10.97,154.63-6.98,50.88-61.85-8.98-226.46-3.99-109.74-17.96,63.85-46.89,79.81s-83.8,87.79-86.79,89.79-148.65,90.78-148.65,90.78l-142.66,80.81-76.82,25.94-26.94,7.98Z"/>
  <polygon class="cls-6" points="78.99 911.61 82.98 705.73 87.96 558 87.96 416.93 78.99 253 70.01 158.64 70.01 99.54 50.05 99.54 54.05 163.4 69.01 258.72 78.99 405.5 78.99 556.09 69.01 708.59 78.99 911.61"/>
  <g id="Group_8" data-name="Group 8">
    <g class="cls-2">
      <g id="Group_8-2" data-name="Group 8-2">
        <path id="Path_1940" data-name="Path 1940" class="cls-7" d="M102.62,300.92l24.89-.27c3.13-.05,6.25,.24,9.32,.85,2.76,.53,5.39,1.59,7.75,3.11,2.26,1.49,4.09,3.53,5.33,5.93,1.43,2.92,2.14,6.14,2.07,9.38,.17,4.14-1.04,8.23-3.43,11.62-2.5,3.31-6.19,5.51-10.29,6.14l16.65,26.98-16.99,.18-13.72-25.55-6.97,.07,.27,25.69-14.2,.15-.69-64.3Zm14.45,26.46l8.35-.09c1.27-.01,2.6-.03,4.03-.18,1.32-.08,2.62-.37,3.85-.85,1.1-.47,2.05-1.22,2.76-2.18,.81-1.2,1.2-2.65,1.1-4.1,.06-1.37-.31-2.73-1.05-3.9-.65-.94-1.54-1.7-2.57-2.2-1.12-.53-2.32-.87-3.55-1-1.3-.16-2.6-.23-3.91-.22l-9.18,.1,.16,14.61Z"/>
        <path id="Path_1941" data-name="Path 1941" class="cls-7" d="M161.51,332.46c-.11-4.77,.72-9.51,2.44-13.96,1.58-4.05,4.01-7.71,7.1-10.75,3.13-3.02,6.85-5.36,10.92-6.89,8.99-3.25,18.81-3.36,27.86-.3,4.1,1.44,7.87,3.7,11.07,6.65,3.16,2.98,5.66,6.59,7.33,10.6,3.56,8.97,3.66,18.94,.3,27.98-1.59,4.04-4.01,7.71-7.1,10.75-3.14,3.01-6.85,5.35-10.92,6.87-8.98,3.27-18.81,3.38-27.86,.3-4.1-1.44-7.87-3.7-11.07-6.64-3.16-2.98-5.66-6.59-7.33-10.6-1.83-4.45-2.77-9.21-2.74-14.02m14.71-.16c-.01,2.85,.49,5.68,1.48,8.35,.92,2.42,2.31,4.64,4.11,6.51,1.8,1.84,3.97,3.28,6.36,4.24,5.31,2.01,11.18,1.94,16.44-.18,2.37-1.01,4.51-2.5,6.27-4.37,1.76-1.9,3.11-4.15,3.97-6.59,1.84-5.38,1.78-11.24-.18-16.58-.91-2.44-2.3-4.66-4.11-6.53-1.8-1.85-3.96-3.3-6.36-4.25-5.31-2.01-11.18-1.94-16.44,.18-2.37,1.01-4.51,2.5-6.27,4.39-1.76,1.91-3.11,4.17-3.97,6.62-.91,2.65-1.36,5.44-1.31,8.24"/>
        <path id="Path_1942" data-name="Path 1942" class="cls-7" d="M261.35,299.23l11.72-.12,28.66,64.01-15.98,.17-5.72-13.56-24.96,.27-5.2,13.67-15.62,.17,27.1-64.6Zm5.67,18.65l-7.6,20.06,15.72-.17-8.12-19.9Z"/>
        <path id="Path_1943" data-name="Path 1943" class="cls-7" d="M343.99,314.07c-1.23-1.49-2.86-2.59-4.7-3.18-1.79-.64-3.68-.97-5.59-.98-1.07,.02-2.13,.15-3.17,.4-1.08,.25-2.11,.65-3.08,1.18-.93,.5-1.74,1.21-2.35,2.07-.61,.91-.92,1.99-.88,3.09-.07,1.77,.77,3.44,2.23,4.44,1.7,1.13,3.56,2,5.52,2.58,2.22,.7,4.6,1.34,7.16,2.1,2.51,.68,4.92,1.7,7.17,3.02,2.23,1.32,4.12,3.13,5.55,5.29,1.6,2.71,2.39,5.83,2.27,8.98,.11,3.23-.53,6.44-1.89,9.37-1.25,2.61-3.07,4.9-5.34,6.69-2.34,1.83-5,3.18-7.86,3.99-6.93,1.98-14.28,1.84-21.13-.4-3.73-1.32-7.15-3.39-10.05-6.07l9.97-11.25c1.46,1.91,3.36,3.43,5.54,4.44,3.23,1.54,6.89,1.92,10.36,1.07,1.12-.26,2.19-.69,3.18-1.26,.9-.53,1.67-1.25,2.25-2.11,.57-.9,.86-1.94,.82-3,.05-1.8-.8-3.52-2.26-4.58-1.72-1.21-3.61-2.15-5.6-2.8-2.25-.76-4.68-1.52-7.3-2.28-2.55-.74-5-1.78-7.29-3.11-2.24-1.29-4.17-3.07-5.63-5.21-1.63-2.57-2.44-5.57-2.32-8.61-.1-3.15,.57-6.28,1.95-9.11,1.3-2.54,3.13-4.77,5.38-6.54,2.33-1.82,4.98-3.19,7.82-4.04,2.97-.91,6.05-1.38,9.15-1.41,3.57-.05,7.12,.44,10.55,1.43,3.42,.99,6.57,2.72,9.24,5.07l-9.65,10.74Z"/>
        <path id="Path_1944" data-name="Path 1944" class="cls-7" d="M381.3,310.49l-18.34,.2-.13-12.54,50.86-.54,.13,12.54-18.36,.2,.55,51.77-14.16,.15-.55-51.77Z"/>
        <path id="Path_1945" data-name="Path 1945" class="cls-7" d="M438.2,297.34l11.72-.12,28.66,64.01-15.98,.17-5.72-13.56-24.96,.27-5.2,13.67-15.64,.17,27.11-64.6Zm5.65,18.65l-7.59,20.06,15.71-.17-8.12-19.9Z"/>
        <path id="Path_1946" data-name="Path 1946" class="cls-7" d="M488.89,296.8l24.89-.27c3.13-.04,6.25,.24,9.32,.85,2.76,.53,5.39,1.59,7.75,3.11,2.26,1.49,4.09,3.53,5.33,5.93,1.43,2.92,2.13,6.14,2.05,9.38,.17,4.14-1.03,8.23-3.42,11.62-2.5,3.31-6.19,5.51-10.29,6.14l16.63,26.98-16.99,.18-13.71-25.55-6.97,.07,.27,25.69-14.2,.15-.69-64.3Zm14.45,26.46l8.36-.09c1.28-.01,2.62-.03,4.03-.18,1.32-.08,2.62-.37,3.85-.85,1.13-.46,2.11-1.21,2.84-2.18,.81-1.21,1.19-2.65,1.09-4.1,.05-1.37-.31-2.73-1.03-3.9-.65-.94-1.54-1.7-2.57-2.2-1.12-.53-2.32-.87-3.55-1-1.3-.16-2.6-.23-3.91-.22l-9.27,.1,.16,14.61Z"/>
        <path id="Path_1947" data-name="Path 1947" class="cls-9" d="M596.85,340.79l-5.82,13.68,7.75,12.22,25.23-15.28-27.16-10.62Z"/>
        <path id="Path_1948" data-name="Path 1948" class="cls-9" d="M582.17,344.15l14.16-3.63-6.76-28.86-18.63,22.7,11.22,9.79Z"/>
        <path id="Path_1949" data-name="Path 1949" class="cls-9" d="M583.96,366.08l-9.27,11.22,22.18,19.17,1.7-29.07-14.6-1.31Z"/>
        <path id="Path_1950" data-name="Path 1950" class="cls-9" d="M569.62,349.38l.93-14.77-29.43-2.48,15.89,24.8,12.61-7.55Z"/>
        <path id="Path_1951" data-name="Path 1951" class="cls-9" d="M570.72,362.95l-13.73-5.43-11.37,27.03,28.36-7.41-3.26-14.19Z"/>
        <path id="Path_1952" data-name="Path 1952" class="cls-8" d="M109.77,383.38l-6.27,.07-.03-3.18,16.18-.17,.03,3.18-6.27,.07,.18,17.28-3.65,.04-.18-17.28Z"/>
        <path id="Path_1953" data-name="Path 1953" class="cls-8" d="M129.55,379.98l3.65-.04,.09,8.26,9.56-.1-.09-8.26,3.65-.04,.22,20.46-3.65,.04-.1-9.07-9.57,.1,.1,9.07-3.65,.04-.21-20.46Z"/>
        <path id="Path_1954" data-name="Path 1954" class="cls-8" d="M158.45,379.68l13.55-.14,.03,3.18-9.91,.11,.06,5.2,9.39-.1,.03,3.06-9.39,.1,.06,5.78,10.43-.11,.03,3.24-14.07,.15-.22-20.46Z"/>
        <path id="Path_1955" data-name="Path 1955" class="cls-8" d="M195.95,379.28l3.99-.04,4.12,14.98h.06s4.35-15.07,4.35-15.07l3.76-.04,4.59,14.98h.06s3.88-15.07,3.88-15.07l3.87-.04-5.76,20.52-3.52,.04-4.96-15.29h-.06s-4.63,15.4-4.63,15.4l-3.52,.04-6.2-20.39Z"/>
        <path id="Path_1956" data-name="Path 1956" class="cls-8" d="M234.58,378.86l3.65-.04,.09,8.26,9.56-.1-.09-8.26,3.65-.04,.22,20.46-3.65,.04-.1-9.07-9.56,.1,.1,9.07-3.65,.04-.22-20.46Z"/>
        <path id="Path_1957" data-name="Path 1957" class="cls-8" d="M262.61,388.74c-.04-1.52,.22-3.03,.78-4.44,.5-1.28,1.27-2.43,2.25-3.39,.99-.95,2.16-1.69,3.45-2.17,1.4-.53,2.88-.8,4.37-.8,1.51-.03,3.01,.21,4.43,.71,1.3,.46,2.5,1.17,3.52,2.1,1.01,.93,1.8,2.07,2.33,3.34,.58,1.4,.88,2.91,.87,4.43,.04,1.5-.23,2.99-.78,4.39-.51,1.29-1.28,2.46-2.26,3.43-.99,.98-2.18,1.75-3.47,2.26-1.4,.56-2.9,.84-4.41,.84-1.5,.03-2.98-.22-4.39-.75-2.63-.97-4.73-2.99-5.81-5.57-.58-1.38-.87-2.87-.87-4.37m3.96-.04c0,1.03,.18,2.05,.54,3.01,.33,.88,.83,1.69,1.47,2.37,.63,.67,1.4,1.2,2.24,1.55,.9,.37,1.87,.56,2.85,.53,.98,0,1.96-.2,2.86-.59,.84-.37,1.6-.92,2.22-1.6,.63-.7,1.11-1.51,1.42-2.4,.34-.97,.5-2,.47-3.02,0-1-.18-2-.54-2.94-.33-.87-.82-1.67-1.46-2.35-.63-.67-1.39-1.21-2.24-1.57-.92-.38-1.9-.57-2.9-.55-.99,0-1.97,.2-2.87,.61-.84,.38-1.58,.93-2.2,1.61-.62,.7-1.1,1.51-1.41,2.38-.33,.95-.49,1.95-.47,2.95"/>
        <path id="Path_1958" data-name="Path 1958" class="cls-8" d="M295.56,378.21l3.65-.04,.18,17.22,8.7-.09,.03,3.24-12.34,.13-.22-20.46Z"/>
        <path id="Path_1959" data-name="Path 1959" class="cls-8" d="M317.86,377.98l13.55-.14,.03,3.18-9.91,.11,.06,5.2,9.39-.1,.03,3.06-9.39,.1,.06,5.78,10.43-.11,.03,3.24-14.07,.15-.22-20.46Z"/>
        <path id="Path_1960" data-name="Path 1960" class="cls-8" d="M357.79,377.55l6.67-.07c1.07-.02,2.13,.07,3.18,.28,.87,.17,1.7,.52,2.44,1.02,.67,.47,1.22,1.1,1.58,1.83,.4,.85,.59,1.77,.58,2.71,.04,.99-.16,1.98-.6,2.87-.4,.76-.99,1.41-1.7,1.88-.77,.5-1.62,.86-2.52,1.05-1,.23-2.03,.34-3.06,.35l-2.8,.03,.09,8.46-3.65,.04-.22-20.46Zm6.28,8.86c.57,0,1.14-.05,1.7-.15,.5-.08,.99-.24,1.44-.48,.41-.21,.75-.53,1-.92,.26-.46,.39-.98,.36-1.51,.05-.99-.5-1.91-1.4-2.33-.45-.22-.93-.35-1.42-.4-.54-.06-1.09-.09-1.63-.08l-2.66,.03,.06,5.86,2.54-.02Z"/>
        <path id="Path_1961" data-name="Path 1961" class="cls-8" d="M387.64,377.23l3.15-.03,9.03,20.36-4.17,.04-1.96-4.67-8.87,.09-1.8,4.71-4.07,.04,8.68-20.55Zm4.76,12.61l-3.24-8.29-3.12,8.36,6.36-.07Z"/>
        <path id="Path_1962" data-name="Path 1962" class="cls-8" d="M423.46,381.65c-.54-.72-1.28-1.27-2.13-1.58-1.76-.68-3.71-.63-5.43,.13-.84,.38-1.6,.93-2.22,1.61-.63,.69-1.11,1.5-1.42,2.38-.33,.95-.49,1.95-.47,2.95,0,1.04,.18,2.08,.52,3.06,.31,.88,.8,1.68,1.43,2.37,.62,.66,1.37,1.18,2.2,1.52,.91,.37,1.89,.55,2.87,.52,1.01,0,2.01-.23,2.91-.68,.81-.41,1.5-1.01,2.03-1.74l2.94,2.02c-.88,1.13-2.01,2.05-3.29,2.68-1.43,.67-3,1.01-4.58,.99-1.51,.03-3-.22-4.41-.75-2.62-.97-4.71-2.99-5.77-5.57-.57-1.39-.86-2.87-.86-4.37-.04-1.52,.24-3.03,.81-4.44,.52-1.28,1.31-2.44,2.31-3.39,1.01-.95,2.19-1.69,3.49-2.18,1.4-.53,2.89-.8,4.38-.8,.69,0,1.37,.05,2.05,.16,.7,.12,1.39,.3,2.06,.56,.65,.25,1.28,.57,1.86,.95,.57,.37,1.07,.83,1.49,1.37l-2.76,2.23Z"/>
        <path id="Path_1963" data-name="Path 1963" class="cls-8" d="M436.3,376.71l3.65-.04,.09,8.84h.09s8.45-8.93,8.45-8.93l4.91-.05-9.46,9.55,10.32,10.9-5.11,.05-9.09-10.16h-.09s.11,10.26,.11,10.26l-3.65,.04-.21-20.46Z"/>
        <path id="Path_1964" data-name="Path 1964" class="cls-8" d="M469.82,376.36l3.15-.03,9.03,20.36-4.17,.04-1.96-4.67-8.87,.09-1.8,4.71-4.07,.04,8.68-20.55Zm4.76,12.61l-3.24-8.29-3.12,8.36,6.36-.07Z"/>
        <path id="Path_1965" data-name="Path 1965" class="cls-8" d="M508.95,395.33c-1.09,.53-2.23,.94-3.41,1.21-1.41,.31-2.85,.47-4.29,.47-1.55,.04-3.09-.22-4.54-.75-1.32-.48-2.52-1.23-3.55-2.19-1-.96-1.8-2.11-2.33-3.39-.58-1.38-.87-2.87-.87-4.37-.04-1.52,.24-3.03,.81-4.44,.52-1.28,1.31-2.44,2.31-3.39,1.01-.95,2.19-1.69,3.49-2.18,1.4-.53,2.89-.8,4.38-.8,1.53-.03,3.05,.19,4.5,.66,1.21,.37,2.34,1,3.3,1.83l-2.49,2.74c-.62-.64-1.37-1.13-2.2-1.45-.97-.4-2.01-.59-3.05-.57-1.01,0-2.01,.2-2.93,.61-.85,.38-1.6,.93-2.22,1.61-.62,.7-1.1,1.51-1.41,2.38-.34,.95-.5,1.95-.48,2.95,0,1.03,.18,2.05,.54,3.01,.33,.88,.83,1.69,1.47,2.37,.65,.68,1.43,1.21,2.3,1.55,.97,.38,2.01,.56,3.06,.53,1.39,.02,2.77-.24,4.07-.77l-.06-5.2-4.3,.05-.03-3.01,7.83-.08,.11,10.6Z"/>
        <path id="Path_1966" data-name="Path 1966" class="cls-8" d="M520.7,375.81l13.55-.14,.03,3.18-9.91,.11,.06,5.2,9.39-.1,.03,3.06-9.39,.1,.06,5.78,10.43-.11,.03,3.24-14.07,.15-.22-20.46Z"/>
      </g>
    </g>
  </g>
  <g id="Group_8-2" data-name="Group 8">
    <g class="cls-10">
      <g id="Group_8-2-2" data-name="Group 8-2">
        <path id="Path_1940-2" data-name="Path 1940" class="cls-7" d="M816.16,794.8l-.13-12.17c-.02-1.53,.12-3.06,.42-4.56,.26-1.35,.78-2.64,1.52-3.79,.73-1.1,1.73-2,2.9-2.61,1.43-.7,3-1.05,4.59-1.01,2.03-.08,4.03,.51,5.68,1.68,1.62,1.22,2.7,3.03,3.01,5.03l13.2-8.14,.09,8.31-12.5,6.71,.04,3.41,12.57-.13,.07,6.95-31.46,.34Zm12.95-7.07l-.04-4.09c0-.62-.01-1.27-.09-1.97-.04-.65-.18-1.28-.42-1.88-.23-.54-.6-1-1.06-1.35-.59-.4-1.29-.59-2-.54-.67-.03-1.34,.15-1.91,.51-.46,.32-.83,.75-1.08,1.26-.26,.55-.42,1.13-.49,1.74-.08,.63-.11,1.27-.11,1.91l.05,4.49,7.15-.08Z"/>
        <path id="Path_1941-2" data-name="Path 1941" class="cls-7" d="M831.59,765.99c-2.33,.05-4.65-.35-6.83-1.2-1.98-.77-3.77-1.96-5.26-3.48-1.48-1.53-2.62-3.35-3.37-5.34-1.59-4.4-1.64-9.2-.15-13.63,.7-2.01,1.81-3.85,3.25-5.41,1.46-1.55,3.22-2.77,5.19-3.59,4.39-1.74,9.26-1.79,13.69-.15,1.98,.78,3.77,1.96,5.26,3.48,1.47,1.53,2.62,3.35,3.36,5.34,1.6,4.39,1.65,9.2,.15,13.63-.7,2.01-1.81,3.85-3.25,5.41-1.46,1.55-3.22,2.77-5.19,3.59-2.17,.9-4.51,1.35-6.86,1.34m-.08-7.2c1.39,0,2.78-.24,4.08-.73,1.19-.45,2.27-1.13,3.18-2.01,.9-.88,1.61-1.94,2.07-3.11,.98-2.6,.95-5.47-.09-8.04-.49-1.16-1.22-2.21-2.14-3.07-.93-.86-2.03-1.52-3.23-1.94-2.63-.9-5.5-.87-8.11,.09-1.19,.44-2.28,1.13-3.2,2.01-.9,.88-1.61,1.94-2.08,3.11-.98,2.6-.95,5.47,.09,8.04,.49,1.16,1.22,2.21,2.15,3.07,.94,.86,2.04,1.52,3.24,1.94,1.3,.45,2.66,.66,4.03,.64"/>
        <path id="Path_1942-2" data-name="Path 1942" class="cls-7" d="M815.34,717.15l-.06-5.73,31.31-14.02,.08,7.82-6.63,2.8,.13,12.21,6.69,2.55,.08,7.64-31.6-13.26Zm9.13-2.77l9.82,3.72-.08-7.69-9.73,3.97Z"/>
        <path id="Path_1943-2" data-name="Path 1943" class="cls-7" d="M822.6,676.72c-.73,.6-1.27,1.4-1.56,2.3-.31,.88-.48,1.8-.48,2.73,0,.52,.07,1.04,.19,1.55,.12,.53,.32,1.03,.58,1.51,.24,.46,.59,.85,1.01,1.15,.45,.3,.97,.45,1.51,.43,.86,.03,1.68-.38,2.17-1.09,.55-.83,.98-1.74,1.26-2.7,.34-1.09,.66-2.25,1.03-3.5,.33-1.23,.83-2.41,1.48-3.51,.65-1.09,1.53-2.02,2.59-2.71,1.33-.78,2.85-1.17,4.39-1.11,1.58-.06,3.15,.26,4.58,.93,1.28,.61,2.4,1.5,3.27,2.61,.89,1.14,1.56,2.45,1.95,3.84,.97,3.39,.9,6.99-.2,10.34-.65,1.82-1.66,3.5-2.97,4.92l-5.51-4.88c.93-.71,1.68-1.64,2.17-2.71,.75-1.58,.94-3.37,.53-5.07-.13-.55-.34-1.07-.62-1.55-.26-.44-.61-.82-1.03-1.1-.44-.28-.95-.42-1.47-.4-.88-.02-1.72,.39-2.24,1.11-.59,.84-1.05,1.76-1.37,2.74-.37,1.1-.75,2.29-1.11,3.57-.36,1.25-.87,2.45-1.52,3.57-.63,1.1-1.5,2.04-2.55,2.75-1.26,.8-2.72,1.19-4.21,1.14-1.54,.05-3.07-.28-4.46-.95-1.24-.63-2.34-1.53-3.2-2.63-.89-1.14-1.56-2.44-1.98-3.82-.44-1.45-.68-2.96-.69-4.48-.02-1.75,.21-3.48,.7-5.16,.48-1.67,1.33-3.21,2.48-4.52l5.25,4.72Z"/>
        <path id="Path_1944-2" data-name="Path 1944" class="cls-7" d="M820.85,658.46l.1,8.97-6.13,.07-.27-24.88,6.13-.07,.1,8.98,25.33-.27,.07,6.93-25.33,.27Z"/>
        <path id="Path_1945-2" data-name="Path 1945" class="cls-7" d="M814.41,630.63l-.06-5.73,31.31-14.02,.08,7.82-6.63,2.8,.13,12.21,6.69,2.55,.08,7.65-31.6-13.26Zm9.13-2.76l9.82,3.71-.08-7.69-9.73,3.97Z"/>
        <path id="Path_1946-2" data-name="Path 1946" class="cls-7" d="M814.15,605.83l-.13-12.17c-.02-1.53,.12-3.06,.42-4.56,.26-1.35,.78-2.64,1.52-3.79,.73-1.1,1.73-2,2.9-2.61,1.43-.7,3-1.04,4.59-1,2.03-.08,4.02,.5,5.68,1.67,1.62,1.22,2.7,3.03,3.01,5.03l13.2-8.14,.09,8.31-12.5,6.71,.04,3.41,12.57-.13,.07,6.95-31.46,.34Zm12.95-7.07l-.04-4.09c0-.63-.01-1.28-.09-1.97-.04-.65-.18-1.28-.42-1.88-.22-.55-.59-1.03-1.06-1.39-.59-.4-1.3-.58-2-.53-.67-.03-1.34,.15-1.91,.5-.46,.32-.83,.75-1.08,1.26-.26,.55-.42,1.13-.49,1.74-.08,.63-.11,1.27-.11,1.91l.05,4.53,7.15-.08Z"/>
        <path id="Path_1947-2" data-name="Path 1947" class="cls-9" d="M835.67,553.01l6.69,2.85,5.98-3.79-7.47-12.34-5.2,13.29Z"/>
        <path id="Path_1948-2" data-name="Path 1948" class="cls-9" d="M837.31,560.19l-1.78-6.93-14.12,3.31,11.11,9.11,4.79-5.49Z"/>
        <path id="Path_1949-2" data-name="Path 1949" class="cls-9" d="M848.04,559.32l5.49,4.54,9.38-10.85-14.22-.83-.64,7.14Z"/>
        <path id="Path_1950-2" data-name="Path 1950" class="cls-9" d="M839.87,566.33l-7.22-.45-1.21,14.4,12.13-7.77-3.7-6.17Z"/>
        <path id="Path_1951-2" data-name="Path 1951" class="cls-9" d="M846.51,565.79l-2.66,6.72,13.22,5.56-3.62-13.87-6.94,1.59Z"/>
        <path id="Path_1952-2" data-name="Path 1952" class="cls-8" d="M856.5,791.3l.03,3.07-1.55,.02-.08-7.92,1.55-.02,.03,3.07,8.45-.09,.02,1.78-8.45,.09Z"/>
        <path id="Path_1953-2" data-name="Path 1953" class="cls-8" d="M854.84,781.62l-.02-1.78,4.04-.04-.05-4.68-4.04,.04-.02-1.78,10.01-.11,.02,1.78-4.44,.05,.05,4.68,4.44-.05,.02,1.78-10.01,.1Z"/>
        <path id="Path_1954-2" data-name="Path 1954" class="cls-8" d="M854.69,767.49l-.07-6.63,1.55-.02,.05,4.85,2.54-.03-.05-4.59,1.5-.02,.05,4.59,2.83-.03-.05-5.1,1.58-.02,.07,6.88-10.01,.11Z"/>
        <path id="Path_1955-2" data-name="Path 1955" class="cls-8" d="M854.5,749.14l-.02-1.95,7.33-2.01v-.03s-7.37-2.13-7.37-2.13l-.02-1.84,7.33-2.24v-.03s-7.37-1.9-7.37-1.9l-.02-1.89,10.04,2.82,.02,1.72-7.48,2.43v.03s7.53,2.27,7.53,2.27l.02,1.72-9.98,3.03Z"/>
        <path id="Path_1956-2" data-name="Path 1956" class="cls-8" d="M854.3,730.24l-.02-1.78,4.04-.04-.05-4.68-4.04,.04-.02-1.78,10.01-.11,.02,1.78-4.44,.05,.05,4.68,4.44-.05,.02,1.78-10.01,.11Z"/>
        <path id="Path_1957-2" data-name="Path 1957" class="cls-8" d="M859.12,716.53c-.74,.02-1.48-.11-2.17-.38-.62-.25-1.19-.62-1.66-1.1-.47-.48-.83-1.06-1.06-1.69-.26-.68-.39-1.41-.39-2.14-.02-.74,.1-1.47,.35-2.17,.22-.64,.57-1.22,1.03-1.72,.46-.49,1.01-.88,1.64-1.14,.69-.28,1.42-.43,2.17-.43,.73-.02,1.46,.11,2.15,.38,.63,.25,1.2,.63,1.68,1.11,.48,.49,.86,1.06,1.11,1.7,.27,.69,.41,1.42,.41,2.16,.01,.73-.11,1.46-.37,2.15-.47,1.29-1.46,2.31-2.73,2.84-.68,.28-1.4,.43-2.14,.43m-.02-1.94c.5,0,1-.09,1.47-.26,.43-.16,.82-.4,1.16-.72,.33-.31,.58-.68,.76-1.1,.18-.44,.27-.92,.26-1.39,0-.48-.1-.96-.29-1.4-.18-.41-.45-.78-.78-1.09-.34-.31-.74-.54-1.17-.69-.48-.16-.98-.24-1.48-.23-.49,0-.98,.09-1.44,.26-.43,.16-.82,.4-1.15,.71-.33,.31-.59,.68-.77,1.1-.19,.45-.28,.93-.27,1.42,0,.48,.1,.96,.3,1.4,.19,.41,.45,.77,.79,1.07,.34,.3,.74,.54,1.17,.69,.46,.16,.95,.24,1.44,.23"/>
        <path id="Path_1958-2" data-name="Path 1958" class="cls-8" d="M853.98,700.41l-.02-1.78,8.43-.09-.05-4.25,1.58-.02,.06,6.04-10.01,.11Z"/>
        <path id="Path_1959-2" data-name="Path 1959" class="cls-8" d="M853.86,689.5l-.07-6.63,1.55-.02,.05,4.85,2.54-.03-.05-4.59,1.5-.02,.05,4.59,2.83-.03-.05-5.1,1.58-.02,.07,6.88-10.01,.11Z"/>
        <path id="Path_1960-2" data-name="Path 1960" class="cls-8" d="M853.65,669.96l-.03-3.27c-.01-.52,.04-1.04,.14-1.56,.08-.43,.25-.83,.5-1.19,.23-.33,.54-.6,.9-.77,.41-.19,.87-.29,1.33-.28,.49-.02,.97,.08,1.4,.3,.37,.2,.69,.48,.92,.83,.25,.38,.42,.79,.52,1.23,.11,.49,.17,.99,.17,1.5v1.37s4.15-.04,4.15-.04l.02,1.78-10.01,.11Zm4.34-3.07c0-.28-.03-.56-.07-.83-.04-.25-.12-.48-.23-.7-.11-.2-.26-.37-.45-.49-.22-.13-.48-.19-.74-.18-.48-.03-.93,.24-1.14,.68-.11,.22-.17,.45-.2,.7-.03,.27-.04,.53-.04,.8v1.3s2.88-.03,2.88-.03v-1.24Z"/>
        <path id="Path_1961-2" data-name="Path 1961" class="cls-8" d="M853.5,655.36l-.02-1.54,9.96-4.42,.02,2.04-2.28,.96,.05,4.34,2.3,.88,.02,1.99-10.05-4.25Zm6.17-2.33l-4.06,1.58,4.09,1.52-.03-3.11Z"/>
        <path id="Path_1962-2" data-name="Path 1962" class="cls-8" d="M855.66,637.84c-.35,.26-.62,.63-.77,1.04-.33,.86-.31,1.82,.06,2.66,.19,.41,.46,.78,.79,1.09,.34,.31,.74,.54,1.17,.69,.46,.16,.95,.24,1.44,.23,.51,0,1.02-.09,1.5-.26,.43-.15,.82-.39,1.16-.7,.32-.3,.58-.67,.74-1.08,.18-.45,.27-.92,.25-1.4,0-.49-.11-.98-.33-1.42-.2-.39-.49-.74-.85-.99l.99-1.44c.55,.43,1,.98,1.31,1.61,.33,.7,.49,1.47,.48,2.24,.02,.74-.11,1.47-.37,2.16-.47,1.28-1.46,2.3-2.73,2.82-.68,.28-1.4,.42-2.14,.42-.74,.02-1.48-.12-2.17-.39-.63-.26-1.19-.64-1.66-1.13-.47-.49-.83-1.07-1.06-1.71-.26-.69-.39-1.41-.39-2.14,0-.34,.02-.67,.08-1,.06-.34,.15-.68,.27-1.01,.12-.32,.28-.62,.46-.91,.18-.28,.41-.53,.67-.73l1.09,1.35Z"/>
        <path id="Path_1963-2" data-name="Path 1963" class="cls-8" d="M853.24,631.56l-.02-1.78,4.33-.05v-.04s-4.37-4.13-4.37-4.13l-.03-2.4,4.67,4.63,5.33-5.05,.03,2.5-4.97,4.45v.04s5.02-.05,5.02-.05l.02,1.78-10.01,.1Z"/>
        <path id="Path_1964-2" data-name="Path 1964" class="cls-8" d="M853.07,615.16l-.02-1.54,9.96-4.42,.02,2.04-2.28,.96,.05,4.34,2.3,.88,.02,1.99-10.05-4.25Zm6.17-2.33l-4.06,1.58,4.09,1.52-.03-3.11Z"/>
        <path id="Path_1965-2" data-name="Path 1965" class="cls-8" d="M862.35,596.01c.26,.53,.46,1.09,.59,1.67,.15,.69,.23,1.39,.23,2.1,.02,.76-.11,1.51-.37,2.22-.24,.64-.6,1.24-1.07,1.74-.47,.49-1.03,.88-1.66,1.14-.68,.28-1.4,.43-2.14,.43-.74,.02-1.48-.12-2.17-.39-.63-.26-1.19-.64-1.66-1.13-.47-.49-.83-1.07-1.06-1.71-.26-.69-.39-1.41-.39-2.14-.02-.75,.09-1.49,.32-2.2,.18-.59,.49-1.14,.89-1.61l1.34,1.22c-.31,.3-.55,.67-.71,1.08-.2,.47-.29,.98-.28,1.49,0,.49,.1,.98,.3,1.43,.18,.41,.45,.78,.79,1.09,.34,.3,.74,.54,1.17,.69,.46,.16,.95,.24,1.44,.23,.5,0,1-.09,1.47-.26,.43-.16,.82-.4,1.16-.72,.33-.32,.59-.7,.76-1.12,.19-.48,.27-.98,.26-1.49,0-.68-.12-1.36-.37-1.99l-2.54,.03,.02,2.1-1.47,.02-.04-3.83,5.19-.05Z"/>
        <path id="Path_1966-2" data-name="Path 1966" class="cls-8" d="M852.8,590.26l-.07-6.63,1.55-.02,.05,4.85,2.54-.03-.05-4.59,1.5-.02,.05,4.59,2.83-.03-.05-5.1,1.58-.02,.07,6.89-10.01,.11Z"/>
      </g>
    </g>
  </g>
</svg>