<svg width="19" height="19" viewBox="0 0 19 19" fill="none" xmlns="http://www.w3.org/2000/svg">
<path d="M7.84473 4.37354C8.77637 4.37354 9.53223 3.61768 9.53223 2.68604C9.53223 1.75439 8.77637 0.998535 7.84473 0.998535C6.91309 0.998535 6.15723 1.75439 6.15723 2.68604C6.15723 3.61768 6.91309 4.37354 7.84473 4.37354ZM11.7822 9.99854C13.0232 9.99854 14.0322 8.98955 14.0322 7.74854C14.0322 6.50752 13.0232 5.49854 11.7822 5.49854C10.5412 5.49854 9.53223 6.50752 9.53223 7.74854C9.53223 8.98955 10.5412 9.99854 11.7822 9.99854ZM15.1572 2.12354C15.1572 1.50127 14.6545 0.998535 14.0322 0.998535C13.41 0.998535 12.9072 1.50127 12.9072 2.12354C12.9072 2.7458 13.41 3.24854 14.0322 3.24854C14.6545 3.24854 15.1572 2.7458 15.1572 2.12354ZM15.1572 7.74854C15.1572 8.71885 14.7459 9.59424 14.0885 10.213C15.3717 10.6911 16.2822 11.9251 16.2822 13.3735C16.2822 15.2368 14.7705 16.7485 12.9072 16.7485H6.15723C4.29395 16.7485 2.78223 15.2368 2.78223 13.3735C2.78223 11.5103 4.29395 9.99854 6.15723 9.99854H9.26504C8.73066 9.40088 8.40723 8.61338 8.40723 7.74854H3.90723C2.04395 7.74854 0.532227 9.26025 0.532227 11.1235V15.6235C0.532227 17.4868 2.04395 18.9985 3.90723 18.9985H15.1572C17.0205 18.9985 18.5322 17.4868 18.5322 15.6235V11.1235C18.5322 9.26025 17.0205 7.74854 15.1572 7.74854ZM6.15723 11.1235C4.91621 11.1235 3.90723 12.1325 3.90723 13.3735C3.90723 14.6146 4.91621 15.6235 6.15723 15.6235H12.9072C14.1482 15.6235 15.1572 14.6146 15.1572 13.3735C15.1572 12.1325 14.1482 11.1235 12.9072 11.1235H11.7822H6.15723Z" fill="#101820"/>
</svg>
