<svg width="17" height="17" viewBox="0 0 17 17" fill="none" xmlns="http://www.w3.org/2000/svg">
<path d="M4.96719 7.78287C5.66113 7.56041 6.40156 7.43756 7.17188 7.43756H9.82812C10.2697 7.43756 10.625 7.79283 10.625 8.23443C10.625 8.67603 10.2697 9.03131 9.82812 9.03131H7.17188C6.32852 9.03131 5.52832 9.21725 4.81445 9.5526C5.07012 11.6544 6.85977 13.2813 9.02793 13.2813H9.03125H9.05781H9.06113C12.2918 13.2647 15.4062 9.95103 15.4062 5.19967C15.4062 4.77467 15.3797 4.35963 15.3299 3.95455C14.5098 4.47916 13.5336 4.78131 12.4844 4.78131H9.03125C7.11875 4.78131 5.50176 6.04635 4.96719 7.78287ZM3.20078 8.63619C3.40332 5.59478 5.93672 3.18756 9.03125 3.18756H12.4844C13.4373 3.18756 14.3039 2.82896 14.9613 2.24127C14.9846 2.22135 15.0078 2.1981 15.0311 2.17818C15.2502 1.97232 15.4461 1.7399 15.6088 1.48424C15.6619 1.40123 15.715 1.3149 15.7615 1.22525C15.8777 1.00943 16.2131 0.999472 16.2994 1.22857C16.3426 1.34478 16.3824 1.461 16.4223 1.58053C16.5186 1.87603 16.6049 2.17486 16.6812 2.48365C16.6979 2.54674 16.7111 2.60982 16.7244 2.66959C16.9037 3.47642 17 4.3231 17 5.19967C17 10.5288 13.4506 14.8518 9.06445 14.8751H9.03125C6.31855 14.8751 4.0375 13.0256 3.38008 10.5188C2.28105 11.5381 1.59375 12.9924 1.59375 14.6094V15.1407C1.59375 15.5823 1.23848 15.9376 0.796875 15.9376C0.355273 15.9376 0 15.5823 0 15.1407V14.6094C0 12.1159 1.27168 9.92115 3.20078 8.63619Z" fill="#0080A3"/>
</svg>
