<svg width="72" height="35" viewBox="0 0 72 35" fill="none" xmlns="http://www.w3.org/2000/svg">
<path d="M0.481511 3.75697C1.87638 6.83109 3.13562 9.97073 4.30672 13.1361C4.86416 14.6463 5.45309 16.1537 5.9636 17.6812C6.38818 18.9569 6.59375 21.1151 7.8083 21.8963C7.89961 21.9571 8.01099 21.9801 8.11893 21.9604C8.22688 21.9407 8.32294 21.8798 8.38684 21.7906C9.14032 20.5836 8.43916 18.703 8.17104 17.4238C7.81198 15.7065 7.47561 13.9976 7.00792 12.3049C6.56547 10.689 6.05603 9.10053 5.50654 7.52351C11.3716 15.125 18.0847 22.8189 27.8022 25.0621C31.6458 26.0316 35.6879 25.8671 39.44 24.5887C40.4597 25.8935 41.5995 27.0998 42.8444 28.1918C46.7322 31.5736 51.589 33.6406 56.7215 34.0975C61.4602 34.5332 67.0709 33.7289 70.8586 30.6487C71.1765 30.3896 70.9335 29.775 70.5068 29.8889C66.736 30.8893 63.1362 31.8415 59.1933 31.7067C55.36 31.5982 51.6137 30.5399 48.2902 28.6267C45.937 27.2319 43.8501 25.4305 42.1266 23.3063C45.1087 21.448 47.3984 18.6622 48.644 15.3767C49.3795 13.5856 49.6943 11.6498 49.5643 9.71797C49.4343 7.78618 48.8628 5.90997 47.8939 4.23367C47.3074 3.18974 46.4967 2.28881 45.5203 1.59573C44.5438 0.902651 43.4258 0.434658 42.2468 0.225436C41.1787 0.129033 40.1028 0.28344 39.1048 0.676354C38.1069 1.06927 37.2145 1.68984 36.4988 2.4886C33.0858 6.107 33.7046 11.7938 35.0431 16.1713C35.6604 18.1869 36.5215 20.1196 37.6074 21.9265C34.8816 22.6982 32.0093 22.7968 29.2371 22.2137C19.9455 20.4095 13.5519 12.8939 7.99828 5.70086C9.20521 5.89425 10.4187 6.08607 11.6312 6.27214L16.3049 6.98821C17.9538 7.39255 19.6672 7.4598 21.3427 7.18593C22.3222 6.92644 22.8407 5.54842 21.8419 4.92314C20.3485 4.14797 18.7129 3.68516 17.0348 3.56293C15.4064 3.31074 13.776 3.07329 12.1502 2.83198C8.82122 2.33197 5.4932 1.83771 2.15738 1.38394C1.86681 1.36344 1.57587 1.41829 1.31272 1.54318C1.04956 1.66808 0.823098 1.85879 0.655254 2.09686C0.487404 2.33493 0.383855 2.61229 0.354625 2.90211C0.325394 3.19193 0.371477 3.4844 0.488405 3.75119M39.774 19.827C37.86 16.3242 36.4683 11.9052 37.1419 7.88082C37.2478 6.98274 37.5696 6.12367 38.0799 5.37704C38.5901 4.63041 39.2735 4.01843 40.0717 3.59342C41.7796 2.81259 43.4595 3.62225 44.5991 4.96116C45.5538 6.20342 46.1742 7.66962 46.4011 9.21984C46.6281 10.7701 46.4539 12.3526 45.8953 13.8164C44.9338 16.7294 42.9574 19.1999 40.3264 20.7774C40.1356 20.4662 39.9501 20.1519 39.7751 19.8313" fill="#221F1F"/>
</svg>
