<svg width="50" height="50" viewBox="0 0 50 50" fill="none" xmlns="http://www.w3.org/2000/svg">
<g clip-path="url(#clip0_65_1285)">
<path d="M45 37H17V45H45V37Z" fill="#E6D4D9"/>
<mask id="mask0_65_1285" style="mask-type:luminance" maskUnits="userSpaceOnUse" x="0" y="0" width="50" height="50">
<path d="M50 0H0V50H50V0Z" fill="white"/>
</mask>
<g mask="url(#mask0_65_1285)">
<path d="M0.781001 42.188C0.678354 42.188 0.576714 42.1678 0.481894 42.1285C0.387073 42.0891 0.300932 42.0315 0.228396 41.9589C0.155861 41.8863 0.0983535 41.8001 0.0591635 41.7052C0.0199734 41.6103 -0.000130789 41.5086 6.40263e-07 41.406V3.906C0.00132366 2.87047 0.413272 1.87773 1.1455 1.1455C1.87773 0.413272 2.87047 0.00132302 3.906 0L14.844 0C15.0513 0 15.25 0.0823364 15.3966 0.228896C15.5432 0.375456 15.6255 0.574233 15.6255 0.7815C15.6255 0.988767 15.5432 1.18754 15.3966 1.3341C15.25 1.48066 15.0513 1.563 14.844 1.563H3.906C3.28492 1.56406 2.68959 1.81125 2.25042 2.25042C1.81125 2.68959 1.56406 3.28492 1.563 3.906V41.406C1.563 41.6131 1.48072 41.8118 1.33425 41.9583C1.18779 42.1047 0.989135 42.187 0.782001 42.187" fill="#101820"/>
<path d="M1.82617 37.3169C1.6969 37.3171 1.56967 37.2848 1.45617 37.2229C1.3658 37.1744 1.28589 37.1085 1.221 37.029C1.15611 36.9495 1.10751 36.8581 1.07798 36.7598C1.04845 36.6616 1.03856 36.5585 1.04889 36.4564C1.05922 36.3543 1.08955 36.2553 1.13817 36.1649C1.19717 36.0469 1.22417 35.9909 1.25617 35.9349L19.6152 4.13495C19.8716 3.69053 20.2131 3.30099 20.6201 2.98858C21.0272 2.67618 21.4918 2.44704 21.9874 2.31424C22.483 2.18144 23 2.1476 23.5087 2.21463C24.0174 2.28167 24.5079 2.44828 24.9522 2.70495L34.4252 8.17395C34.6046 8.27751 34.7355 8.44811 34.7892 8.64821C34.8428 8.84832 34.8147 9.06153 34.7112 9.24095C34.6076 9.42037 34.437 9.55129 34.2369 9.60493C34.0368 9.65857 33.8236 9.63051 33.6442 9.52695L24.1722 4.05995C23.634 3.74947 22.9946 3.66544 22.3945 3.82634C21.7944 3.98724 21.2828 4.37989 20.9722 4.91795L2.51517 36.9059C2.44824 37.0304 2.34881 37.1343 2.22747 37.2067C2.10614 37.2791 1.96745 37.3172 1.82617 37.3169Z" fill="#101820"/>
<path d="M4.86841 34.1001C4.69818 34.1006 4.53243 34.0455 4.3964 33.9431C4.26037 33.8408 4.1615 33.6968 4.11485 33.5331C4.06821 33.3693 4.07633 33.1949 4.13799 33.0362C4.19964 32.8775 4.31146 32.7433 4.45641 32.6541C4.57541 32.5751 4.62941 32.5391 4.68841 32.5051L36.4884 14.1461C37.3862 13.63 38.4519 13.4908 39.4521 13.759C40.4523 14.0273 41.3053 14.681 41.8244 15.5771L47.2934 25.0481C47.3489 25.1371 47.3859 25.2364 47.4022 25.3401C47.4185 25.4437 47.4138 25.5496 47.3883 25.6514C47.3628 25.7532 47.3171 25.8488 47.2539 25.9326C47.1907 26.0163 47.1113 26.0865 47.0204 26.1389C46.9295 26.1914 46.829 26.225 46.7248 26.2377C46.6207 26.2505 46.515 26.2422 46.4142 26.2133C46.3133 26.1844 46.2193 26.1354 46.1377 26.0694C46.0562 26.0034 45.9887 25.9217 45.9394 25.8291L40.4704 16.3581C40.1599 15.8198 39.6484 15.427 39.0483 15.2659C38.4482 15.1048 37.8087 15.1887 37.2704 15.4991L5.27741 33.9861C5.15451 34.062 5.01288 34.1022 4.86841 34.1021" fill="#101820"/>
<path d="M46.094 50H9.375C6.8886 50 4.50403 49.0123 2.74587 47.2541C0.98772 45.496 0 43.1114 0 40.625C0 38.1386 0.98772 35.754 2.74587 33.9959C4.50403 32.2377 6.8886 31.25 9.375 31.25H46.094C47.1295 31.2513 48.1223 31.6633 48.8545 32.3955C49.5867 33.1277 49.9987 34.1205 50 35.156V46.094C49.9987 47.1295 49.5867 48.1223 48.8545 48.8545C48.1223 49.5867 47.1295 49.9987 46.094 50ZM9.375 32.813C7.31831 32.8363 5.35375 33.6696 3.9076 35.1322C2.46146 36.5948 1.65039 38.5687 1.65039 40.6255C1.65039 42.6823 2.46146 44.6562 3.9076 46.1188C5.35375 47.5814 7.31831 48.4147 9.375 48.438H46.094C46.7154 48.4372 47.3112 48.19 47.7506 47.7506C48.19 47.3112 48.4372 46.7154 48.438 46.094V35.156C48.4372 34.5346 48.19 33.9388 47.7506 33.4994C47.3112 33.06 46.7154 32.8128 46.094 32.812L9.375 32.813Z" fill="#101820"/>
<path d="M44.531 45.312H16.406C16.1989 45.312 16.0002 45.2297 15.8538 45.0833C15.7073 44.9368 15.625 44.7381 15.625 44.531V36.718C15.625 36.5109 15.7073 36.3122 15.8538 36.1658C16.0002 36.0193 16.1989 35.937 16.406 35.937H44.531C44.7381 35.937 44.9368 36.0193 45.0833 36.1658C45.2297 36.3122 45.312 36.5109 45.312 36.718V44.531C45.312 44.7381 45.2297 44.9368 45.0833 45.0833C44.9368 45.2297 44.7381 45.312 44.531 45.312ZM17.188 43.75H43.75V37.5H17.188V43.75Z" fill="#101820"/>
<path d="M10.9365 40.625C10.9365 40.9342 10.8449 41.2364 10.6731 41.4935C10.5013 41.7505 10.2571 41.9509 9.97145 42.0691C9.68579 42.1874 9.37147 42.2183 9.06825 42.1579C8.76503 42.0975 8.48654 41.9486 8.26799 41.7299C8.04944 41.5112 7.90065 41.2326 7.84046 40.9293C7.78026 40.6261 7.81136 40.3118 7.92981 40.0262C8.04826 39.7406 8.24875 39.4966 8.50592 39.3249C8.76308 39.1533 9.06537 39.0618 9.37455 39.062C9.57984 39.0619 9.78315 39.1022 9.97284 39.1807C10.1625 39.2592 10.3349 39.3743 10.48 39.5195C10.6252 39.6647 10.7403 39.837 10.8188 40.0267C10.8973 40.2164 10.9377 40.4197 10.9375 40.625" fill="#101820"/>
<path d="M26.563 35.938H25V45.313H26.563V35.938Z" fill="#101820"/>
<path d="M35.938 35.938H34.375V45.313H35.938V35.938Z" fill="#101820"/>
</g>
</g>
<defs>
<clipPath id="clip0_65_1285">
<rect width="50" height="50" fill="white"/>
</clipPath>
</defs>
</svg>
