<svg width="17" height="16" viewBox="0 0 17 16" fill="none" xmlns="http://www.w3.org/2000/svg">
<path d="M3.30556 3.5C3.30556 4.60313 2.45851 5.5 1.41667 5.5V10.5C2.45851 10.5 3.30556 11.3969 3.30556 12.5H13.6944C13.6944 11.3969 14.5415 10.5 15.5833 10.5V5.5C14.5415 5.5 13.6944 4.60313 13.6944 3.5H3.30556ZM0 4C0 2.89688 0.847049 2 1.88889 2H15.1111C16.153 2 17 2.89688 17 4V12C17 13.1031 16.153 14 15.1111 14H1.88889C0.847049 14 0 13.1031 0 12V4ZM8.5 5C9.25145 5 9.97212 5.31607 10.5035 5.87868C11.0348 6.44129 11.3333 7.20435 11.3333 8C11.3333 8.79565 11.0348 9.55871 10.5035 10.1213C9.97212 10.6839 9.25145 11 8.5 11C7.74855 11 7.02788 10.6839 6.49653 10.1213C5.96518 9.55871 5.66667 8.79565 5.66667 8C5.66667 7.20435 5.96518 6.44129 6.49653 5.87868C7.02788 5.31607 7.74855 5 8.5 5Z" fill="#0080A3"/>
</svg>
