<svg width="27" height="18" viewBox="0 0 27 18" fill="none" xmlns="http://www.w3.org/2000/svg">
<path d="M5.88563 -0.000976019V2.37556C5.88541 2.5725 5.84556 2.76747 5.76838 2.94927C5.69119 3.13108 5.57818 3.29617 5.43583 3.43506L4.03573 4.80821C3.89337 4.9471 3.78036 5.11219 3.70317 5.294C3.62599 5.4758 3.58615 5.67076 3.58593 5.8677V8.99902C3.58575 9.19597 3.62519 9.39102 3.70195 9.57301C3.77872 9.75499 3.89133 9.92035 4.03332 10.0596C4.17532 10.1989 4.34392 10.3093 4.52948 10.3846C4.71504 10.4599 4.91392 10.4986 5.11473 10.4984H8.17362C8.37444 10.4986 8.57331 10.4599 8.75887 10.3846C8.94443 10.3093 9.11304 10.1989 9.25503 10.0596C9.39703 9.92035 9.50963 9.75499 9.5864 9.57301C9.66317 9.39102 9.7026 9.19597 9.70243 8.99902V5.8728C9.70221 5.67587 9.66236 5.4809 9.58518 5.29909C9.50799 5.11728 9.39498 4.9522 9.25263 4.8133L7.85383 3.44143C7.71147 3.30254 7.59846 3.13746 7.52127 2.95565C7.44409 2.77384 7.40425 2.57888 7.40403 2.38194V-0.000976019H20.4144C22.037 -0.000976019 23.5931 0.631167 24.7404 1.75639C25.8877 2.8816 26.5322 4.40773 26.5322 5.99903C26.5322 7.59032 25.8877 9.11645 24.7404 10.2417C23.5931 11.3669 22.037 11.999 20.4144 11.999H18.8856V13.4984C18.8853 14.6916 18.4018 15.8358 17.5415 16.6795C16.6813 17.5233 15.5146 17.9974 14.2979 17.9977H5.11993C3.9033 17.9974 2.7366 17.5233 1.87631 16.6795C1.01603 15.8358 0.532572 14.6916 0.532227 13.4984V1.49839C0.532056 1.30144 0.571482 1.10639 0.64825 0.924405C0.725019 0.742418 0.837627 0.577062 0.979623 0.4378C1.12162 0.298538 1.29022 0.188104 1.47578 0.112813C1.66134 0.0375225 1.86021 -0.0011437 2.06103 -0.000976019H5.88563ZM18.8856 8.99902H20.4144C21.2257 8.99902 22.0037 8.68295 22.5774 8.12034C23.151 7.55773 23.4733 6.79467 23.4733 5.99903C23.4733 5.20338 23.151 4.44031 22.5774 3.8777C22.0037 3.31509 21.2257 2.99902 20.4144 2.99902H18.8856V8.99902Z" fill="#101820"/>
</svg>
