<svg width="45" height="50" viewBox="0 0 45 50" fill="none" xmlns="http://www.w3.org/2000/svg">
<path d="M18.0181 15.8458L20.8871 31.068H40.0391L41.3601 29.6759L43.4121 17.6429L43.0421 16.243L41.3601 15.3629L18.0181 15.8458Z" fill="#E6D4D9"/>
<path d="M0.774902 44.3979V46.4451L1.56787 47.8091L3.13989 49.032L6.04883 49.332H25.0719L26.8129 48.5439L28.2928 47.812L28.6998 45.9861V43.8621H0.773926L0.774902 44.3979Z" fill="#E6D4D9"/>
<mask id="mask0_15_273" style="mask-type:luminance" maskUnits="userSpaceOnUse" x="0" y="0" width="45" height="50">
<path d="M44.291 0H0V50H44.291V0Z" fill="white"/>
</mask>
<g mask="url(#mask0_15_273)">
<path d="M27.907 42.976H1.78V4.19997C1.8434 3.50258 2.17835 2.85804 2.71261 2.40534C3.24688 1.95263 3.93766 1.72803 4.636 1.77997H25.051C25.7494 1.72777 26.4403 1.95227 26.9746 2.40503C27.509 2.85778 27.8438 3.50248 27.907 4.19997V12.071H29.687V4.19997C29.6249 3.02981 29.1027 1.93165 28.2343 1.1449C27.3658 0.358145 26.2216 -0.0534022 25.051 -2.55438e-05H4.636C3.4654 -0.0534022 2.32117 0.358145 1.45275 1.1449C0.58432 1.93165 0.0621249 3.02981 0 4.19997L0 45.8C0.0618699 46.9701 0.583849 48.0682 1.45212 48.855C2.32038 49.6418 3.46451 50.0533 4.635 50H25.05C26.2208 50.0536 27.3653 49.6422 28.2339 48.8554C29.1025 48.0686 29.6249 46.9703 29.687 45.8V40.923H27.907V42.976ZM25.05 48.22H4.635C3.93676 48.2719 3.2461 48.0473 2.71199 47.5945C2.17789 47.1418 1.84315 46.4973 1.78 45.8V44.756H27.907V45.8C27.8436 46.4976 27.5085 47.1423 26.974 47.595C26.4395 48.0477 25.7485 48.2722 25.05 48.22Z" fill="#101820"/>
<path d="M18.5209 4.63794H12.0869V6.41794H18.5209V4.63794Z" fill="#101820"/>
<path d="M43.6631 15.669C43.4114 15.3686 43.0968 15.1271 42.7416 14.9616C42.3863 14.7961 41.9991 14.7105 41.6071 14.711H18.8761L18.3171 11.527C18.1844 10.7644 17.7865 10.0731 17.1937 9.57523C16.6009 9.07737 15.8513 8.80494 15.0771 8.80603H8.84814V10.586H15.0761C15.4313 10.5855 15.7753 10.7104 16.0474 10.9387C16.3194 11.167 16.5021 11.4841 16.5631 11.834L18.6171 23.524L20.3701 23.216L19.1881 16.49H41.6061C41.7383 16.4893 41.8691 16.5176 41.9891 16.5731C42.1091 16.6285 42.2154 16.7097 42.3004 16.8109C42.3855 16.9121 42.4472 17.0308 42.4812 17.1585C42.5152 17.2863 42.5206 17.42 42.4971 17.55L40.4461 29.223C40.4102 29.433 40.3009 29.6234 40.1377 29.7603C39.9746 29.8973 39.7682 29.972 39.5551 29.971H21.5551L20.9361 26.449L19.1831 26.757L20.4001 33.686C20.5329 34.4487 20.9307 35.14 21.5236 35.6378C22.1164 36.1357 22.866 36.4081 23.6401 36.407H41.2041V34.627H23.6431C23.288 34.6276 22.944 34.5027 22.6719 34.2744C22.3999 34.046 22.2172 33.7289 22.1561 33.379L21.8701 31.753H39.5561C40.1878 31.7539 40.7995 31.5317 41.2832 31.1255C41.767 30.7193 42.0917 30.1553 42.2001 29.533L44.2511 17.862C44.3194 17.4762 44.3022 17.0801 44.2006 16.7017C44.099 16.3233 43.9155 15.9718 43.6631 15.672" fill="#101820"/>
<path d="M29.1092 36.9869H27.3292C27.3215 37.2161 27.2251 37.4333 27.0602 37.5927C26.8954 37.7521 26.675 37.8412 26.4457 37.8412C26.2164 37.8412 25.9961 37.7521 25.8312 37.5927C25.6664 37.4333 25.5699 37.2161 25.5622 36.9869H23.7822C23.7822 37.6935 24.0629 38.3711 24.5625 38.8707C25.0621 39.3703 25.7397 39.6509 26.4462 39.6509C27.1528 39.6509 27.8304 39.3703 28.33 38.8707C28.8296 38.3711 29.1092 37.6935 29.1092 36.9869Z" fill="#101820"/>
<path d="M35.539 37.8709C35.3046 37.8707 35.0799 37.7774 34.9142 37.6117C34.7485 37.446 34.6553 37.2213 34.655 36.9869H32.875C32.875 37.3368 32.9439 37.6832 33.0778 38.0064C33.2117 38.3296 33.4079 38.6233 33.6553 38.8707C33.9026 39.118 34.1963 39.3143 34.5195 39.4482C34.8427 39.582 35.1892 39.6509 35.539 39.6509C35.8888 39.6509 36.2353 39.582 36.5585 39.4482C36.8817 39.3143 37.1754 39.118 37.4227 38.8707C37.6701 38.6233 37.8663 38.3296 38.0002 38.0064C38.1341 37.6832 38.203 37.3368 38.203 36.9869H36.422C36.4217 37.2211 36.3287 37.4457 36.1631 37.6114C35.9976 37.7771 35.7732 37.8704 35.539 37.8709Z" fill="#101820"/>
<path d="M31.6828 19.509H29.9028V26.955H31.6828V19.509Z" fill="#101820"/>
<path d="M36.4568 19.509H34.6768V26.955H36.4568V19.509Z" fill="#101820"/>
<path d="M26.8518 19.509H25.0718V26.955H26.8518V19.509Z" fill="#101820"/>
<path d="M13.157 17.9459H7.54102V19.7259H13.157V17.9459Z" fill="#101820"/>
<path d="M21.1482 24.11H13.3062V25.89H21.1482V24.11Z" fill="#101820"/>
<path d="M18.1291 32.151H11.2241V33.931H18.1291V32.151Z" fill="#101820"/>
</g>
</svg>
