<svg width="21" height="18" viewBox="0 0 21 18" fill="none" xmlns="http://www.w3.org/2000/svg">
<path d="M9.37964 2.62547C9.93864 4.30147 9.36764 5.99347 8.10564 6.40747C6.84364 6.82147 5.36664 5.79747 4.80564 4.12147C4.24464 2.44547 4.81764 0.753469 6.07964 0.339469C7.34164 -0.0745307 8.82164 0.949469 9.37964 2.62547ZM4.45364 6.75547C5.19164 8.02147 5.01264 9.49447 4.05364 10.0415C3.09464 10.5885 1.72164 10.0015 0.987641 8.73947C0.253641 7.47747 0.424641 6.00147 1.38264 5.45447C2.34064 4.90747 3.71564 5.48947 4.44964 6.75447L4.45364 6.75547ZM3.23464 14.6705C5.28164 9.14947 8.91964 7.74747 10.5346 7.74747C12.1496 7.74747 15.7856 9.14747 17.8346 14.6705C17.9714 15.0528 18.0391 15.4564 18.0346 15.8625V15.9255C18.0348 16.1652 17.9877 16.4025 17.896 16.624C17.8043 16.8455 17.6699 17.0467 17.5004 17.2162C17.3309 17.3857 17.1297 17.5201 16.9082 17.6118C16.6867 17.7035 16.4493 17.7506 16.2096 17.7505C15.7619 17.7508 15.3158 17.6957 14.8816 17.5865L11.4436 16.7265C10.8457 16.578 10.2206 16.578 9.62264 16.7265L6.18464 17.5865C5.75044 17.6957 5.30438 17.7508 4.85664 17.7505C4.61694 17.7506 4.37957 17.7035 4.15809 17.6118C3.93661 17.5201 3.73537 17.3857 3.56588 17.2162C3.39638 17.0467 3.26196 16.8455 3.17029 16.624C3.07862 16.4025 3.03151 16.1652 3.03164 15.9255V15.8625C3.02812 15.4562 3.09686 15.0526 3.23464 14.6705ZM17.0106 10.0405C16.0536 9.49347 15.8736 8.02047 16.6106 6.75447C17.3476 5.48847 18.7206 4.90647 19.6776 5.45447C20.6346 6.00247 20.8146 7.47447 20.0776 8.74047C19.3406 10.0065 17.9676 10.5875 17.0106 10.0405ZM12.6466 6.40647C11.3846 5.99247 10.8146 4.30047 11.3726 2.62447C11.9306 0.948469 13.4086 -0.0755301 14.6726 0.33847C15.9366 0.75247 16.5046 2.44447 15.9466 4.12047C15.3886 5.79647 13.9086 6.82047 12.6466 6.40647Z" fill="#101820"/>
</svg>
