<svg width="50" height="50" viewBox="0 0 50 50" fill="none" xmlns="http://www.w3.org/2000/svg">
<g clip-path="url(#clip0_15_326)">
<path d="M6.58606 10.5289L9.64905 5.18689L12.9241 10.5289L18.4241 11.713L14.442 16.5319L15.2721 22.0018L14.442 22.4489L9.65308 19.673L4.46106 22.4489L3.88208 22.0018L4.46106 16.5319L0.561035 11.713L1.61511 11.1749L6.58606 10.5289Z" fill="#E6D4D9"/>
<mask id="mask0_15_326" style="mask-type:luminance" maskUnits="userSpaceOnUse" x="0" y="0" width="50" height="50">
<path d="M49.221 0H0V50H49.221V0Z" fill="white"/>
</mask>
<g mask="url(#mask0_15_326)">
<path d="M46.0852 27.437C45.4089 27.4369 44.7515 27.6601 44.2152 28.072C43.9771 27.6418 43.6397 27.2748 43.2312 27.0014C42.8226 26.7279 42.3546 26.556 41.8662 26.5C41.3778 26.4439 40.883 26.5053 40.4231 26.6791C39.9632 26.8529 39.5515 27.134 39.2222 27.499C38.933 27.1789 38.58 26.9229 38.186 26.7475C37.7919 26.572 37.3655 26.4809 36.9342 26.48C36.4319 26.4798 35.9373 26.6034 35.4942 26.84V18.548C35.5047 18.1295 35.4314 17.7131 35.2786 17.3234C35.1257 16.9337 34.8964 16.5785 34.6042 16.2788C34.3119 15.9791 33.9626 15.7409 33.5769 15.5782C33.1912 15.4156 32.7768 15.3318 32.3582 15.3318C31.9395 15.3318 31.5251 15.4156 31.1394 15.5782C30.7537 15.7409 30.4044 15.9791 30.1121 16.2788C29.8199 16.5785 29.5906 16.9337 29.4377 17.3234C29.2849 17.7131 29.2116 18.1295 29.2222 18.548V26.091H29.2332L29.2242 32.464C28.0972 30.519 26.2972 28.104 24.1502 27.715C23.6862 27.5728 23.1926 27.5573 22.7207 27.6702C22.2487 27.7831 21.8155 28.0202 21.4662 28.357C21.1906 28.7532 21.0129 29.2091 20.9476 29.6873C20.8822 30.1655 20.9311 30.6524 21.0902 31.108L25.0902 42.055C25.3846 42.8624 25.8302 43.6064 26.4032 44.247L27.7522 45.758C28.5864 46.6912 29.0475 47.8992 29.0472 49.151C29.0472 49.2624 29.0691 49.3726 29.1117 49.4755C29.1543 49.5784 29.2168 49.6719 29.2955 49.7506C29.3743 49.8294 29.4678 49.8918 29.5706 49.9344C29.6735 49.9771 29.7838 49.999 29.8952 49.999C29.9212 49.999 29.9482 49.999 29.9742 49.999C30.5812 49.97 40.1482 49.985 46.4642 49.999C46.576 50.0019 46.6871 49.9813 46.7905 49.9386C46.8938 49.8959 46.987 49.832 47.0642 49.751C47.2234 49.5919 47.313 49.3761 47.3132 49.151C47.3107 48.223 47.5053 47.3051 47.8842 46.458L48.4582 45.35C48.957 44.3841 49.218 43.3131 49.2192 42.226V30.651C49.2285 29.8092 48.9036 28.9981 48.3157 28.3956C47.7278 27.7931 46.9249 27.4483 46.0832 27.437M47.5232 42.226C47.5221 43.0416 47.3263 43.8452 46.9522 44.57L46.3782 45.678C45.9858 46.5029 45.7437 47.3911 45.6632 48.301C37.6532 48.279 32.6382 48.277 30.6872 48.294C30.5142 46.9313 29.9315 45.6532 29.0162 44.629L27.6672 43.118C27.2373 42.6372 26.903 42.0789 26.6822 41.473L22.6952 30.564C22.5708 30.2109 22.5855 29.8237 22.7362 29.481C22.8772 29.321 23.2912 29.281 23.8462 29.381C25.1872 29.624 26.8572 31.481 28.3122 34.338C28.4529 34.6133 28.6821 34.8333 28.963 34.9626C29.2438 35.0919 29.56 35.1229 29.8606 35.0508C30.1613 34.9787 30.429 34.8075 30.6206 34.5649C30.8122 34.3222 30.9167 34.0222 30.9172 33.713L30.9282 26.089H30.9172V18.546C30.9056 18.3498 30.9343 18.1534 31.0014 17.9687C31.0685 17.784 31.1726 17.6149 31.3074 17.4719C31.4422 17.329 31.6049 17.215 31.7853 17.1372C31.9657 17.0593 32.1602 17.0191 32.3567 17.0191C32.5532 17.0191 32.7476 17.0593 32.928 17.1372C33.1085 17.215 33.2711 17.329 33.4059 17.4719C33.5407 17.6149 33.6449 17.784 33.712 17.9687C33.7791 18.1534 33.8077 18.3498 33.7962 18.546V31.793C33.7962 32.0184 33.8857 32.2346 34.0451 32.394C34.2045 32.5534 34.4207 32.643 34.6462 32.643C34.8716 32.643 35.0878 32.5534 35.2472 32.394C35.4066 32.2346 35.4962 32.0184 35.4962 31.793V29.693C35.4846 29.4968 35.5132 29.3004 35.5804 29.1157C35.6475 28.931 35.7516 28.7619 35.8864 28.6189C36.0212 28.476 36.1839 28.362 36.3643 28.2841C36.5447 28.2063 36.7391 28.1661 36.9357 28.1661C37.1322 28.1661 37.3266 28.2063 37.507 28.2841C37.6875 28.362 37.8501 28.476 37.9849 28.6189C38.1197 28.7619 38.2238 28.931 38.291 29.1157C38.3581 29.3004 38.3867 29.4968 38.3752 29.693V31.793C38.3752 32.0184 38.4647 32.2346 38.6241 32.394C38.7835 32.5534 38.9997 32.643 39.2252 32.643C39.4506 32.643 39.6668 32.5534 39.8262 32.394C39.9856 32.2346 40.0752 32.0184 40.0752 31.793V29.693C40.0663 29.4984 40.0969 29.3041 40.1653 29.1217C40.2336 28.9393 40.3382 28.7727 40.4727 28.6318C40.6073 28.491 40.769 28.3789 40.9481 28.3023C41.1271 28.2258 41.3199 28.1863 41.5147 28.1863C41.7094 28.1863 41.9022 28.2258 42.0813 28.3023C42.2603 28.3789 42.422 28.491 42.5566 28.6318C42.6911 28.7727 42.7957 28.9393 42.8641 29.1217C42.9324 29.3041 42.9631 29.4984 42.9542 29.693V31.793C42.9542 32.0184 43.0437 32.2346 43.2031 32.394C43.3625 32.5534 43.5787 32.643 43.8042 32.643C44.0296 32.643 44.2458 32.5534 44.4052 32.394C44.5646 32.2346 44.6542 32.0184 44.6542 31.793V30.648C44.6426 30.4518 44.6713 30.2553 44.7384 30.0706C44.8055 29.8859 44.9096 29.7169 45.0444 29.5739C45.1792 29.4309 45.3419 29.317 45.5223 29.2392C45.7027 29.1613 45.8972 29.1211 46.0937 29.1211C46.2902 29.1211 46.4846 29.1613 46.665 29.2392C46.8455 29.317 47.0081 29.4309 47.1429 29.5739C47.2777 29.7169 47.3819 29.8859 47.449 30.0706C47.5161 30.2553 47.5447 30.4518 47.5332 30.648L47.5232 42.226Z" fill="#101820"/>
<path d="M25.123 14.769C25.1532 14.7984 25.1759 14.8347 25.1889 14.8748C25.202 14.9148 25.2051 14.9575 25.198 14.999L24.207 20.781C24.1444 21.1411 24.184 21.5114 24.3213 21.8501C24.4586 22.1888 24.6881 22.4821 24.9838 22.6969C25.2795 22.9117 25.6295 23.0392 25.994 23.065C26.3586 23.0909 26.723 23.0139 27.046 22.843L28.406 22.128L27.617 20.628L26.257 21.343C26.2144 21.3669 26.1658 21.3778 26.117 21.3742C26.0683 21.3707 26.0217 21.3529 25.983 21.323C25.9431 21.2954 25.9122 21.2565 25.8944 21.2112C25.8766 21.166 25.8726 21.1165 25.883 21.069L26.875 15.287C26.929 14.9744 26.906 14.6533 26.8081 14.3516C26.7102 14.0498 26.5403 13.7764 26.313 13.555L22.113 9.46002C22.0781 9.42618 22.0534 9.38324 22.0417 9.33607C22.03 9.2889 22.0317 9.23939 22.0467 9.19316C22.0617 9.14692 22.0894 9.10582 22.1265 9.07451C22.1637 9.0432 22.2089 9.02293 22.257 9.01602L28.063 8.17302C28.3769 8.12729 28.6749 8.00602 28.9315 7.81963C29.1881 7.63325 29.3955 7.38732 29.536 7.10301L32.136 1.84201C32.1561 1.79743 32.1889 1.75983 32.2304 1.734C32.2719 1.70818 32.3202 1.6953 32.369 1.69701C32.418 1.69563 32.4662 1.70863 32.5078 1.73441C32.5494 1.76018 32.5825 1.7976 32.603 1.84201L35.203 7.10202C35.3431 7.38672 35.5505 7.63301 35.8071 7.81962C36.0638 8.00622 36.362 8.12751 36.676 8.17302L42.481 9.01602C42.5295 9.0218 42.5752 9.04164 42.6125 9.0731C42.6498 9.10455 42.6771 9.14623 42.691 9.19302C42.7075 9.23892 42.7101 9.28867 42.6983 9.33601C42.6866 9.38335 42.6611 9.42615 42.625 9.45901L38.425 13.559C38.1982 13.7805 38.0286 14.0537 37.9307 14.3553C37.8328 14.6568 37.8096 14.9775 37.863 15.29L38.855 21.072C38.8632 21.1198 38.8578 21.1689 38.8395 21.2138C38.8213 21.2587 38.7908 21.2976 38.7516 21.326C38.7124 21.3545 38.666 21.3715 38.6177 21.375C38.5693 21.3786 38.521 21.3685 38.478 21.346L36.878 20.503L36.089 22.003L37.689 22.846C38.0122 23.0157 38.3763 23.0917 38.7403 23.0653C39.1043 23.0389 39.4537 22.9113 39.749 22.6968C40.0443 22.4824 40.2738 22.1896 40.4114 21.8516C40.5491 21.5135 40.5895 21.1438 40.528 20.784L39.519 15C39.5121 14.9585 39.5153 14.9159 39.5284 14.8758C39.5415 14.8358 39.564 14.7995 39.594 14.77L43.794 10.675C44.0556 10.4202 44.2406 10.0973 44.3282 9.74278C44.4157 9.38828 44.4023 9.01634 44.2893 8.66908C44.1764 8.32182 43.9686 8.0131 43.6893 7.77786C43.41 7.54262 43.0704 7.39026 42.709 7.33801L36.904 6.49501C36.8616 6.48972 36.8211 6.47397 36.7862 6.44919C36.7513 6.42441 36.7231 6.39137 36.704 6.35301L34.104 1.09201C33.9444 0.76483 33.6961 0.489025 33.3874 0.295976C33.0788 0.102927 32.7221 0.000384676 32.358 1.49371e-05C31.9928 -0.00141658 31.6346 0.100072 31.3243 0.292852C31.0141 0.485633 30.7645 0.761906 30.604 1.09001L28.004 6.35101C27.9849 6.38926 27.9566 6.42221 27.9218 6.44697C27.8869 6.47173 27.8465 6.48755 27.804 6.49301L21.998 7.33601C21.6367 7.38841 21.2973 7.54089 21.0181 7.77619C20.739 8.01149 20.5312 8.32022 20.4184 8.66746C20.3056 9.01469 20.2923 9.38657 20.3799 9.741C20.4675 10.0954 20.6525 10.4183 20.914 10.673L25.123 14.769Z" fill="#101820"/>
<path d="M17.7812 10.355L13.2072 9.68298L11.1692 5.55298C11.0274 5.2653 10.8079 5.02305 10.5355 4.85366C10.2632 4.68426 9.94888 4.59448 9.62815 4.59448C9.30743 4.59448 8.99311 4.68426 8.72077 4.85366C8.44842 5.02305 8.22894 5.2653 8.08715 5.55298L6.03115 9.69198L1.47215 10.354C1.15529 10.4004 0.857726 10.5346 0.61304 10.7412C0.368353 10.9478 0.186287 11.2187 0.0873899 11.5233C-0.0115075 11.8279 -0.023299 12.154 0.0533462 12.465C0.129991 12.7759 0.292022 13.0592 0.521151 13.283L3.82115 16.518L3.04315 21.057C2.98791 21.3732 3.0225 21.6986 3.14297 21.9962C3.26344 22.2938 3.46497 22.5516 3.72465 22.7403C3.98434 22.9291 4.29176 23.0412 4.61199 23.0639C4.93221 23.0867 5.2524 23.0191 5.53615 22.869L9.63615 20.726L13.7132 22.87C13.997 23.0189 14.3169 23.0855 14.6366 23.0622C14.9563 23.0389 15.2631 22.9267 15.5224 22.7383C15.7817 22.5498 15.9832 22.2926 16.104 21.9957C16.2248 21.6987 16.2602 21.374 16.2062 21.058L15.4342 16.499L18.7341 13.283C18.9639 13.0592 19.1264 12.7756 19.2033 12.4642C19.2802 12.1528 19.2684 11.8261 19.1692 11.5211C19.07 11.2161 18.8875 10.9449 18.6422 10.7383C18.3968 10.5317 18.0986 10.3979 17.7812 10.352M14.2512 15.283C14.0517 15.4775 13.9024 15.7175 13.8164 15.9825C13.7303 16.2475 13.71 16.5294 13.7572 16.804L14.5042 21.367L10.4272 19.224C10.1805 19.0942 9.9059 19.0264 9.62715 19.0264C9.3484 19.0264 9.07384 19.0942 8.82715 19.224L4.71915 21.344L5.49715 16.804C5.54432 16.5292 5.5238 16.2471 5.43737 15.9821C5.35094 15.7171 5.20122 15.4771 5.00115 15.283L1.71715 12.033L6.27615 11.371C6.55187 11.3309 6.81371 11.2244 7.03913 11.0606C7.26455 10.8969 7.44679 10.6808 7.57015 10.431L9.64115 6.28998C9.64353 6.29307 9.64554 6.29643 9.64715 6.29998L11.6862 10.43C11.8094 10.6799 11.9916 10.8961 12.217 11.0599C12.4425 11.2236 12.7044 11.3301 12.9802 11.37L17.5501 12.07L14.2512 15.283Z" fill="#101820"/>
</g>
</g>
<defs>
<clipPath id="clip0_15_326">
<rect width="49.221" height="50" fill="white"/>
</clipPath>
</defs>
</svg>
