<svg id="Layer_1" data-name="Layer 1" xmlns="http://www.w3.org/2000/svg" viewBox="0 0 287.55 56.55"><defs><style>.cls-1{isolation:isolate;}.cls-2{fill:#231f20;}.cls-3{fill:#841e2b;}.cls-4{fill:#6d6e71;}</style></defs><g class="cls-1"><path class="cls-2" d="M13.05,20.36h4.61a21.91,21.91,0,0,0,2.24-.08A7.16,7.16,0,0,0,22,19.84,3.41,3.41,0,0,0,24.2,16.4a3.74,3.74,0,0,0-.56-2.16A3.65,3.65,0,0,0,22.23,13a6,6,0,0,0-1.95-.57,15.43,15.43,0,0,0-2.15-.15H13.05ZM5.22,5.67H19a24,24,0,0,1,5.14.52A12.3,12.3,0,0,1,28.37,8a8.58,8.58,0,0,1,2.9,3.31,11.1,11.1,0,0,1,1.09,5.19,10.36,10.36,0,0,1-2,6.39,8.8,8.8,0,0,1-5.72,3.34l9,15H24.33L16.91,27H13.06V41.17H5.22Z" transform="translate(-5.22 -4.76)"/><path class="cls-2" d="M45.68,23.42A13,13,0,0,0,46.44,28a10.74,10.74,0,0,0,2.24,3.61A10.14,10.14,0,0,0,52.16,34a12.48,12.48,0,0,0,9.08,0,10.14,10.14,0,0,0,3.48-2.38A10.43,10.43,0,0,0,67,28a13.84,13.84,0,0,0,0-9.16,10.51,10.51,0,0,0-2.24-3.63,10,10,0,0,0-3.48-2.38,12.48,12.48,0,0,0-9.08,0,10,10,0,0,0-3.48,2.38,10.66,10.66,0,0,0-2.24,3.63,13,13,0,0,0-.76,4.54m-8.13,0A20,20,0,0,1,39,15.73a17.08,17.08,0,0,1,4-5.9A17.61,17.61,0,0,1,49,6.1a23.18,23.18,0,0,1,15.38,0,17.61,17.61,0,0,1,6.07,3.73,17.08,17.08,0,0,1,4,5.9,21.55,21.55,0,0,1,0,15.45,17,17,0,0,1-4,5.89,17.7,17.7,0,0,1-6.07,3.73A23.18,23.18,0,0,1,49,40.8,17.7,17.7,0,0,1,43,37.07a17,17,0,0,1-4-5.89,20.2,20.2,0,0,1-1.43-7.76" transform="translate(-5.22 -4.76)"/><path class="cls-2" d="M95.88,16,91.57,27h8.67Zm-3-10.33h6.47l15.44,35.5H106l-3.08-7.52H89.1l-2.95,7.52H77.53Z" transform="translate(-5.22 -4.76)"/><path class="cls-2" d="M138.4,14.34a5.5,5.5,0,0,0-2.57-1.78,9.29,9.29,0,0,0-3.08-.58,8.71,8.71,0,0,0-1.76.2,6.81,6.81,0,0,0-1.7.63A3.76,3.76,0,0,0,128,13.94a2.87,2.87,0,0,0-.5,1.7,2.84,2.84,0,0,0,1.21,2.47,11.28,11.28,0,0,0,3,1.45c1.22.4,2.53.77,3.94,1.2a16.39,16.39,0,0,1,3.94,1.71,9.48,9.48,0,0,1,3,3,9.1,9.1,0,0,1,1.2,5,11.5,11.5,0,0,1-1.1,5.16,10.55,10.55,0,0,1-3,3.67,12.7,12.7,0,0,1-4.36,2.15A19.89,19.89,0,0,1,123.72,41a16.24,16.24,0,0,1-5.52-3.4l5.57-6.16a8.14,8.14,0,0,0,3,2.49,8.56,8.56,0,0,0,5.72.65,6.62,6.62,0,0,0,1.76-.68,3.72,3.72,0,0,0,1.25-1.15,2.87,2.87,0,0,0,.47-1.66,3,3,0,0,0-1.22-2.53A11.52,11.52,0,0,0,131.7,27c-1.24-.43-2.58-.87-4-1.3a18.16,18.16,0,0,1-4-1.76A9.62,9.62,0,0,1,120.6,21a8.33,8.33,0,0,1-1.23-4.76,10.67,10.67,0,0,1,1.13-5,10.83,10.83,0,0,1,3-3.58,13.14,13.14,0,0,1,4.34-2.18,17.69,17.69,0,0,1,5.06-.73,20.15,20.15,0,0,1,5.82.86,13.41,13.41,0,0,1,5.07,2.85Z" transform="translate(-5.22 -4.76)"/><polygon class="cls-2" points="153.8 7.82 143.67 7.82 143.67 0.9 171.75 0.9 171.75 7.82 161.61 7.82 161.61 36.41 153.8 36.41 153.8 7.82"/><path class="cls-2" d="M193.52,16l-4.31,11h8.68Zm-3-10.33H197l15.45,35.5H203.6l-3.07-7.52H186.75l-3,7.52h-8.63Z" transform="translate(-5.22 -4.76)"/><path class="cls-2" d="M226.32,20.36h4.62a21.63,21.63,0,0,0,2.23-.08,6.74,6.74,0,0,0,2.13-.44,3.79,3.79,0,0,0,1.58-1.19,3.54,3.54,0,0,0,.63-2.25,3.9,3.9,0,0,0-.55-2.16A3.65,3.65,0,0,0,235.55,13a6,6,0,0,0-2-.57,15.47,15.47,0,0,0-2.16-.15h-5.11ZM218.5,5.67h13.74a24,24,0,0,1,5.14.52A12.25,12.25,0,0,1,241.64,8a8.61,8.61,0,0,1,2.91,3.31,11.08,11.08,0,0,1,1.07,5.19,10.35,10.35,0,0,1-2,6.39A8.8,8.8,0,0,1,238,26.18l9,15H237.6L230.18,27h-3.84V41.17H218.5Z" transform="translate(-5.22 -4.76)"/><polygon class="cls-3" points="272.62 25.82 269.33 33.34 273.53 40.13 287.55 31.84 272.62 25.82"/><polygon class="cls-3" points="264.49 27.59 272.33 25.66 268.77 9.69 258.36 22.12 264.49 27.59"/><polygon class="cls-3" points="265.35 39.7 260.16 45.84 272.3 56.55 273.4 40.51 265.35 39.7"/><polygon class="cls-3" points="257.53 30.4 258.13 22.26 241.9 20.71 250.52 34.5 257.53 30.4"/><polygon class="cls-3" points="258.06 37.9 250.52 34.82 244.08 49.68 259.78 45.75 258.06 37.9"/><polygon class="cls-4" points="3.46 46.46 0 46.46 0 44.71 8.93 44.71 8.93 46.46 5.47 46.46 5.47 56 3.46 56 3.46 46.46"/><polygon class="cls-4" points="14.41 44.71 16.42 44.71 16.42 49.27 21.7 49.27 21.7 44.71 23.71 44.71 23.71 56 21.7 56 21.7 50.99 16.42 50.99 16.42 56 14.41 56 14.41 44.71"/><polygon class="cls-4" points="30.36 44.71 37.84 44.71 37.84 46.46 32.37 46.46 32.37 49.33 37.55 49.33 37.55 51.02 32.37 51.02 32.37 54.21 38.13 54.21 38.13 56 30.36 56 30.36 44.71"/><polygon class="cls-4" points="51.07 44.71 53.27 44.71 55.45 53 55.49 53 57.98 44.71 60.05 44.71 62.49 53 62.52 53 64.75 44.71 66.89 44.71 63.59 56 61.65 56 59 47.53 58.97 47.53 56.32 56 54.37 56 51.07 44.71"/><polygon class="cls-4" points="72.4 44.71 74.41 44.71 74.41 49.27 79.69 49.27 79.69 44.71 81.7 44.71 81.7 56 79.69 56 79.69 50.99 74.41 50.99 74.41 56 72.4 56 72.4 44.71"/><path class="cls-4" d="M95.22,55.09a4.67,4.67,0,0,0,.28,1.66,3.77,3.77,0,0,0,2,2.19,3.87,3.87,0,0,0,1.58.31,3.83,3.83,0,0,0,1.57-.31,3.66,3.66,0,0,0,1.24-.87,3.83,3.83,0,0,0,.8-1.32,4.67,4.67,0,0,0,.28-1.66,4.54,4.54,0,0,0-.28-1.63,4,4,0,0,0-.79-1.31,3.78,3.78,0,0,0-1.23-.88A3.93,3.93,0,0,0,99.1,51a3.86,3.86,0,0,0-1.59.32,3.74,3.74,0,0,0-1.22.88,3.86,3.86,0,0,0-.79,1.31,4.54,4.54,0,0,0-.28,1.63m-2.19,0a6.19,6.19,0,0,1,.46-2.45,5.28,5.28,0,0,1,1.26-1.86,5.55,5.55,0,0,1,1.91-1.18,6.8,6.8,0,0,1,2.42-.42,6.87,6.87,0,0,1,2.44.42,5.73,5.73,0,0,1,1.93,1.18,5.31,5.31,0,0,1,1.27,1.86,6.37,6.37,0,0,1,.45,2.45,6.27,6.27,0,0,1-.45,2.41,5.62,5.62,0,0,1-1.27,1.89,5.82,5.82,0,0,1-1.93,1.22,6.46,6.46,0,0,1-2.44.44,6.39,6.39,0,0,1-2.42-.44,5.51,5.51,0,0,1-3.17-3.11A6.09,6.09,0,0,1,93,55.09" transform="translate(-5.22 -4.76)"/><polygon class="cls-4" points="106.06 44.71 108.07 44.71 108.07 54.21 112.87 54.21 112.87 56 106.06 56 106.06 44.71"/><polygon class="cls-4" points="118.38 44.71 125.86 44.71 125.86 46.46 120.39 46.46 120.39 49.33 125.57 49.33 125.57 51.02 120.39 51.02 120.39 54.21 126.14 54.21 126.14 56 118.38 56 118.38 44.71"/><path class="cls-4" d="M149.06,54.4a5.61,5.61,0,0,0,.94-.07,2.43,2.43,0,0,0,.8-.26,1.5,1.5,0,0,0,.56-.5,1.48,1.48,0,0,0,.21-.83,1.38,1.38,0,0,0-.21-.8,1.45,1.45,0,0,0-.55-.49,2.37,2.37,0,0,0-.78-.23,6.8,6.8,0,0,0-.9-.06h-1.47V54.4Zm-3.41-4.93h3.68a7.87,7.87,0,0,1,1.76.18,3.62,3.62,0,0,1,1.34.57,2.74,2.74,0,0,1,.86,1,3.46,3.46,0,0,1,.3,1.5,3.16,3.16,0,0,1-.35,1.58,2.77,2.77,0,0,1-1,1,4.24,4.24,0,0,1-1.39.57,8.42,8.42,0,0,1-1.69.17h-1.55v4.68h-2Z" transform="translate(-5.22 -4.76)"/><path class="cls-4" d="M164.68,56.46l-1.74-4.6-1.77,4.6Zm-2.55-7h1.74l4.86,11.3h-2.29l-1.06-2.59h-4.9l-1,2.59h-2.25Z" transform="translate(-5.22 -4.76)"/><path class="cls-4" d="M181.88,52.12a2.66,2.66,0,0,0-1.17-.89,3.9,3.9,0,0,0-3,0,3.82,3.82,0,0,0-2,2.19,4.54,4.54,0,0,0-.28,1.63,5.08,5.08,0,0,0,.27,1.69,3.66,3.66,0,0,0,.78,1.31,3.47,3.47,0,0,0,1.2.86,4,4,0,0,0,1.58.3,3.47,3.47,0,0,0,1.61-.36,3,3,0,0,0,1.13-1l1.62,1.13a5.21,5.21,0,0,1-1.84,1.46,5.76,5.76,0,0,1-2.54.52,6.41,6.41,0,0,1-2.43-.44,5.41,5.41,0,0,1-3.15-3.11,6.65,6.65,0,0,1,0-4.86,5.51,5.51,0,0,1,1.3-1.86,5.68,5.68,0,0,1,1.94-1.18,6.8,6.8,0,0,1,2.42-.42,6.44,6.44,0,0,1,1.13.11,5.86,5.86,0,0,1,2.16.85,3.13,3.13,0,0,1,.81.77Z" transform="translate(-5.22 -4.76)"/><polygon class="cls-4" points="183.77 44.71 185.78 44.71 185.78 49.59 185.83 49.59 190.55 44.71 193.26 44.71 187.98 49.92 193.61 56 190.79 56 185.83 50.34 185.78 50.34 185.78 56 183.77 56 183.77 44.71"/><path class="cls-4" d="M210.05,56.46l-1.74-4.6-1.77,4.6Zm-2.55-7h1.74l4.87,11.3h-2.3l-1.06-2.59h-4.89l-1,2.59h-2.25Z" transform="translate(-5.22 -4.76)"/><path class="cls-4" d="M229,60.18a8.74,8.74,0,0,1-1.89.64,10.58,10.58,0,0,1-2.37.23,6.7,6.7,0,0,1-2.5-.44,5.71,5.71,0,0,1-1.95-1.22A5.62,5.62,0,0,1,219,57.5a6.23,6.23,0,0,1-.45-2.41,6,6,0,0,1,.47-2.45,5.35,5.35,0,0,1,1.29-1.86,5.78,5.78,0,0,1,1.94-1.18,6.8,6.8,0,0,1,2.42-.42,7.25,7.25,0,0,1,2.48.4,5.05,5.05,0,0,1,1.81,1l-1.38,1.5a3.37,3.37,0,0,0-1.21-.81A4.27,4.27,0,0,0,224.7,51a4,4,0,0,0-1.62.31,3.72,3.72,0,0,0-1.24.88,4,4,0,0,0-.79,1.31,4.77,4.77,0,0,0-.28,1.63,4.9,4.9,0,0,0,.28,1.66,4,4,0,0,0,.8,1.32,3.74,3.74,0,0,0,1.26.87,4.3,4.3,0,0,0,1.68.31,5.69,5.69,0,0,0,2.25-.4V56h-2.37V54.32H229Z" transform="translate(-5.22 -4.76)"/><polygon class="cls-4" points="230.37 44.71 237.85 44.71 237.85 46.46 232.38 46.46 232.38 49.33 237.56 49.33 237.56 51.02 232.38 51.02 232.38 54.21 238.14 54.21 238.14 56 230.37 56 230.37 44.71"/></g></svg>