<svg width="50" height="50" viewBox="0 0 50 50" fill="none" xmlns="http://www.w3.org/2000/svg">
<g clip-path="url(#clip0_65_1301)">
<path d="M35.7944 28.579L33.7195 26.379L30.4646 25H27.3826L24.0364 27.386L22.7285 30.649V33.871L24.0364 37.826L27.3826 41.673L30.4646 45.211L35.7954 49.501L39.8855 46.456L43.5076 43.119L46.9136 39.153L48.6726 35.353L49.4724 30.645L48.6726 28.577L46.9136 26.377L43.5066 25H39.8845L37.3364 26.384L35.7944 28.579Z" fill="#E6D4D9"/>
<mask id="mask0_65_1301" style="mask-type:luminance" maskUnits="userSpaceOnUse" x="0" y="0" width="50" height="50">
<path d="M50 0H0V50H50V0Z" fill="white"/>
</mask>
<g mask="url(#mask0_65_1301)">
<path d="M35.9381 50.0001C35.7975 50.0007 35.6593 49.9634 35.5381 49.8921C33.1091 48.3974 30.8376 46.6609 28.7581 44.7091C24.1881 40.4091 21.8711 36.1431 21.8711 32.0311C21.8705 30.3909 22.3863 28.7923 23.3453 27.4617C24.3043 26.1312 25.6579 25.1364 27.214 24.6183C28.7702 24.1002 30.4499 24.0851 32.0151 24.5753C33.5803 25.0654 34.9514 26.0359 35.9341 27.3491C36.9168 26.0359 38.2879 25.0654 39.8531 24.5753C41.4182 24.0851 43.098 24.1002 44.6541 24.6183C46.2103 25.1364 47.5638 26.1312 48.5228 27.4617C49.4819 28.7923 49.9976 30.3909 49.9971 32.0311C49.9971 36.1431 47.6801 40.4091 43.1101 44.7091C41.0306 46.6609 38.7591 48.3974 36.3301 49.8921C36.2089 49.9634 36.0707 50.0007 35.9301 50.0001M29.6801 25.7811C28.0231 25.7829 26.4344 26.442 25.2627 27.6137C24.091 28.7854 23.4319 30.374 23.4301 32.0311C23.4301 36.5951 26.9081 40.8261 29.8251 43.5711C31.71 45.3301 33.7518 46.913 35.9251 48.3001C38.0941 46.9261 48.4251 39.9611 48.4251 32.0301C48.4256 30.6282 47.9545 29.267 47.0877 28.1652C46.2209 27.0635 45.0087 26.2854 43.6461 25.9559C42.2835 25.6265 40.8497 25.765 39.5753 26.349C38.301 26.9331 37.2601 27.9288 36.6201 29.1761C36.5544 29.3037 36.4549 29.4108 36.3324 29.4855C36.2099 29.5603 36.0691 29.5998 35.9256 29.5998C35.7821 29.5998 35.6413 29.5603 35.5188 29.4855C35.3963 29.4108 35.2967 29.3037 35.2311 29.1761C34.709 28.152 33.9138 27.2923 32.9334 26.6922C31.9529 26.0921 30.8256 25.775 29.6761 25.7761" fill="#101820"/>
<path d="M27.344 50H3.906C2.87047 49.9987 1.87773 49.5868 1.1455 48.8545C0.413272 48.1223 0.00132302 47.1296 0 46.094L0 3.90603C0.00132302 2.8705 0.413272 1.87776 1.1455 1.14553C1.87773 0.4133 2.87047 0.00135112 3.906 2.80997e-05H22.869C23.8953 -0.00273334 24.912 0.198062 25.8601 0.590794C26.8083 0.983526 27.6692 1.5604 28.393 2.28803L35.8 9.70003C36.0913 9.98944 36.3222 10.3338 36.4792 10.7132C36.6363 11.0926 36.7164 11.4994 36.715 11.91V19.533C36.715 19.7402 36.6327 19.9388 36.4863 20.0853C36.3398 20.2317 36.1411 20.314 35.934 20.314C35.7269 20.314 35.5282 20.2317 35.3817 20.0853C35.2353 19.9388 35.153 19.7402 35.153 19.533V11.908C35.1529 11.7035 35.1124 11.5011 35.0338 11.3123C34.9552 11.1235 34.84 10.9522 34.695 10.808L27.285 3.39803C26.7061 2.81581 26.0174 2.3542 25.2589 2.03991C24.5004 1.72562 23.6871 1.56489 22.866 1.56703H3.906C3.28553 1.56782 2.69065 1.81438 2.25153 2.25274C1.81242 2.6911 1.56485 3.28556 1.563 3.90603V46.094C1.56353 46.7155 1.81066 47.3114 2.25013 47.7509C2.6896 48.1904 3.2855 48.4375 3.907 48.438H27.344C27.5513 48.438 27.75 48.5204 27.8966 48.6669C28.0432 48.8135 28.1255 49.0123 28.1255 49.2195C28.1255 49.4268 28.0432 49.6256 27.8966 49.7721C27.75 49.9187 27.5513 50 27.344 50Z" fill="#101820"/>
<path d="M35.9377 13.281H26.5628C25.9412 13.2805 25.3453 13.0334 24.9059 12.5939C24.4664 12.1544 24.2193 11.5585 24.2188 10.937V7.81202C24.2188 7.60475 24.3011 7.40597 24.4476 7.25941C24.5942 7.11285 24.793 7.03052 25.0003 7.03052C25.2075 7.03052 25.4063 7.11285 25.5529 7.25941C25.6994 7.40597 25.7818 7.60475 25.7818 7.81202V10.937C25.782 11.1441 25.8644 11.3426 26.0108 11.489C26.1572 11.6354 26.3557 11.7178 26.5628 11.718H35.9377C36.145 11.718 36.3438 11.8004 36.4904 11.9469C36.6369 12.0935 36.7193 12.2922 36.7193 12.4995C36.7193 12.7068 36.6369 12.9056 36.4904 13.0521C36.3438 13.1987 36.145 13.281 35.9377 13.281Z" fill="#101820"/>
<path d="M25 20.313H13.281C13.0739 20.313 12.8752 20.2307 12.7288 20.0842C12.5823 19.9378 12.5 19.7391 12.5 19.532C12.5 19.3248 12.5823 19.1262 12.7288 18.9797C12.8752 18.8333 13.0739 18.751 13.281 18.751H25C25.2073 18.751 25.406 18.8333 25.5526 18.9799C25.6992 19.1264 25.7815 19.3252 25.7815 19.5325C25.7815 19.7397 25.6992 19.9385 25.5526 20.0851C25.406 20.2316 25.2073 20.313 25 20.313Z" fill="#101820"/>
<path d="M17.969 32.813H13.281C13.0739 32.813 12.8752 32.7307 12.7288 32.5842C12.5823 32.4377 12.5 32.2391 12.5 32.032C12.5 31.8248 12.5823 31.6262 12.7288 31.4797C12.8752 31.3333 13.0739 31.251 13.281 31.251H17.969C18.1763 31.251 18.375 31.3333 18.5216 31.4799C18.6682 31.6264 18.7505 31.8252 18.7505 32.0325C18.7505 32.2397 18.6682 32.4385 18.5216 32.5851C18.375 32.7316 18.1763 32.813 17.969 32.813Z" fill="#101820"/>
<path d="M19.531 39.063H13.281C13.0739 39.063 12.8752 38.9807 12.7288 38.8342C12.5823 38.6877 12.5 38.4891 12.5 38.282C12.5 38.0748 12.5823 37.8762 12.7288 37.7297C12.8752 37.5833 13.0739 37.501 13.281 37.501H19.531C19.7383 37.501 19.937 37.5833 20.0836 37.7299C20.2302 37.8764 20.3125 38.0752 20.3125 38.2825C20.3125 38.4897 20.2302 38.6885 20.0836 38.8351C19.937 38.9816 19.7383 39.063 19.531 39.063Z" fill="#101820"/>
<path d="M7.813 21.094C7.50383 21.094 7.20159 21.0023 6.94454 20.8305C6.68748 20.6588 6.48715 20.4146 6.36888 20.1289C6.25061 19.8433 6.21972 19.5289 6.28011 19.2257C6.3405 18.9225 6.48946 18.644 6.70815 18.4255C6.92684 18.2069 7.20543 18.0581 7.50869 17.9979C7.81194 17.9377 8.12624 17.9688 8.41183 18.0873C8.69741 18.2057 8.94145 18.4062 9.11307 18.6634C9.2847 18.9206 9.3762 19.2228 9.376 19.532C9.37574 19.9463 9.21112 20.3436 8.91827 20.6366C8.62543 20.9296 8.22828 21.0945 7.814 21.095" fill="#101820"/>
<path d="M7.813 33.594C7.50383 33.594 7.20159 33.5023 6.94454 33.3305C6.68748 33.1587 6.48715 32.9146 6.36888 32.6289C6.25061 32.3433 6.21972 32.0289 6.28011 31.7257C6.3405 31.4225 6.48946 31.144 6.70815 30.9254C6.92684 30.7069 7.20543 30.5581 7.50869 30.4979C7.81194 30.4377 8.12624 30.4688 8.41183 30.5873C8.69741 30.7057 8.94145 30.9062 9.11307 31.1634C9.2847 31.4205 9.3762 31.7228 9.376 32.032C9.37574 32.4463 9.21112 32.8435 8.91827 33.1366C8.62543 33.4296 8.22828 33.5945 7.814 33.595" fill="#101820"/>
<path d="M19.531 26.563H13.281C13.0739 26.563 12.8752 26.4807 12.7288 26.3342C12.5823 26.1877 12.5 25.9891 12.5 25.782C12.5 25.5748 12.5823 25.3762 12.7288 25.2297C12.8752 25.0833 13.0739 25.001 13.281 25.001H19.531C19.7383 25.001 19.937 25.0833 20.0836 25.2299C20.2302 25.3764 20.3125 25.5752 20.3125 25.7825C20.3125 25.9897 20.2302 26.1885 20.0836 26.3351C19.937 26.4816 19.7383 26.563 19.531 26.563Z" fill="#101820"/>
<path d="M7.813 27.344C7.50383 27.344 7.20159 27.2523 6.94454 27.0805C6.68748 26.9088 6.48715 26.6646 6.36888 26.3789C6.25061 26.0933 6.21972 25.7789 6.28011 25.4757C6.3405 25.1725 6.48946 24.894 6.70815 24.6755C6.92684 24.4569 7.20543 24.3081 7.50869 24.2479C7.81194 24.1877 8.12624 24.2188 8.41183 24.3373C8.69741 24.4557 8.94145 24.6562 9.11307 24.9134C9.2847 25.1706 9.3762 25.4728 9.376 25.782C9.37574 26.1963 9.21112 26.5936 8.91827 26.8866C8.62543 27.1796 8.22828 27.3445 7.814 27.345" fill="#101820"/>
<path d="M7.813 39.844C7.50383 39.844 7.20159 39.7523 6.94454 39.5805C6.68748 39.4087 6.48715 39.1646 6.36888 38.8789C6.25061 38.5933 6.21972 38.2789 6.28011 37.9757C6.3405 37.6725 6.48946 37.394 6.70815 37.1754C6.92684 36.9569 7.20543 36.8081 7.50869 36.7479C7.81194 36.6877 8.12624 36.7188 8.41183 36.8373C8.69741 36.9557 8.94145 37.1562 9.11307 37.4134C9.2847 37.6705 9.3762 37.9728 9.376 38.282C9.37574 38.6963 9.21112 39.0935 8.91827 39.3866C8.62543 39.6796 8.22828 39.8445 7.814 39.845" fill="#101820"/>
</g>
</g>
<defs>
<clipPath id="clip0_65_1301">
<rect width="50" height="50" fill="white"/>
</clipPath>
</defs>
</svg>
