<svg width="385" height="443" viewBox="0 0 385 443" fill="none" xmlns="http://www.w3.org/2000/svg">
<path d="M254.595 207.547C252.324 227.707 260.891 247.48 277.033 258.971C295.301 271.975 320.301 272.266 339.689 259.541" stroke="#101820" stroke-width="3" stroke-miterlimit="10"/>
<path d="M262.106 198.98C257.506 224.968 270.396 249.45 291.157 257.916C312.822 266.749 333.602 254.297 335.969 252.829" stroke="#101820" stroke-width="3" stroke-miterlimit="10"/>
<path d="M123.677 305.285L104.055 299.995L103.131 291.984L116.249 219.596L104.055 207.814L67.0261 165.058C64.8873 161.831 62.7423 158.604 60.6035 155.383C62.622 154.694 64.6469 153.998 66.6654 153.308C90.9381 149.372 115.217 145.436 139.49 141.5C149.677 118.519 159.865 95.5366 170.059 72.5547L188.864 72.7762L177.449 99.9913L158.41 142.994L155.347 146.999L94.2981 157.376L86.7366 159.591L88.521 165.754L135.314 219.109L128.031 270.407L123.684 305.291L123.677 305.285Z" fill="#101820"/>
<path d="M165.971 281.516C162.617 281.579 159.257 281.636 155.904 281.699L155.391 309.819L155.119 323.544L153.436 349.316L151.987 362.788L148.95 383.321L146.279 408.29L153.29 408.973L157.34 404.075L160.023 381.827L164.674 349.531L166.774 319.614L167.559 294.962C167.034 290.482 166.509 286.002 165.984 281.516H165.971Z" fill="#101820"/>
<path d="M167.501 280.207C167.868 296.766 167.558 314.686 166.223 333.777C164.287 361.403 160.547 386.486 156.061 408.626C155.884 408.778 153.087 411.069 149.727 409.974C147.367 409.208 146.272 407.272 146.025 406.816C150.714 387.365 154.821 364.339 156.744 338.326C158.231 318.179 158.155 299.721 157.251 283.365" stroke="#101820" stroke-width="3" stroke-miterlimit="10"/>
<path d="M250.229 303.295L220.224 301.542L176.107 274.346L188.858 266.449L250.229 303.295Z" fill="#101820"/>
<path d="M156.631 146.363C151.404 143.984 146.184 141.605 140.957 139.226C150.461 117.244 159.965 95.2677 169.469 73.2856C169.773 72.5832 170.475 72.1339 171.241 72.1529C177.657 72.3111 184.073 72.463 190.496 72.6212" stroke="#101820" stroke-width="3" stroke-miterlimit="10"/>
<path d="M250.932 303.335C241.782 302.823 232.639 302.31 223.489 301.798C222.426 301.741 221.394 301.424 220.477 300.874C205.961 292.18 191.446 283.479 176.924 274.785" stroke="#101820" stroke-width="3" stroke-miterlimit="10"/>
<path d="M123.677 304.356C118.02 302.977 112.363 301.604 106.706 300.224C104.94 299.794 103.801 298.073 104.099 296.282C108.471 269.94 112.837 243.592 117.21 217.25" stroke="#101820" stroke-width="3" stroke-miterlimit="10"/>
<path d="M205.018 284.778C206.391 298.446 207.372 312.962 207.771 328.262C208.492 355.749 207.233 381.053 204.911 403.744C204.752 403.909 202.19 406.465 198.735 405.699C196.311 405.168 195.033 403.345 194.742 402.915C197.526 383.097 199.38 359.786 198.773 333.71C198.305 313.512 196.438 295.149 193.951 278.957" stroke="#101820" stroke-width="3" stroke-miterlimit="10"/>
<path d="M206.486 284.826L193.957 278.859L196.172 306.891L197.228 320.584L198.051 346.394L197.912 359.942L196.88 380.671L196.64 405.785H203.683L207.239 400.521L207.751 378.114L209.251 345.521L208.441 315.541L206.834 290.932L206.486 284.826Z" fill="#101820"/>
<path d="M254.98 426.735L242.92 428.38L228.246 429.678L213.433 428.766L190.002 425.508L191.331 416.972L193.368 411.486L193.178 408.005L191.723 405.266L192.754 400.311L205.65 397.824L211.193 399.963L214.047 401.456L231.941 395.844L244.9 400.887L251.57 411.422L254.98 426.735Z" fill="#3D464D"/>
<path d="M254.405 428.39L242.92 428.378L197.355 427.188L190.395 426.758L192.527 433.56L216.863 438.78L241.655 438.091L251.519 437.059L254.405 428.39Z" fill="#3D464D"/>
<path d="M210.669 403.17C210.296 402.36 209.961 401.531 209.644 400.702C209.48 400.114 209.03 399.772 208.48 399.842H208.227C203.374 399.911 198.508 400.525 193.869 402.012C193.54 402.139 193.028 402.177 192.914 402.62C192.781 402.949 192.952 403.24 193.079 403.569L193.844 405.543C194.357 406.865 194.838 408.194 195.306 409.536L195.578 410.01C193.414 414.604 192.028 419.533 192.313 424.576C192.42 427.449 193.028 430.271 193.964 432.992L192.939 432.068C202.152 434.536 211.625 435.998 221.142 436.472C230.646 436.928 240.194 436.384 249.584 434.859L247.926 436.017C253.571 425.526 252.09 411.118 242.712 403.354C236.011 397.924 226.349 398.013 218.611 401.177C211.992 403.79 206.601 409.061 203.5 415.509C203.291 415.952 202.76 416.135 202.323 415.914C201.925 415.711 201.741 415.249 201.893 414.838C203.184 411.231 205.145 407.815 207.721 404.872C217.693 393.09 236.682 390.021 248.059 401.601C257.405 411.143 258.519 426.899 251.906 438.2L251.324 439.219L250.249 439.358C230.848 442.028 210.884 440.592 192.098 435.055L191.351 434.834L191.073 434.131C187.675 426.291 188.004 416.534 192.984 409.434C192.984 409.428 192.933 410.662 192.927 410.618C191.883 408.846 190.839 406.853 189.877 405.037C188.618 403.037 189.168 400.228 191.199 398.931C191.579 398.652 192.123 398.469 192.553 398.291C197.046 396.583 201.868 395.628 206.683 395.722C207.063 395.729 207.98 395.786 208.347 395.811C209.777 395.862 211.214 396.545 212.036 397.69C212.498 398.285 212.846 399.177 212.903 399.88C213.023 400.759 213.137 401.645 213.194 402.537C213.295 404.005 211.264 404.499 210.663 403.189L210.669 403.17Z" fill="#101820"/>
<path d="M253.343 429.276C232.664 433.32 211.062 432.484 190.775 426.802C190.263 426.663 189.965 426.132 190.105 425.619C190.237 425.138 190.725 424.841 191.206 424.929C193.749 425.398 196.299 425.802 198.856 426.144C211.581 427.935 224.502 428.118 237.283 426.973C242.383 426.505 247.458 425.739 252.489 424.815C255.418 424.36 256.266 428.606 253.336 429.283L253.343 429.276Z" fill="#101820"/>
<path d="M242.902 414.59C242.022 413.293 241.598 411.768 240.624 410.515C237.859 406.51 233.24 403.903 228.38 403.434C227.064 403.314 227.089 401.365 228.412 401.283C234.239 400.91 240.143 403.39 244.016 407.794C245.275 409.313 246.673 410.907 247.122 412.888C247.515 415.343 244.307 416.602 242.908 414.59H242.902Z" fill="white"/>
<path d="M205.259 428.942L193.198 430.587L178.524 431.885L163.711 430.973L140.28 427.715L141.609 419.179L143.647 413.693L143.457 410.212L142.001 407.473L143.033 402.518L155.928 400.031L161.471 402.17L164.319 403.663L182.22 398.051L195.179 403.094L201.842 413.629L205.259 428.942Z" fill="#3D464D"/>
<path d="M204.683 430.597L193.198 430.585L147.627 429.395L140.673 428.965L142.805 435.767L167.135 440.987L191.933 440.298L201.791 439.266L204.683 430.597Z" fill="#3D464D"/>
<path d="M160.99 404.596C161.091 403.717 161.053 402.66 160.364 402.204C158.212 401.008 155.871 401.578 153.34 401.578C150.531 401.685 147.765 401.761 145.076 402.394C143.361 402.616 143.494 404.451 143.633 405.906C143.804 408.203 144.614 410.348 145.918 412.246C144.785 414.132 144.083 416.258 143.57 418.352C142.045 423.864 142.045 429.875 144.254 435.209L143.222 434.279C147.835 435.519 152.505 436.513 157.213 437.253C166.628 438.708 176.183 439.113 185.693 438.582C190.439 438.316 195.172 437.816 199.861 437.069L198.203 438.227C204.183 427.496 202.291 412.158 191.996 404.843C182.403 398.11 168.216 401.299 160.066 409.051C157.459 411.481 155.397 414.486 153.777 417.732C153.562 418.162 153.036 418.34 152.606 418.125C152.207 417.922 152.024 417.46 152.176 417.049C153.467 413.442 155.428 410.025 158.01 407.089C167.64 395.769 185.624 392.365 197.209 402.761C207.555 412.082 208.922 428.647 202.202 440.41L201.645 441.416C186.737 443.644 171.469 443.372 156.649 440.626C151.575 439.714 146.563 438.512 141.628 437.05L141.362 436.342C138.217 428.11 138.198 419.093 143.279 411.639L143.298 412.974C142.058 410.974 141.115 408.646 140.742 406.311C140.02 403.35 140.584 400.015 143.969 398.927C146.924 397.844 150.075 397.471 153.144 397.319C155.409 397.193 158.149 396.959 160.49 397.914C163.806 399.104 165.166 402.495 163.445 405.52C162.705 406.855 160.68 406.058 161.003 404.596H160.99Z" fill="#101820"/>
<path d="M193.172 416.801C192.293 415.504 191.869 413.979 190.894 412.726C188.129 408.721 183.51 406.114 178.651 405.645C177.334 405.525 177.36 403.576 178.682 403.494C184.51 403.121 190.414 405.601 194.286 410.005C195.545 411.524 196.944 413.118 197.393 415.099C197.785 417.554 194.577 418.807 193.179 416.801H193.172Z" fill="white"/>
<g opacity="0.38">
<path d="M146.525 420.512L147.588 422.942L146.228 425.137L141.697 422.461L146.525 420.512Z" fill="#101820"/>
<path d="M149.151 421.084L146.613 420.464L147.765 415.301L151.131 419.319L149.144 421.084H149.151Z" fill="#101820"/>
<path d="M148.878 425L150.555 426.987L146.632 430.448L146.271 425.259L148.878 425Z" fill="#101820"/>
<path d="M151.403 421.992L151.207 419.359L156.453 418.859L153.662 423.314L151.397 421.992H151.403Z" fill="#101820"/>
<path d="M151.233 424.411L153.676 423.418L155.757 428.221L150.683 426.955L151.239 424.418L151.233 424.411Z" fill="#101820"/>
</g>
<path d="M203.62 431.491C182.941 435.528 161.339 434.699 141.053 429.017C140.54 428.878 140.243 428.346 140.382 427.834C140.515 427.353 141.002 427.056 141.483 427.144C144.027 427.612 146.577 428.017 149.133 428.359C161.858 430.15 174.779 430.333 187.561 429.188C192.661 428.72 197.735 427.954 202.766 427.03C205.696 426.575 206.544 430.82 203.614 431.498L203.62 431.491Z" fill="#101820"/>
<path d="M100.277 180.167L87.0773 186.242L85.584 183.331L98.5683 177.035L100.277 180.167Z" fill="#3D464D"/>
<path d="M105.757 187.254L92.3486 193.05L89.7227 187.918L103.283 181.793L105.757 187.254Z" fill="#3D464D"/>
<path d="M129.112 253.832L114.697 252.13L115.071 250.168L129.574 252.111L129.112 253.832Z" fill="#3D464D"/>
<path d="M126.802 264.343L112.673 261.799L114.179 254.719L128.169 256.725L126.802 264.343Z" fill="#3D464D"/>
<path d="M142.495 141.004C115.014 145.414 87.5328 149.831 60.0583 154.241C59.5204 154.33 59.2926 154.969 59.647 155.38C78.3324 176.761 97.0179 198.142 115.697 219.523C122.506 220.359 129.32 221.2 136.129 222.035" stroke="#101820" stroke-width="3" stroke-miterlimit="10"/>
<path d="M187.338 74.3938L157.478 145.175C157.066 146.155 156.263 146.832 155.339 146.991L88.5635 158.342C86.2349 158.741 85.3048 162.088 86.9879 164.006L135.306 219.1C135.976 219.866 136.28 220.961 136.122 222.043L122.828 301.391C122.429 304.105 124.865 306.175 126.947 304.89L188.559 266.602C189.388 266.095 190.375 266.095 191.204 266.602L250.93 303.333C253.012 304.612 255.448 302.543 255.05 299.834L243.641 222.043C243.483 220.967 243.786 219.866 244.457 219.1L292.775 164.006C294.458 162.082 293.528 158.735 291.199 158.342L224.424 146.991C223.5 146.832 222.696 146.155 222.285 145.175L192.425 74.3938C191.381 71.926 188.375 71.926 187.331 74.3938H187.338Z" fill="#832C41" stroke="#101820" stroke-width="3" stroke-miterlimit="10"/>
<path d="M110.287 211.59C109.648 220.36 106.503 247.885 84.4007 269.899C74.2006 280.061 63.3424 285.68 55.6543 288.793" stroke="#101820" stroke-width="3" stroke-miterlimit="10"/>
<path opacity="0.46" d="M161.071 213.131C168.62 211.565 173.681 205.197 172.377 198.908C171.072 192.619 163.895 188.79 156.346 190.356C148.798 191.922 143.736 198.29 145.041 204.579C146.346 210.868 153.523 214.697 161.071 213.131Z" fill="#B57D86"/>
<path d="M212.788 197.761C214.611 194.666 216.68 189.946 216.737 184.08C216.794 178.55 215.104 168.166 208.606 166.015C206.53 165.332 203.809 165.433 201.766 166.667C195.97 170.172 195.584 182.827 200.513 198.064C201.607 197.495 203.784 196.539 206.701 196.482C209.517 196.432 211.675 197.248 212.788 197.761Z" fill="white" stroke="#101820" stroke-width="3" stroke-miterlimit="10"/>
<path d="M185.042 196.497C186.674 193.282 188.459 188.429 188.155 182.544C187.87 176.995 185.535 166.693 178.898 164.941C176.778 164.384 174.057 164.65 172.083 166.016C166.489 169.883 166.888 182.595 172.76 197.56C173.817 196.921 175.949 195.826 178.86 195.592C181.682 195.364 183.89 196.054 185.035 196.497H185.042Z" fill="white" stroke="#101820" stroke-width="3" stroke-miterlimit="10"/>
<path opacity="0.5" d="M212.32 213.381L212.389 220.322L209.669 225.84L204.341 221.796L193.096 221.442L183.447 222.999L178.454 227.365L170.716 214.57L170.058 207.945L185.459 212.185L209.327 210.951L212.32 213.381Z" fill="#101820"/>
<path d="M212.131 200.264C214.213 196.012 217.655 187.514 215.902 179.016C215.44 176.789 214.719 173.524 211.941 171.954C211.694 171.815 208.695 170.189 205.873 171.777C203.696 172.999 202.481 175.631 202.88 178.402C204.405 180.566 205.93 182.724 207.448 184.888L201.349 186.47L200.729 191.69C201.108 192.203 201.931 193.437 202.102 195.234C202.291 197.17 201.621 198.625 201.33 199.189C202.348 198.809 204.367 198.208 206.93 198.48C209.41 198.739 211.213 199.695 212.131 200.264Z" fill="#101820"/>
<path d="M185.016 197.093C186.636 192.929 188.908 185.133 186.168 177.483C185.377 175.269 183.795 170.852 180.492 170.251C178.733 169.934 177.252 170.827 176.904 171.042C174.494 172.503 173.279 175.711 173.842 179.204C175.379 180.982 176.917 182.76 178.455 184.539C176.67 185.462 174.892 186.386 173.108 187.31C173.095 189.987 173.082 192.67 173.063 195.346C173.994 194.935 176.278 194.074 179.227 194.486C182.251 194.91 184.244 196.441 185.016 197.093Z" fill="#101820"/>
<path d="M202.891 212.594C203.005 215.296 200.803 217.2 198.892 216.972C197.45 216.802 196.121 215.41 195.855 213.556C195.855 213.537 195.823 213.537 195.823 213.556C195.362 215.985 193.084 217.548 190.913 217.181C189.053 216.865 187.547 215.175 187.414 213.087" fill="white"/>
<path d="M202.891 212.594C203.005 215.296 200.803 217.2 198.892 216.972C197.45 216.802 196.121 215.41 195.855 213.556C195.855 213.537 195.823 213.537 195.823 213.556C195.362 215.985 193.084 217.548 190.913 217.181C189.053 216.865 187.547 215.175 187.414 213.087" stroke="white" stroke-width="3" stroke-miterlimit="10"/>
<path d="M218.109 207.975C207.871 215.074 194.444 217.068 182.39 214.138C178.334 213.151 174.411 211.638 170.779 209.601C169.678 208.981 169.285 207.582 169.906 206.481C170.5 205.418 171.823 205.02 172.899 205.539C176.309 207.178 179.884 208.437 183.548 209.329C190.913 211.107 198.614 211.139 206.03 209.525C209.757 208.721 213.427 207.526 217.008 205.994C218.249 205.456 219.236 207.203 218.109 207.975Z" fill="#101820"/>
<path d="M165.084 204.149C165.532 203.749 165.389 202.856 164.763 202.154C164.138 201.452 163.267 201.208 162.818 201.608C162.37 202.008 162.513 202.901 163.139 203.602C163.764 204.304 164.635 204.549 165.084 204.149Z" fill="#101820"/>
<path d="M160.324 203.559C160.773 203.159 160.629 202.266 160.004 201.564C159.378 200.862 158.507 200.618 158.058 201.018C157.61 201.418 157.753 202.311 158.379 203.013C159.004 203.714 159.875 203.959 160.324 203.559Z" fill="#101820"/>
<path d="M162.002 208.813C162.45 208.413 162.307 207.52 161.681 206.818C161.056 206.116 160.185 205.872 159.736 206.272C159.288 206.672 159.431 207.565 160.057 208.267C160.682 208.968 161.553 209.213 162.002 208.813Z" fill="#101820"/>
<path d="M187.035 198.965C180.821 196.282 173.873 197.503 168.697 201.819C168.014 202.445 166.913 201.705 167.236 200.844C169.558 194.599 176.98 191.125 183.175 193.865C185.162 194.687 186.896 195.953 188.129 197.617C188.427 198.016 188.338 198.579 187.94 198.87C187.668 199.072 187.32 199.091 187.035 198.965Z" fill="#101820"/>
<path d="M214.401 203.093C210.029 200.41 204.891 200.119 200.012 201.53C199.05 201.853 198.278 200.613 198.981 199.898C203.638 195.006 212.18 195.968 216.04 201.353C216.818 202.435 215.502 203.802 214.395 203.093H214.401Z" fill="#101820"/>
<path d="M189.724 203.617C193.736 203.529 198.684 201.257 197.874 196.632C197.399 193.961 195.007 191.43 192.103 192.088C191.078 192.304 189.958 192.917 188.939 193.708C188.591 194.006 188.034 193.62 188.18 193.189C188.636 191.702 189.572 190.437 190.888 189.538C195.261 186.577 200.924 190.007 202.278 194.651C203.468 198.397 201.898 202.966 198.33 204.845C195.393 206.49 192.015 206.376 189.395 205.161C188.617 204.807 188.882 203.605 189.73 203.611L189.724 203.617Z" fill="#101820"/>
<path d="M213.782 162.814C211.864 161.764 210.023 161.644 207.91 161.314C206.941 161.144 206.296 160.226 206.467 159.258C207.087 157.031 210.555 156.727 212.409 157.442C214.161 158.062 215.648 159.467 216.11 161.27C216.306 162.055 215.825 162.846 215.041 163.042C214.592 163.168 214.168 163.01 213.782 162.814Z" fill="#101820"/>
<path d="M212.977 210.772C218.311 228.654 198.778 236.848 184.218 231.723C178.479 229.78 173.689 225.288 171.012 219.915C169.981 217.922 169.196 215.828 168.62 213.664C168.424 212.949 168.285 212.196 168.462 211.411C168.76 210.082 170.082 209.247 171.411 209.544C172.778 209.829 173.455 211.221 173.651 212.436C174.056 214.252 174.657 216.049 175.448 217.726C176.486 219.979 177.897 222.016 179.631 223.718C186.49 230.476 199.588 231.267 207.111 225.003C211.098 221.712 211.838 216.252 210.649 211.367C210.319 209.855 212.528 209.285 212.977 210.772Z" fill="#101820"/>
<path d="M197.038 226.766C195.899 223.318 193.545 222.944 190.35 223.912C187.262 224.843 184.478 226.791 181.801 228.683C179.536 230.31 176.885 227.298 178.758 225.254C181.561 222.324 185.313 220.116 189.375 219.439C194.298 218.515 199.297 220.919 198.886 226.519C198.823 227.557 197.355 227.734 197.038 226.76V226.766Z" fill="#101820"/>
<path d="M196.722 237.482C193.501 240.342 188.49 240.678 184.668 238.881C183.345 238.21 179.701 236.154 181.472 234.477C181.858 234.154 182.358 234.091 182.801 234.243C183.928 234.597 184.972 234.926 186.022 235.16C189.268 235.957 192.419 235.749 195.741 235.318C196.925 235.16 197.614 236.71 196.728 237.482H196.722Z" fill="#101820"/>
<path d="M173.716 201.287C176.126 205.988 172.88 212.082 168.078 213.683C166.496 214.227 164.832 214.391 163.243 213.961C162.611 213.809 162.484 212.898 163.041 212.575C166.274 210.671 168.78 208.393 170.299 205.014C170.798 203.957 171.248 202.748 171.729 201.426C172.013 200.546 173.323 200.47 173.722 201.293L173.716 201.287Z" fill="#101820"/>
<path d="M207.295 226.873C205.991 224.355 203.391 222.893 200.562 223.121C199.62 223.178 198.601 223.438 197.519 223.684C197.101 223.798 196.747 223.292 196.981 222.938C197.671 221.811 198.784 221.096 200.037 220.679C203.954 219.274 208.377 222.387 209.041 226.355C209.231 227.437 207.725 227.867 207.289 226.88L207.295 226.873Z" fill="#101820"/>
<path d="M226.247 156.457C239.687 158.514 253.127 160.564 266.567 162.62" stroke="#101820" stroke-width="3" stroke-miterlimit="10" stroke-linecap="round"/>
<path d="M274.318 164.137L281.968 164.953" stroke="#101820" stroke-width="3" stroke-miterlimit="10" stroke-linecap="round"/>
<path d="M142.495 236.332L141.584 243.349" stroke="#101820" stroke-width="3" stroke-miterlimit="10" stroke-linecap="round"/>
<path d="M140.325 251.223L135.066 286.227" stroke="#101820" stroke-width="3" stroke-miterlimit="10" stroke-linecap="round"/>
<path d="M53.1049 296.776L55.8385 294.099L55.655 288.797L51.8204 281.273L47.2772 276.578L42.2531 276.869L36.0393 280.723L29.5725 280.381L23.8776 284.576L19.3787 285.823L10.9503 283.646L8.51417 287.519L9.26716 292.543L14.4178 294.194L15.2911 296.529L4.59105 312.627L2.04102 321.694L7.4891 328.003L11.9184 333.058L16.9299 332.597L22.3653 333.546L29.4333 321.561L34.9257 314.639L45.322 309.121L49.3084 304.394L51.0358 297.504L53.1049 296.776Z" fill="white"/>
<path d="M29.8694 313.097C25.4085 311.743 21.5296 308.535 19.0492 304.599C18.2203 303.277 17.5495 301.866 17.1129 300.379C16.9421 299.796 17.2775 299.195 17.8596 299.024C18.3152 298.892 18.7834 299.069 19.0492 299.436C21.5043 302.815 24.2125 305.903 27.5219 308.453C28.6102 309.307 29.7555 310.098 30.9261 310.908C32.0651 311.699 31.1919 313.489 29.8758 313.097H29.8694Z" fill="#101820"/>
<path d="M28.6995 299.346C27.9465 295.941 29.8828 292.132 33.034 290.632C34.3248 290.038 37.5456 289.177 37.4949 291.442C37.4443 291.841 37.2102 292.151 36.8938 292.36C35.5207 293.353 34.3374 294.125 33.2175 295.302C32.0911 296.492 31.3445 297.947 30.6927 299.516C30.3194 300.447 28.9083 300.307 28.7059 299.346H28.6995Z" fill="#101820"/>
<path d="M25.3837 311.513C21.8592 315.632 19.2649 320.562 18.1449 325.858C17.7779 327.598 17.5185 329.332 17.1451 331.078C16.9363 332.135 15.9049 332.825 14.8482 332.603C13.956 332.413 13.3359 331.635 13.3106 330.762C13.2979 325.731 15.4683 320.878 18.1576 316.733C19.8091 314.285 21.8213 312.051 24.0992 310.197C24.4915 309.874 25.0737 309.931 25.3964 310.33C25.6874 310.684 25.6684 311.184 25.3774 311.519L25.3837 311.513Z" fill="#101820"/>
<path d="M42.7337 286.613C37.8298 280.463 30.1734 280.121 25.029 286.132C22.7511 287.525 19.7518 288.315 16.9993 287.714C15.6768 287.531 13.905 286.474 12.9369 286.189C12.8104 286.177 12.7281 286.158 12.5826 286.189C9.9313 286.974 9.68453 290.03 12.1333 291.296C13.1584 291.726 14.5884 291.416 15.8983 291.568C18.423 291.764 20.9414 293.118 22.4727 295.042C23.0991 295.788 22.1373 296.877 21.321 296.352C18.7773 294.865 16.7208 294.649 13.7469 295.168C10.7349 295.693 7.51415 293.517 6.59665 290.555C5.29316 286.879 8.07098 282.646 11.8359 281.969C13.3482 281.627 15.0503 282.285 16.2842 282.962C18.4799 284.127 20.7262 283.88 22.9915 282.861C22.9915 282.861 22.3145 283.437 22.3398 283.412C25.4846 278.482 32.2994 276.274 37.7096 278.641C40.8164 279.95 43.3032 282.665 44.3219 285.816C44.6257 286.791 43.3285 287.43 42.74 286.607L42.7337 286.613Z" fill="#101820"/>
<path d="M20.2955 305.993C16.2268 310.068 13.082 315.016 11.2786 320.477C10.6712 322.261 10.1586 324.077 9.70306 325.919C9.08928 328.247 5.65338 327.596 5.92547 325.21C6.46332 321.015 8.15279 317.003 10.456 313.485C12.7087 309.973 15.6574 306.898 19.0616 304.519C20.0234 303.861 21.1181 305.17 20.2955 305.993Z" fill="#101820"/>
<path d="M18.6569 294.105C14.6135 299.496 11.0131 304.995 7.85563 310.879C6.44457 313.626 4.97023 316.65 4.56527 319.624C4.17295 322.611 5.22967 323.845 8.09608 324.617L10.2032 325.148C10.1209 325.68 9.55776 327.458 9.67799 328.008C9.83618 329.293 10.8992 330.419 12.3229 329.856C12.8924 329.66 13.4809 329.274 13.9428 328.736L16.7712 325.781L17.366 329.635C17.6698 331.172 18.3025 333.096 20.0553 332.653C20.9412 332.419 21.3082 331.969 21.8144 331.153C22.3522 330.255 22.8268 329.059 23.3203 327.863C24.2948 325.433 25.4338 322.915 26.8448 320.58C28.2242 318.226 29.8694 315.701 32.1031 313.961C34.1026 312.12 37.2285 311.43 39.5191 310.424C41.6704 309.399 43.7459 308.038 45.4291 306.45C49.1877 303.021 49.5736 298.882 46.5807 294.573C46.239 294.067 46.3719 293.384 46.8781 293.042C47.3273 292.738 47.9095 292.808 48.2765 293.181C50.314 295.257 51.8579 298.003 51.8453 301.065C51.6681 308.412 43.7649 313.569 37.4309 315.524C34.0646 316.713 32.0018 319.631 30.1985 322.611C28.895 324.718 27.8636 326.945 26.8765 329.337C26.0475 331.242 25.2756 333.57 23.4849 335.121C18.9037 338.639 14.2402 335.405 13.5568 330.204C13.5568 330.204 16.9801 331.096 16.9737 331.103C12.6646 337.013 4.22358 333.589 5.41317 326.3L7.03937 328.9C2.1228 327.875 -0.680331 324.066 0.142259 319.042C1.04711 313.543 4.01476 308.981 6.8875 304.419C9.73493 300.028 13.2721 295.927 17.7394 293.124C18.3721 292.732 19.0935 293.523 18.6506 294.111L18.6569 294.105Z" fill="#101820"/>
<path d="M49.6621 296.707C52.1046 296.365 54.6356 294.618 54.6483 292.043C54.4964 289.442 52.6487 286.816 51.1491 284.545C50.2569 283.267 49.3774 281.894 48.5168 280.774C46.0047 276.8 41.4046 278.901 38.4939 281.292C38.1142 281.628 37.5194 281.584 37.2094 281.179C36.9689 280.868 36.9626 280.451 37.1714 280.147C38.6584 277.964 40.8287 276.123 43.48 275.408C48.9281 274.003 51.8262 278.496 54.3888 282.368C56.2682 285.235 58.2867 288.563 58.0462 292.214C57.7994 296.226 53.3764 299.117 49.6241 298.497C48.5801 298.333 48.637 296.82 49.6621 296.707Z" fill="#101820"/>
<path d="M379.939 209.516C374.484 201 365.056 198.987 357.634 195.292C358.197 194.28 358.596 193.16 358.773 191.945C359.539 186.623 355.843 181.688 350.522 180.922C349.231 180.738 347.965 180.821 346.776 181.118C346.459 178.809 346.523 175.917 348.029 173.411C351.053 168.374 357.318 169.172 358.583 165.318C359.855 161.446 355.242 155.422 350.085 152.916C338.67 147.373 320.086 156.864 318.207 167.33C316.523 176.708 328.318 186.446 325.445 189.534C323.825 191.274 319.934 188.338 316.226 190.964C313.467 192.919 312.429 196.811 312.056 198.19C311.55 200.088 311.436 201.974 311.385 202.841C311.385 202.841 311.265 204.91 311.449 207.042C311.721 210.092 312.942 215.028 315.252 219.438C316.087 221.033 328.014 243.274 340.619 241.49C347.877 240.465 348.301 232.454 355.438 231.701C365.322 230.657 370.719 245.325 376.592 243.686C382.843 241.939 388.032 222.14 379.945 209.516H379.939Z" fill="#CAE4EB"/>
<path d="M358.748 154.827L353.496 152.726L356.647 157.421L354.54 162.673L359.242 159.516L364.487 161.623L361.336 156.928L363.443 151.676L358.748 154.827Z" fill="#66ADC2"/>
<path d="M330.116 182.904L334.248 184.555L331.768 180.866L333.425 176.734L329.73 179.215L325.604 177.557L328.079 181.252L326.427 185.378L330.116 182.904Z" fill="#66ADC2"/>
<path d="M363.778 172.477L357.665 176.577L350.838 173.837L354.938 179.943L352.198 186.771L358.311 182.67L365.138 185.41L361.038 179.304L363.778 172.477Z" fill="#97CAD8"/>
<path d="M320.662 220.423L316.549 218.772L319.017 222.454L317.365 226.574L321.048 224.1L325.167 225.751L322.693 222.068L324.344 217.949L320.662 220.423Z" fill="#97CAD8"/>
<path d="M328.767 158.032L332.734 159.62L330.348 156.077L331.943 152.109L328.393 154.489L324.426 152.9L326.805 156.444L325.217 160.411L328.767 158.032Z" fill="#97CAD8"/>
<path d="M360.633 210.091L356.514 208.44L358.988 212.122L357.336 216.242L361.019 213.768L365.132 215.419L362.664 211.736L364.316 207.617L360.633 210.091Z" fill="#66B1C6"/>
<path d="M315.848 168.363C316.076 166.779 315.293 165.355 314.1 165.183C312.906 165.012 311.754 166.157 311.526 167.741C311.298 169.325 312.081 170.749 313.274 170.92C314.467 171.092 315.62 169.947 315.848 168.363Z" fill="#CAE4EB"/>
<path d="M357.206 239.07C359.357 238.209 360.705 236.522 360.217 235.303C359.729 234.083 357.589 233.791 355.438 234.652C353.287 235.513 351.939 237.2 352.427 238.42C352.915 239.64 355.055 239.931 357.206 239.07Z" fill="#CAE4EB"/>
<path d="M370.139 193.812C370.331 192.48 368.821 191.161 366.766 190.865C364.711 190.569 362.89 191.409 362.699 192.741C362.507 194.073 364.017 195.392 366.072 195.688C368.126 195.983 369.947 195.144 370.139 193.812Z" fill="#CAE4EB"/>
<path d="M337.936 267.232L344.631 267.909L351.42 264.783L359.323 268.321L369.53 266.77L379.8 259.55L381.495 255.336L378.249 249.445L377.75 243.928L374.814 239.087L374.092 234.158L369.688 229.52L358.336 233.24L351.446 234.341L341.764 240.403L340.644 243.44L333.754 244.851L329.944 249.154L333.583 260.208L337.936 267.232Z" fill="white"/>
<path d="M366.132 280.975C356.825 262.138 355.451 249.287 356.034 240.896C356.255 237.739 356.945 232.36 354.154 226.665C350.636 219.49 344.935 218.661 340.746 213.207C337.475 208.942 334.836 201.475 338.095 187.453C338.057 193.439 339 202.064 344.65 209.245C349.143 214.953 352.889 215.023 357.223 220.673C362.969 228.165 361.988 235.347 363.532 245.718C364.696 253.539 367.525 264.751 375.194 278.046C374.96 278.457 373.624 280.716 370.79 281.431C368.518 282 366.677 281.228 366.126 280.969L366.132 280.975Z" fill="#9E7C52"/>
<path d="M366.822 279.412C362.462 270.496 358.722 261.068 357.387 251.172C356.488 244.534 357.975 237.827 356.811 231.265C356.02 226.811 354.033 222.628 350.743 219.483C347.934 216.794 344.365 214.997 341.821 212.017C336.265 205.512 337.202 196.337 338.936 188.566L337.126 187.453C337.126 195.464 338.721 203.683 343.511 210.283C346.061 213.801 349.427 215.959 352.787 218.597C356.59 221.578 359.33 225.691 360.532 230.373C362.506 238.036 362.215 246.16 364.075 253.899C366.252 262.948 369.922 271.541 374.516 279.621L374.712 276.153C372.997 279.039 369.504 280.19 366.398 278.855C365.024 278.267 364.664 282.595 365.879 283.114C369.536 284.683 373.649 283.411 375.693 279.969C376.231 279.064 376.433 277.457 375.889 276.501C371.314 268.465 367.65 259.942 365.569 250.906C363.904 243.667 364.037 236.175 362.399 228.956C360.652 221.261 356.027 216.44 349.889 211.884C342.087 206.088 339.069 196.875 339.062 187.465C339.062 186.206 337.771 184.023 337.253 186.352C335.455 194.407 334.411 203.563 337.974 211.321C341.764 219.572 351.825 222.002 354.54 230.955C355.799 235.125 355.008 239.32 354.951 243.566C354.9 246.989 355.179 250.425 355.717 253.804C357.311 263.859 360.987 273.439 365.442 282.551C366.48 284.677 367.366 280.551 366.815 279.425L366.822 279.412Z" fill="#101820"/>
<path d="M339.48 244.824C336.652 244.679 333.418 246.109 332.842 249.013C332.45 251.981 333.975 255.347 335.177 258.232C335.905 259.865 336.607 261.605 337.335 263.06C339.373 268.103 344.916 266.711 348.769 264.642C349.269 264.345 349.933 264.522 350.199 265.047C350.408 265.446 350.319 265.92 350.016 266.224C347.118 269.141 342.6 271.204 338.442 269.742C334.216 268.382 332.659 263.554 331.052 259.998C329.894 257.277 328.907 254.455 328.704 251.443C328.565 249.196 329.153 246.596 330.862 244.932C333.209 242.603 336.905 241.73 339.917 242.812C341.056 243.229 340.676 244.919 339.486 244.824H339.48Z" fill="#101820"/>
<path d="M340.752 249.617C337.62 242.087 342.828 232.962 350.801 231.336C353.294 230.64 361.507 230.88 359.957 235.025C359.507 236.05 358.387 236.563 357.343 236.303C353.661 235.493 349.75 236.069 346.751 238.448C343.587 240.929 341.999 245.086 342.429 249.18C342.543 250.18 341.126 250.534 340.752 249.61V249.617Z" fill="#101820"/>
<path d="M350.503 248.899L355.742 236.706L365.512 230.941L374.567 232.53L376.117 240.863L379.888 252.424L381.502 255.353L374.643 263.592L365.126 263.522L362.962 259.833L363.392 256.986L362.861 253.771C362.506 253.221 361.874 252.424 360.855 251.955C358.552 250.892 356.628 252.588 354.141 251.917C353.18 251.658 351.838 250.968 350.516 248.918L350.503 248.899Z" fill="white"/>
<path d="M359.26 244.41C356.274 243.885 353.281 241.36 353.635 237.975C353.951 234.792 356.666 232.565 358.994 231.148C367.885 225.636 381.211 227.642 376.009 240.74L374.946 238.437C381.242 239.709 383.122 246.511 379.572 251.497L378.654 248.219C383.299 250.143 386.064 254.604 382.875 259.268C381.394 261.444 379.502 262.975 377.484 264.462C375.408 265.93 373.352 267.323 371.011 268.373C367.417 269.695 363.55 269.904 359.798 270.088C352.736 269.43 346.219 264.184 343.694 257.812C343.422 257.129 344.333 256.591 344.802 257.154C348.858 261.647 354.255 264.918 359.779 265.431C362.411 265.095 366.233 264.848 369.074 263.925C371.087 263.083 373.016 261.862 374.858 260.666C376.465 259.603 378.148 258.312 379.218 256.8C381.723 253.579 376.712 252.257 374.491 251.219L375.984 248.972C377.693 246.555 376.49 243.006 373.94 241.708L372.08 240.936C372.618 239.949 373.352 238.589 373.523 237.475C373.871 235.9 373.896 233.932 372.409 233.046C368.739 231.084 359.558 234.995 357.824 238.601C357.356 240.145 358.792 241.348 360.152 242.575C361 243.259 360.311 244.657 359.273 244.429L359.26 244.41Z" fill="#101820"/>
<mask id="mask0_1691_32026" style="mask-type:luminance" maskUnits="userSpaceOnUse" x="352" y="251" width="30" height="37">
<path d="M352.047 251.422C355.641 251.707 359.241 251.998 362.836 252.282C362.652 253.991 362.677 256.389 363.924 258.635C365.582 261.628 368.556 262.812 369.809 263.413C373.289 265.083 377.661 269.07 381.318 279.358C376.408 281.921 371.504 284.484 366.594 287.046L360.165 277.954L352.047 251.422Z" fill="white"/>
</mask>
<g mask="url(#mask0_1691_32026)">
<path d="M366.132 280.971C356.825 262.134 355.451 249.283 356.034 240.892C356.255 237.735 356.945 232.356 354.154 226.661C350.636 219.486 344.935 218.657 340.746 213.203C337.475 208.938 334.836 201.471 338.095 187.449C338.057 193.435 339 202.06 344.65 209.242C349.143 214.949 352.889 215.019 357.223 220.669C362.969 228.161 361.988 235.343 363.532 245.714C364.696 253.535 367.525 264.747 375.194 278.042C374.96 278.453 373.624 280.712 370.79 281.427C368.518 281.997 366.677 281.225 366.126 280.965L366.132 280.971Z" fill="#9E7C52"/>
<path d="M366.822 279.408C362.462 270.493 358.722 261.064 357.387 251.168C356.488 244.53 357.975 237.823 356.811 231.261C356.02 226.807 354.033 222.624 350.743 219.479C347.934 216.79 344.365 214.993 341.821 212.013C336.265 205.508 337.202 196.333 338.936 188.563L337.126 187.449C337.126 195.46 338.721 203.679 343.511 210.279C346.061 213.797 349.427 215.955 352.787 218.593C356.59 221.574 359.33 225.687 360.532 230.369C362.506 238.032 362.215 246.157 364.075 253.895C366.252 262.944 369.922 271.537 374.516 279.617L374.712 276.149C372.997 279.035 369.504 280.187 366.398 278.851C365.024 278.263 364.664 282.591 365.879 283.11C369.536 284.679 373.649 283.407 375.693 279.965C376.231 279.06 376.433 277.453 375.889 276.498C371.314 268.461 367.65 259.938 365.569 250.902C363.904 243.663 364.037 236.172 362.399 228.952C360.652 221.257 356.027 216.436 349.889 211.88C342.087 206.084 339.069 196.871 339.062 187.462C339.062 186.202 337.771 184.019 337.253 186.348C335.455 194.403 334.411 203.559 337.974 211.317C341.764 219.568 351.825 221.998 354.54 230.951C355.799 235.121 355.008 239.316 354.951 243.562C354.9 246.985 355.179 250.421 355.717 253.8C357.311 263.855 360.987 273.435 365.442 282.547C366.48 284.673 367.366 280.547 366.815 279.421L366.822 279.408Z" fill="#101820"/>
</g>
<path d="M371.593 251.494C369.751 252.595 368.005 253.892 366.664 255.512C365.841 256.549 365.056 257.688 365.006 258.884C364.993 258.954 365.012 258.998 365.025 259.036C365.025 259.08 365.031 259.125 365.056 259.125C365.063 259.163 365.113 259.169 365.132 259.207C366.214 260.232 367.897 260.529 369.435 260.681C371.34 260.808 373.333 260.542 375.32 260.068C376.547 259.732 377.813 260.485 378.104 261.725C378.363 262.82 377.775 263.915 376.769 264.326C374.39 265.307 371.745 265.794 369.043 265.573C366.955 265.389 364.765 264.782 362.994 263.459C358.881 260.422 360.855 255.638 364.196 252.993C366.208 251.316 368.555 250.291 370.947 249.779C371.447 249.671 371.941 249.988 372.048 250.494C372.137 250.905 371.941 251.304 371.593 251.5V251.494Z" fill="#101820"/>
<path d="M369.417 240.913C366.55 241.862 363.538 243.608 362.178 246.209C361.722 247.139 361.488 248 362.121 248.74C362.615 249.398 363.905 250.24 365.12 250.879C367.493 252.188 365.994 255.776 363.412 255.036C358.451 253.581 355.414 248.594 359.052 244.108C360.394 242.444 362.089 241.375 363.848 240.685C365.608 239.995 367.443 239.691 369.227 239.691C369.569 239.691 369.847 239.97 369.847 240.318C369.847 240.596 369.664 240.83 369.41 240.913H369.417Z" fill="#101820"/>
<path d="M361.849 252.12C355.876 256.904 348.681 253.291 347.042 246.286C346.467 243.932 346.277 237.624 350.048 238.554C351.149 238.883 351.788 239.978 351.624 241.066C351.326 243.831 351.472 246.849 353.174 249.083C354.952 251.576 358.097 251.589 360.83 250.412C361.893 249.962 362.741 251.405 361.849 252.12Z" fill="#101820"/>
<path d="M117.627 23.3719C120.145 22.9226 122.664 22.467 125.182 22.0177L138.065 25.6371C134.395 60.6605 130.719 95.6839 127.049 130.707C143.108 128.689 162.041 127.43 183.225 128.151C202.056 128.796 218.957 130.878 233.517 133.491C233.72 131.334 233.916 129.176 234.118 127.012L216.661 83.9462L169.393 12.096L154.188 2.48438L128.175 8.32477C124.657 13.3426 121.139 18.3541 117.627 23.3719Z" fill="#995667"/>
<path opacity="0.47" d="M115.158 21.7279C124.555 11.2747 132.464 7.39587 139.134 8.59179C155.161 11.4645 167.658 44.3239 172.803 126.836C157.547 128.127 142.297 129.418 127.041 130.709L137.735 28.7136L132.958 22.2341L125.175 22.019L117.62 23.3731L115.158 21.7279Z" fill="#832C41"/>
<mask id="mask1_1691_32026" style="mask-type:luminance" maskUnits="userSpaceOnUse" x="135" y="30" width="52" height="72">
<path d="M135.002 91.1445L139.627 43.4405L158.92 30.5195L186.521 70.5291L152.884 101.579L135.002 91.1445Z" fill="white"/>
</mask>
<g mask="url(#mask1_1691_32026)">
<path d="M159.813 56.9648L154.422 66.064L158.744 75.4162L177.98 67.0131L159.819 56.9648H159.813Z" fill="#832C41"/>
<path d="M149.145 57.9531L159.478 56.7255L157.421 35.7305L142.146 49.9993L149.145 57.9594V57.9531Z" fill="#832C41"/>
<path d="M148.335 73.5938L140.735 80.6364L154.587 96.2403L158.516 75.8907L148.335 73.6001V73.5938Z" fill="#832C41"/>
<path d="M139.793 60.4627L141.836 50.1297L121.31 45.6055L130.187 64.601L139.799 60.4627H139.793Z" fill="#832C41"/>
<path d="M139.299 70.1386L130.124 65.0195L119.557 83.0216L140.267 80.4653L139.299 70.1449V70.1386Z" fill="#832C41"/>
</g>
<path d="M129.124 131.286C133.667 101.47 138.356 71.319 139.925 41.1806C140.172 36.4348 140.906 30.6577 139.406 26.0322C138.349 22.7608 134.433 20.0336 131.25 19.1414C130.168 18.8377 129.212 18.8187 128.13 18.9453C127.048 19.0718 118.696 21.0967 118.892 22.2736C118.778 21.5776 121.973 18.8377 122.499 18.2999C123.631 17.1419 124.808 16.0283 126.023 14.9589C129.143 12.2127 132.534 9.75125 136.141 7.68845C142.045 4.31583 148.967 3.40465 155.516 5.32825C162.818 7.46698 167.229 12.7379 171.747 18.496C176.872 25.0198 181.776 31.7208 186.471 38.5546C206.884 68.2691 223.203 100.698 234.972 134.772L237.623 132.121C201.037 124.661 163.438 123.509 126.46 128.635C123.72 129.014 124.884 133.172 127.605 132.792C163.774 127.78 200.702 128.983 236.478 136.278C237.971 136.582 239.705 135.285 239.129 133.627C228.398 102.552 213.977 72.7807 196.083 45.1986C191.299 37.8206 186.268 30.6008 181.004 23.5581C176.568 17.6228 172.202 10.7004 166.305 6.11287C161.414 2.30364 155.339 0.152251 149.132 0.00671592C142.083 -0.151475 135.85 2.4998 130.104 6.38496C127.067 8.44144 124.182 10.7384 121.505 13.2441C119.259 15.3512 115.88 18.0974 114.608 20.9511C113.678 23.0266 114.64 25.4564 116.734 26.3549C119.613 27.5888 122.954 24.8047 125.643 23.9884C126.491 23.729 127.346 23.5328 128.206 23.324L129.282 23.1152C128.839 23.1658 128.738 23.1785 128.978 23.1532C129.453 23.1785 129.87 23.2417 130.332 23.3746C131.996 23.8619 133.332 25.14 134.534 26.317L135.318 27.1775C135.103 26.8801 135.053 26.8295 135.179 27.0257C135.369 27.3863 135.027 26.5637 135.192 27.032C135.831 28.8227 135.774 30.6451 135.812 32.6572C136.128 49.9633 133.414 67.5478 131.262 84.6766C129.358 99.8566 127.263 115.018 124.96 130.147C124.549 132.861 128.7 134.032 129.117 131.292L129.124 131.286Z" fill="#101820"/>
<path d="M129.434 113.905C157.162 98.187 190.268 93.8842 221.109 101.908C222.014 102.142 222.33 98.5603 221.109 98.244C190.129 90.1889 156.839 94.5929 129.004 110.374C128.023 110.931 128.409 114.487 129.434 113.911V113.905Z" fill="#101820"/>
<path d="M251.532 211.037L254.297 216.631L259.992 238.834L272.274 255.141L289.549 265.556L315.397 269.239L330.729 264.335L335.114 263.582L329.153 256.001L305.349 261.747L279.386 252.711L266.883 234.544L261.283 213.075L260.53 202.223L251.532 211.037Z" fill="#101820"/>
<path d="M51.8203 281.27C59.0148 278.27 68.3734 273.227 77.2447 264.66C100.454 242.254 102.739 212.729 103.093 204.199" stroke="#101820" stroke-width="3" stroke-miterlimit="10"/>
<path d="M52.1865 282.598L59.09 276.852L79.313 262.59L92.3353 244.6L99.0805 228.129L103.092 210.032L109.388 207.324L109.281 220.144L104.548 238.184L98.7325 252.004L87.2226 266.949L78.3133 275.403L61.7539 286.059L54.8505 287.229L52.1865 282.598Z" fill="#101820"/>
<path d="M127.043 130.043C111.11 133.637 95.1771 137.231 79.2442 140.825C77.7382 141.167 77.4408 143.179 78.7886 143.932C88.7103 149.501 103.39 156.277 121.911 159.827C151.379 165.471 171.514 159.283 219.464 153.202C233.296 151.449 253.456 149.191 278.305 147.545C279.646 147.457 279.842 145.565 278.552 145.204C264.719 141.313 250.894 137.427 237.061 133.536C221.66 130.372 203.031 127.715 181.821 127.069C160.934 126.43 142.444 127.892 127.049 130.049L127.043 130.043Z" fill="#995667" stroke="#101820" stroke-width="3" stroke-miterlimit="10"/>
</svg>