<svg width="19" height="19" viewBox="0 0 19 19" fill="none" xmlns="http://www.w3.org/2000/svg">
<path d="M17.46 1.06533C17.8889 1.24814 18.0857 1.74385 17.9029 2.17275C17.4318 3.26963 16.6057 4.24697 15.9236 4.93955C17.0768 5.00283 17.9416 5.57236 18.3213 5.87471C18.4619 5.98721 18.5322 6.15947 18.5322 6.33877C18.5322 6.51807 18.4619 6.69033 18.3213 6.80635C17.9346 7.12979 17.0451 7.74854 16.001 7.74854C14.5947 7.74854 14.0568 7.21064 13.1885 6.34229C12.3201 5.47393 11.7822 4.93604 11.7822 3.52979C11.7822 2.48564 12.401 1.59619 12.7209 1.20947C12.8369 1.06885 13.0092 0.998535 13.1885 0.998535C13.3678 0.998535 13.54 1.06885 13.6525 1.20947C13.9725 1.61025 14.5947 2.55596 14.5947 3.81104C14.5947 3.83564 14.5947 3.86025 14.5947 3.88486C14.6193 3.86025 14.6439 3.83916 14.665 3.81455C15.3049 3.17471 15.9904 2.34854 16.349 1.51182C16.5318 1.08291 17.0275 0.886035 17.4564 1.06885L17.46 1.06533ZM0.532227 12.811C0.532227 6.62354 3.91426 3.24854 7.28926 3.24854C8.43887 3.25205 9.58496 3.6915 10.4639 4.56689L14.9639 9.06689C15.8428 9.9458 16.2822 11.0989 16.2822 12.2485C16.2822 15.6235 12.9072 18.9985 6.71973 18.9985C2.21973 18.9985 0.532227 17.311 0.532227 12.811ZM6.60723 7.07354C7.02559 6.65518 7.12051 6.07861 6.91309 5.86768C6.70566 5.65674 6.12559 5.75518 5.70723 6.17353C5.28887 6.59189 5.19395 7.16846 5.40137 7.37939C5.60879 7.59033 6.18887 7.49189 6.60723 7.07354ZM9.16309 8.11768C8.95566 7.91025 8.37559 8.00518 7.95723 8.42353C7.53887 8.84189 7.44395 9.41846 7.65137 9.62939C7.85879 9.84033 8.43887 9.74189 8.85723 9.32353C9.27559 8.90518 9.37051 8.32861 9.16309 8.11768ZM8.03809 11.4927C7.83066 11.2853 7.25059 11.3802 6.83223 11.7985C6.41387 12.2169 6.31895 12.7935 6.52637 13.0044C6.73379 13.2153 7.31387 13.1169 7.73223 12.6985C8.15059 12.2802 8.24551 11.7036 8.03809 11.4927ZM6.91309 14.8677C6.70566 14.6603 6.12559 14.7552 5.70723 15.1735C5.28887 15.5919 5.19395 16.1685 5.40137 16.3794C5.60879 16.5903 6.18887 16.4919 6.60723 16.0735C7.02559 15.6552 7.12051 15.0786 6.91309 14.8677ZM9.98223 14.9485C10.4006 14.5302 10.4955 13.9536 10.2881 13.7427C10.0807 13.5317 9.50059 13.6302 9.08223 14.0485C8.66387 14.4669 8.56894 15.0435 8.77637 15.2544C8.98379 15.4653 9.56387 15.3669 9.98223 14.9485ZM11.1072 11.5735C11.5256 11.1552 11.6205 10.5786 11.4131 10.3677C11.2057 10.1567 10.6256 10.2552 10.2072 10.6735C9.78887 11.0919 9.69394 11.6685 9.90137 11.8794C10.1088 12.0903 10.6889 11.9919 11.1072 11.5735ZM13.6631 12.6177C13.4557 12.4103 12.8756 12.5052 12.4572 12.9235C12.0389 13.3419 11.9439 13.9185 12.1514 14.1294C12.3588 14.3403 12.9389 14.2419 13.3572 13.8235C13.7756 13.4052 13.8705 12.8286 13.6631 12.6177ZM5.78809 9.24268C5.58066 9.03525 5.00059 9.13018 4.58223 9.54854C4.16387 9.96689 4.06895 10.5435 4.27637 10.7544C4.48379 10.9653 5.06387 10.8669 5.48223 10.4485C5.90059 10.0302 5.99551 9.45361 5.78809 9.24268ZM4.35723 13.8235C4.77559 13.4052 4.87051 12.8286 4.66309 12.6177C4.45566 12.4067 3.87559 12.5052 3.45723 12.9235C3.03887 13.3419 2.94395 13.9185 3.15137 14.1294C3.35879 14.3403 3.93887 14.2419 4.35723 13.8235Z" fill="#101820"/>
</svg>
