<svg width="75" height="50" viewBox="0 0 75 50" fill="none" xmlns="http://www.w3.org/2000/svg">
<path d="M53.9822 15.6531L52.6641 43.9031H56.3242L57.4153 41.418L59.5781 39.938H62.3372L64.4883 41.418L65.5881 43.9031H71.3442L73.2571 28.325L63.6133 15.6521L53.9822 15.6531Z" fill="#E6D4D9"/>
<mask id="mask0_15_247" style="mask-type:luminance" maskUnits="userSpaceOnUse" x="0" y="0" width="75" height="50">
<path d="M74.083 0H0V50H74.083V0Z" fill="white"/>
</mask>
<g mask="url(#mask0_15_247)">
<path d="M73.9802 27.523C73.9411 27.4349 73.8914 27.352 73.8322 27.276L64.6322 14.562C64.5219 14.4096 64.377 14.2855 64.2094 14.2C64.0419 14.1144 63.8564 14.0699 63.6682 14.07H55.0732L55.6282 1.24C55.6351 1.07962 55.6095 0.919507 55.5528 0.769312C55.4961 0.619118 55.4096 0.481952 55.2985 0.366084C55.1874 0.250216 55.054 0.158046 54.9063 0.0951292C54.7586 0.0322126 54.5998 -0.000147239 54.4392 5.03624e-07H9.43922C9.13127 4.87098e-05 8.83532 0.119481 8.61359 0.333193C8.39186 0.546905 8.26161 0.838254 8.25022 1.146L7.92422 10.132L10.3022 10.219L10.5872 2.379H53.1982L52.1102 27.527H18.8522V29.906H52.0072L51.4392 43.09H24.4452C24.4092 42.922 24.3662 42.756 24.3152 42.59L24.2922 42.52C24.2722 42.459 24.2522 42.399 24.2302 42.339C24.2202 42.31 24.2082 42.281 24.1972 42.252C24.1762 42.198 24.1562 42.145 24.1342 42.092L24.0952 42.001C24.0732 41.95 24.0502 41.901 24.0262 41.849L23.9842 41.761C23.9592 41.709 23.9322 41.661 23.9052 41.608C23.8912 41.582 23.8772 41.555 23.8632 41.528C23.8322 41.471 23.7992 41.415 23.7632 41.36L23.7302 41.303C23.6842 41.228 23.6372 41.154 23.5882 41.082L23.5772 41.067C23.5322 41.001 23.4852 40.935 23.4382 40.867L23.3892 40.803C23.3532 40.756 23.3162 40.708 23.2782 40.662L23.2172 40.589C23.1822 40.547 23.1452 40.505 23.1092 40.464L23.0422 40.391C23.0052 40.351 22.9672 40.312 22.9292 40.273L22.8602 40.204C22.8192 40.164 22.7782 40.125 22.7362 40.086L22.6712 40.026C22.6212 39.981 22.5712 39.937 22.5192 39.894L22.4752 39.857C22.4086 39.8017 22.3419 39.748 22.2752 39.696L22.2312 39.664C22.1762 39.624 22.1212 39.584 22.0642 39.546L21.9882 39.496C21.9412 39.465 21.8932 39.434 21.8452 39.404L21.7592 39.352C21.7132 39.3247 21.6666 39.2977 21.6192 39.271L21.5292 39.222C21.4812 39.196 21.4292 39.172 21.3842 39.148L21.2942 39.104C21.2422 39.079 21.1942 39.056 21.1372 39.033L21.0552 39C20.9886 38.972 20.9219 38.945 20.8552 38.919L20.8152 38.903C20.7332 38.873 20.6492 38.845 20.5652 38.818L20.4922 38.797C20.4312 38.779 20.3712 38.761 20.3102 38.745L20.2102 38.721L20.0462 38.683L19.9462 38.662L19.7842 38.633L19.6772 38.616L19.5102 38.595L19.4102 38.583C19.3492 38.577 19.2872 38.573 19.2262 38.569L19.1362 38.563C19.0442 38.563 18.9522 38.556 18.8592 38.556C18.7662 38.556 18.6742 38.556 18.5832 38.563L18.4932 38.569C18.4322 38.569 18.3702 38.577 18.3102 38.583L18.2102 38.595L18.0442 38.616L17.9362 38.633L17.7762 38.662L17.6702 38.683L17.5092 38.72L17.4092 38.744C17.3502 38.76 17.2912 38.777 17.2322 38.795L17.1552 38.818C17.0719 38.844 16.9892 38.872 16.9072 38.902L16.8572 38.922C16.7922 38.947 16.7272 38.972 16.6632 38.999L16.5752 39.038L16.4242 39.106L16.3292 39.153L16.1902 39.224L16.0902 39.276L15.9562 39.353L15.8652 39.408C15.8192 39.436 15.7742 39.465 15.7302 39.495L15.6472 39.55C15.5952 39.585 15.5472 39.622 15.4932 39.659L15.4362 39.7C15.3696 39.7513 15.3029 39.804 15.2362 39.858L15.1812 39.905C15.1342 39.945 15.0862 39.985 15.0412 40.027L14.9692 40.094C14.9302 40.131 14.8912 40.167 14.8522 40.205L14.7782 40.28C14.7422 40.317 14.7062 40.354 14.6712 40.392L14.5992 40.47L14.4992 40.589L14.4342 40.667C14.3982 40.711 14.3642 40.755 14.3342 40.8C14.3162 40.824 14.2972 40.847 14.2802 40.871C14.2362 40.93 14.1932 40.99 14.1522 41.051L14.1302 41.082C14.0822 41.154 14.0352 41.227 13.9902 41.3L13.9512 41.367C13.9202 41.419 13.8892 41.472 13.8592 41.526L13.8132 41.612C13.7879 41.6607 13.7629 41.7097 13.7382 41.759L13.6932 41.852C13.6702 41.9 13.6482 41.952 13.6272 41.999L13.5862 42.099C13.5652 42.15 13.5452 42.199 13.5262 42.252C13.5142 42.283 13.5022 42.314 13.4912 42.345C13.4702 42.402 13.4522 42.459 13.4332 42.516C13.4252 42.543 13.4152 42.569 13.4072 42.596C13.3812 42.68 13.3572 42.765 13.3342 42.851V42.866C13.3149 42.94 13.2972 43.0147 13.2812 43.09H8.79823L9.12722 31.443L6.74923 31.376L6.38522 44.246C6.38081 44.4049 6.40831 44.5632 6.46607 44.7113C6.52383 44.8594 6.6107 44.9945 6.72153 45.1085C6.83237 45.2225 6.96493 45.3132 7.11139 45.3751C7.25784 45.437 7.41522 45.4689 7.57422 45.469H13.2602C13.5317 46.7509 14.2353 47.9006 15.2533 48.7256C16.2713 49.5507 17.5419 50.0009 18.8522 50.0009C20.1626 50.0009 21.4331 49.5507 22.4511 48.7256C23.4691 47.9006 24.1728 46.7509 24.4442 45.469H55.4182C55.6902 46.7511 56.3943 47.9009 57.4128 48.726C58.4312 49.551 59.7021 50.0012 61.0127 50.0012C62.3234 50.0012 63.5943 49.551 64.6127 48.726C65.6311 47.9009 66.3352 46.7511 66.6072 45.469H71.0292C71.3212 45.469 71.6031 45.3615 71.821 45.1672C72.039 44.9728 72.1779 44.7051 72.2112 44.415L74.0712 28.169C74.1017 27.9493 74.0708 27.7255 73.9802 27.523ZM18.8492 47.623C18.1884 47.623 17.5425 47.4271 16.9931 47.0599C16.4436 46.6928 16.0154 46.171 15.7625 45.5605C15.5097 44.9501 15.4435 44.2783 15.5724 43.6302C15.7013 42.9821 16.0195 42.3868 16.4868 41.9196C16.954 41.4523 17.5493 41.1341 18.1974 41.0052C18.8455 40.8763 19.5173 40.9424 20.1278 41.1953C20.7383 41.4482 21.26 41.8764 21.6272 42.4258C21.9943 42.9753 22.1902 43.6212 22.1902 44.282C22.1897 45.1679 21.8375 46.0174 21.2111 46.6439C20.5846 47.2703 19.7351 47.6225 18.8492 47.623ZM61.0122 47.623C60.3514 47.623 59.7055 47.4271 59.1561 47.0599C58.6066 46.6928 58.1784 46.171 57.9255 45.5605C57.6727 44.9501 57.6065 44.2783 57.7354 43.6302C57.8643 42.9821 58.1825 42.3868 58.6498 41.9196C59.117 41.4523 59.7123 41.1341 60.3604 41.0052C61.0085 40.8763 61.6803 40.9424 62.2908 41.1953C62.9013 41.4482 63.423 41.8764 63.7902 42.4258C64.1573 42.9753 64.3532 43.6212 64.3532 44.282C64.3522 45.1678 63.9998 46.0169 63.3735 46.6433C62.7472 47.2696 61.898 47.6219 61.0122 47.623ZM69.9682 43.092H66.6082C66.5722 42.9233 66.5289 42.7567 66.4782 42.592C66.4712 42.569 66.4632 42.547 66.4562 42.524C66.4362 42.462 66.4162 42.401 66.3942 42.341C66.3842 42.312 66.3732 42.284 66.3622 42.256C66.3422 42.202 66.3212 42.148 66.2982 42.095L66.2602 42.006C66.2376 41.954 66.2142 41.9027 66.1902 41.852L66.1492 41.765C66.1232 41.713 66.0972 41.665 66.0702 41.611C66.0562 41.585 66.0432 41.558 66.0282 41.532C65.9972 41.475 65.9642 41.418 65.9282 41.363L65.8952 41.307C65.8492 41.2317 65.8019 41.1577 65.7532 41.085L65.7432 41.071C65.6979 41.0043 65.6509 40.9377 65.6022 40.871L65.5532 40.808C65.5172 40.76 65.4802 40.708 65.4422 40.667L65.3822 40.595C65.3462 40.553 65.3102 40.511 65.2732 40.469L65.2072 40.396C65.1702 40.356 65.1322 40.316 65.0942 40.277L65.0252 40.208C64.9842 40.168 64.9432 40.129 64.9012 40.09L64.8362 40.03C64.7862 39.985 64.7362 39.941 64.6832 39.898L64.6392 39.861C64.5726 39.8057 64.5059 39.752 64.4392 39.7L64.3952 39.668C64.3402 39.628 64.2852 39.588 64.2282 39.55L64.1522 39.5C64.1052 39.469 64.0582 39.438 64.0102 39.409L63.9242 39.357L63.7842 39.276L63.6942 39.227L63.5492 39.153L63.4592 39.109C63.4072 39.084 63.3592 39.061 63.3022 39.038L63.2182 39C63.1516 38.972 63.0849 38.945 63.0182 38.919L62.9782 38.903C62.8956 38.873 62.8122 38.8447 62.7282 38.818L62.6552 38.797C62.5952 38.779 62.5342 38.761 62.4732 38.745L62.3732 38.721L62.2092 38.683L62.1092 38.662L61.9472 38.633L61.8392 38.62L61.6722 38.599L61.5722 38.587C61.5112 38.581 61.4502 38.577 61.3882 38.573L61.2982 38.567C61.2062 38.567 61.1142 38.56 61.0222 38.56C60.9302 38.56 60.8372 38.56 60.7452 38.567L60.6562 38.573C60.5942 38.573 60.5332 38.581 60.4722 38.587L60.3722 38.599L60.2052 38.62L60.0982 38.637L59.9362 38.666L59.8362 38.687L59.6722 38.725L59.5722 38.749C59.5102 38.765 59.4492 38.783 59.3892 38.801L59.3182 38.822C59.2336 38.8487 59.1499 38.877 59.0672 38.907L59.0302 38.921C58.9602 38.947 58.8912 38.974 58.8232 39.003L58.7422 39.039C58.6892 39.062 58.6362 39.086 58.5832 39.111L58.4942 39.155L58.3482 39.23L58.2592 39.278C58.2112 39.304 58.1642 39.332 58.1172 39.359L58.0322 39.41C57.9832 39.44 57.9322 39.471 57.8882 39.503L57.8142 39.552C57.7572 39.591 57.7002 39.632 57.6452 39.673L57.6042 39.703C57.5376 39.755 57.4692 39.8087 57.3992 39.864L57.3392 39.9C57.2872 39.944 57.2392 39.988 57.1842 40.034L57.1202 40.093C57.0782 40.132 57.0362 40.172 56.9952 40.212L56.9282 40.28C56.8896 40.3193 56.8516 40.3593 56.8142 40.4L56.7482 40.472C56.7112 40.514 56.6742 40.556 56.6382 40.599L56.5782 40.67C56.5402 40.717 56.5032 40.765 56.4662 40.813L56.4182 40.875C56.3696 40.9417 56.3219 41.0083 56.2752 41.075L56.2672 41.086C56.2179 41.1587 56.1702 41.2327 56.1242 41.308L56.0922 41.363C56.0592 41.42 56.0252 41.476 55.9922 41.534L55.9512 41.612C55.9242 41.663 55.8972 41.712 55.8722 41.767L55.8312 41.854C55.8072 41.9047 55.7839 41.956 55.7612 42.008L55.7232 42.097C55.7012 42.15 55.6802 42.204 55.6602 42.258C55.6492 42.287 55.6382 42.315 55.6282 42.344C55.6062 42.404 55.5862 42.465 55.5662 42.526C55.5592 42.549 55.5512 42.572 55.5432 42.595C55.4932 42.758 55.4492 42.923 55.4132 43.095H53.8132L54.9702 16.45H63.0602L67.2182 22.195H58.3462V24.574H68.9392L71.6582 28.331L69.9682 43.092Z" fill="#101820"/>
<path d="M19.3278 13.058H4.59277V15.437H19.3278V13.058Z" fill="#101820"/>
<path d="M5.695 18.676H0V21.055H5.695V18.676Z" fill="#101820"/>
<path d="M13.5639 25.679H1.7959V28.058H13.5639V25.679Z" fill="#101820"/>
</g>
</svg>
